<svg xmlns="http://www.w3.org/2000/svg" viewBox="0 0 302.04 113.01"><defs><style>.cls-1{fill:#fff;}</style></defs><g id="Capa_2" data-name="Capa 2"><g id="Capa_1-2" data-name="Capa 1"><path class="cls-1" d="M302,113H0V0H302ZM6,107H296V6H6Z"/><path class="cls-1" d="M55.83,81.82h-6.9V58.57H27.65V81.82H20.76V31.17h6.89V52.6H48.93V31.17h6.9Z"/><path class="cls-1" d="M103.34,81.82H95.82l-3.53-11H71.21l-3.56,11H60.48L77.3,31.17h9.45Zm-13-17.2L81.75,37.53,73.19,64.62Z"/><path class="cls-1" d="M147.21,31.17,130,81.82h-9.3L103.88,31.17h7.79L122.6,65.32l3.1,10,3.18-10,11-34.15Z"/><path class="cls-1" d="M148.7,16.67V96.34H281.3V16.67Zm39,20.39h-15V81.82h-7V37.06h-15V31.17h37ZM227.59,37h-21.9V52.68h21.05V58.5H205.69V75.93h21.9v5.89h-28.8V31.17h28.8Zm45.22,44.83H243.67V31.17h7V75.93h22.13Z"/></g></g></svg>