<svg width="162" height="29" viewBox="0 0 162 29" fill="none" xmlns="http://www.w3.org/2000/svg">
<g clip-path="url(#clip0_1286_7101)">
<path d="M0.12776 0.495727C0.12776 0.495727 0.255521 0.371795 0.383281 0.371795H1.2776C1.53312 0.371795 1.78864 0.495727 1.9164 0.619658C2.04416 0.74359 2.17192 0.991453 2.17192 1.23932V26.7692H4.59937C4.98265 26.7692 5.23817 26.8932 5.36593 27.0171C5.49369 27.141 5.62145 27.5128 5.62145 27.8846V28.2564C5.62145 28.5043 5.49369 28.7521 5.23817 28.7521H0.383281C0.255521 28.7521 0.12776 28.7521 0.12776 28.6282C0.12776 28.5043 0 28.3803 0 28.1325V0.74359C0 0.619658 0 0.495727 0.12776 0.495727Z" fill="#E8BA33"/>
<path d="M23.6384 21.812H25.9381L24.7882 4.08974L23.6384 21.812ZM28.621 28.2564C28.621 28.3803 28.621 28.5043 28.621 28.6282C28.621 28.6282 28.4933 28.7521 28.3655 28.7521H27.3434C27.0879 28.7521 26.8324 28.6282 26.7046 28.5043C26.5769 28.3803 26.4491 28.1325 26.4491 27.8846L26.1936 23.7949H23.6384L23.3829 27.8846C23.3829 28.1325 23.2551 28.3803 23.1273 28.5043C22.9996 28.6282 22.7441 28.7521 22.4885 28.7521H21.4665C21.3387 28.7521 21.2109 28.7521 21.2109 28.6282C21.2109 28.6282 21.2109 28.5043 21.2109 28.2564L23.5106 0.867521C23.5106 0.619658 23.6384 0.495727 23.7661 0.495727C23.8939 0.495727 24.1494 0.371795 24.2772 0.371795H25.5548C25.8103 0.371795 25.9381 0.371795 26.0658 0.495727C26.1936 0.495727 26.1936 0.74359 26.3213 0.867521L28.621 28.2564Z" fill="#E8BA33"/>
<path d="M69.3701 0.371795C69.6256 0.371795 69.7534 0.495726 69.7534 0.867521V1.23932C69.7534 1.61111 69.6256 1.85897 69.4979 2.10684C69.3701 2.23077 69.1146 2.3547 68.7313 2.3547H67.3259V28.2564C67.3259 28.6282 67.1982 28.7521 66.8149 28.7521H65.6651C65.2818 28.7521 65.154 28.6282 65.154 28.2564V2.23077H63.7486C63.3654 2.23077 63.1098 2.10684 62.9821 1.98291C62.8543 1.85897 62.7266 1.48718 62.7266 1.11538V0.867521C62.7266 0.619658 62.8543 0.371795 63.1098 0.371795H69.3701Z" fill="#E8BA33"/>
<path d="M87.7735 26.0256C87.7735 26.2735 87.9012 26.5214 88.029 26.7692C88.2845 27.0171 88.54 27.141 89.0511 27.141C89.5621 27.141 89.8177 27.0171 90.0732 26.7692C90.3287 26.5214 90.3287 26.2735 90.3287 26.0256V2.97436C90.3287 2.7265 90.2009 2.47863 90.0732 2.23077C89.8177 1.98291 89.5621 1.85897 89.0511 1.85897C88.54 1.85897 88.2845 1.98291 88.029 2.23077C87.9012 2.47863 87.7735 2.7265 87.7735 2.97436V26.0256ZM85.6016 2.97436C85.6016 2.60256 85.7293 2.23077 85.8571 1.85897C85.9848 1.48718 86.2404 1.23932 86.4959 0.867521C86.7514 0.619658 87.1347 0.371795 87.518 0.247863C88.029 0.123932 88.54 0 89.0511 0C89.6899 0 90.2009 0.123932 90.5842 0.247863C90.9675 0.371795 91.3508 0.619658 91.6063 0.867521C91.9896 1.23932 92.2451 1.48718 92.3729 1.85897C92.5006 2.23077 92.6284 2.60256 92.6284 2.97436V26.0256C92.6284 26.3974 92.6284 26.6453 92.5006 27.0171C92.3729 27.3889 92.1173 27.6368 91.8618 28.0085C91.6063 28.2564 91.223 28.5043 90.8397 28.7521C90.4564 28.8761 89.8177 29 89.1789 29C88.5401 29 88.029 28.8761 87.6457 28.7521C87.2624 28.6282 86.8792 28.3803 86.6236 28.0085C86.3681 27.7607 86.1126 27.3889 85.9848 27.0171C85.7293 26.6453 85.6016 26.3974 85.6016 26.0256V2.97436Z" fill="#E8BA33"/>
<path d="M111.406 2.23077V14.7479H112.812C113.067 14.7479 113.195 14.7479 113.45 14.6239C113.578 14.5 113.706 14.3761 113.834 14.2521C113.962 14.1282 113.962 13.8803 113.962 13.7564C113.962 13.5085 113.962 13.3846 113.962 13.1368V3.34615C113.962 3.09829 113.834 2.85043 113.706 2.60256C113.45 2.3547 113.195 2.23077 112.684 2.23077H111.406ZM116.133 28.2564C116.133 28.3803 116.133 28.5043 116.006 28.6282C116.006 28.6282 115.878 28.7521 115.75 28.7521H114.856C114.6 28.7521 114.345 28.6282 114.217 28.5043C114.089 28.3803 113.962 28.1325 113.962 27.8846V17.8462C113.962 17.5983 113.834 17.3504 113.706 17.1026C113.45 16.8547 113.195 16.7308 112.684 16.7308H111.406V27.8846C111.406 28.1325 111.279 28.3803 111.151 28.5043C111.023 28.6282 110.767 28.7521 110.512 28.7521H109.618C109.49 28.7521 109.362 28.7521 109.362 28.6282C109.362 28.6282 109.234 28.5043 109.234 28.2564V0.74359C109.234 0.619658 109.234 0.495727 109.362 0.371795C109.362 0.371795 109.49 0.247863 109.618 0.247863H112.684C113.323 0.247863 113.834 0.371795 114.217 0.495727C114.6 0.619658 114.984 0.867521 115.239 1.11538C115.495 1.36325 115.75 1.73504 115.878 2.10684C116.006 2.47863 116.006 2.85043 116.006 3.22222V13.1368C116.006 13.7564 115.878 14.2521 115.75 14.6239C115.622 14.9957 115.239 15.3675 114.856 15.6154C115.239 15.8632 115.495 16.1111 115.75 16.4829C115.878 16.8547 116.006 17.2265 116.006 17.5983V28.2564H116.133Z" fill="#E8BA33"/>
<path d="M134.914 2.23077V14.7479H136.319C136.575 14.7479 136.703 14.7479 136.958 14.6239C137.086 14.5 137.214 14.3761 137.342 14.2521C137.469 14.1282 137.469 13.8803 137.469 13.7564C137.469 13.5085 137.469 13.3846 137.469 13.1368V3.34615C137.469 3.09829 137.342 2.85043 137.214 2.60256C136.958 2.3547 136.703 2.23077 136.192 2.23077H134.914ZM139.641 28.2564C139.641 28.3803 139.641 28.5043 139.513 28.6282C139.513 28.6282 139.386 28.7521 139.258 28.7521H138.364C138.108 28.7521 137.853 28.6282 137.725 28.5043C137.597 28.3803 137.469 28.1325 137.469 27.8846V17.8462C137.469 17.5983 137.342 17.3504 137.214 17.1026C136.958 16.8547 136.703 16.7308 136.192 16.7308H134.914V27.8846C134.914 28.1325 134.786 28.3803 134.659 28.5043C134.531 28.6282 134.275 28.7521 134.02 28.7521H133.125C132.998 28.7521 132.87 28.7521 132.87 28.6282C132.87 28.6282 132.742 28.5043 132.742 28.2564V0.74359C132.742 0.619658 132.742 0.495727 132.87 0.371795C132.87 0.371795 132.998 0.247863 133.125 0.247863H136.192C136.831 0.247863 137.342 0.371795 137.725 0.495727C138.108 0.619658 138.491 0.867521 138.747 1.11538C139.002 1.36325 139.258 1.73504 139.386 2.10684C139.513 2.47863 139.513 2.85043 139.513 3.22222V13.1368C139.513 13.7564 139.386 14.2521 139.258 14.6239C139.13 14.9957 138.747 15.3675 138.364 15.6154C138.747 15.8632 139.002 16.1111 139.258 16.4829C139.386 16.8547 139.513 17.2265 139.513 17.5983V28.2564H139.641Z" fill="#E8BA33"/>
<path d="M161.613 0.371795C161.869 0.371795 161.996 0.495726 161.996 0.867521V1.23932C161.996 1.61111 161.869 1.85897 161.741 2.10684C161.613 2.3547 161.358 2.3547 160.974 2.3547H158.547V13.6325H161.358C161.613 13.6325 161.741 13.7564 161.741 14.1282V14.5C161.741 15.2436 161.358 15.6154 160.719 15.6154H158.675V26.7692H161.102C161.485 26.7692 161.741 26.8932 161.869 27.0171C161.996 27.141 162.124 27.5128 162.124 27.8846V28.2564C162.124 28.5043 161.996 28.7521 161.741 28.7521H157.014C156.758 28.7521 156.631 28.7521 156.503 28.6282C156.375 28.6282 156.375 28.5043 156.375 28.2564V0.74359C156.375 0.619658 156.375 0.495727 156.503 0.371795C156.503 0.371795 156.631 0.247863 156.758 0.247863H161.613V0.371795Z" fill="#E8BA33"/>
</g>
<defs>
<clipPath id="clip0_1286_7101">
<rect width="162" height="29" fill="white"/>
</clipPath>
</defs>
</svg>
