<svg width="212" height="62" viewBox="0 0 212 62" fill="none" xmlns="http://www.w3.org/2000/svg">
<g clip-path="url(#clip0_1286_7092)">
<path d="M0.166404 0.666667C0.166404 0.666667 0.332808 0.5 0.499211 0.5H1.66404C1.99685 0.5 2.32965 0.666667 2.49606 0.833333C2.66246 1 2.82886 1.33333 2.82886 1.66667V36H5.99054C6.48975 36 6.82255 36.1667 6.98896 36.3333C7.15536 36.5 7.32177 37 7.32177 37.5V38C7.32177 38.3333 7.15536 38.6667 6.82255 38.6667H0.499211C0.332808 38.6667 0.166404 38.6667 0.166404 38.5C0.166404 38.3333 0 38.1667 0 37.8333V1C0 0.833333 0 0.666667 0.166404 0.666667Z" fill="#E8BA33"/>
<path d="M30.7867 29.3333H33.7819L32.2843 5.5L30.7867 29.3333ZM37.2764 38C37.2764 38.1667 37.2764 38.3333 37.2764 38.5C37.2764 38.5 37.11 38.6667 36.9436 38.6667H35.6124C35.2796 38.6667 34.9468 38.5 34.7804 38.3333C34.614 38.1667 34.4476 37.8333 34.4476 37.5L34.1147 32H30.7867L30.4539 37.5C30.4539 37.8333 30.2875 38.1667 30.1211 38.3333C29.9547 38.5 29.6218 38.6667 29.289 38.6667H27.9578C27.7914 38.6667 27.625 38.6667 27.625 38.5C27.625 38.5 27.625 38.3333 27.625 38L30.6203 1.16667C30.6203 0.833333 30.7867 0.666667 30.9531 0.666667C31.1195 0.666667 31.4523 0.5 31.6187 0.5H33.2827C33.6155 0.5 33.7819 0.5 33.9483 0.666667C34.1147 0.666667 34.1147 1 34.2812 1.16667L37.2764 38Z" fill="#E8BA33"/>
<path d="M90.3561 0.5C90.6889 0.5 90.8553 0.666667 90.8553 1.16667V1.66667C90.8553 2.16667 90.6889 2.5 90.5225 2.83333C90.3561 3 90.0233 3.16667 89.5241 3.16667H87.6937V38C87.6937 38.5 87.5273 38.6667 87.028 38.6667H85.5304C85.0312 38.6667 84.8648 38.5 84.8648 38V3H83.0344C82.5351 3 82.2023 2.83333 82.0359 2.66667C81.8695 2.5 81.7031 2 81.7031 1.5V1.16667C81.7031 0.833333 81.8695 0.5 82.2023 0.5H90.3561Z" fill="#E8BA33"/>
<path d="M114.321 35C114.321 35.3333 114.487 35.6667 114.654 36C114.987 36.3333 115.319 36.5 115.985 36.5C116.651 36.5 116.984 36.3333 117.316 36C117.649 35.6667 117.649 35.3333 117.649 35V4C117.649 3.66667 117.483 3.33333 117.316 3C116.984 2.66667 116.651 2.5 115.985 2.5C115.319 2.5 114.987 2.66667 114.654 3C114.487 3.33333 114.321 3.66667 114.321 4V35ZM111.492 4C111.492 3.5 111.659 3 111.825 2.5C111.991 2 112.324 1.66667 112.657 1.16667C112.99 0.833333 113.489 0.5 113.988 0.333333C114.654 0.166667 115.319 0 115.985 0C116.817 0 117.483 0.166667 117.982 0.333333C118.481 0.5 118.98 0.833333 119.313 1.16667C119.812 1.66667 120.145 2 120.312 2.5C120.478 3 120.644 3.5 120.644 4V35C120.644 35.5 120.644 35.8333 120.478 36.3333C120.312 36.8333 119.979 37.1667 119.646 37.6667C119.313 38 118.814 38.3333 118.315 38.6667C117.816 38.8333 116.984 39 116.151 39C115.319 39 114.654 38.8333 114.155 38.6667C113.655 38.5 113.156 38.1667 112.823 37.6667C112.491 37.3333 112.158 36.8333 111.991 36.3333C111.659 35.8333 111.492 35.5 111.492 35V4Z" fill="#E8BA33"/>
<path d="M145.102 2.99992V19.8333H146.933C147.266 19.8333 147.432 19.8333 147.765 19.6666C147.931 19.4999 148.098 19.3333 148.264 19.1666C148.43 18.9999 148.43 18.6666 148.43 18.4999C148.43 18.1666 148.43 17.9999 148.43 17.6666V4.49992C148.43 4.16659 148.264 3.83325 148.098 3.49992C147.765 3.16659 147.432 2.99992 146.766 2.99992H145.102ZM151.259 37.9999C151.259 38.1666 151.259 38.3333 151.093 38.4999C151.093 38.4999 150.926 38.6666 150.76 38.6666H149.595C149.262 38.6666 148.93 38.4999 148.763 38.3333C148.597 38.1666 148.43 37.8333 148.43 37.4999V23.9999C148.43 23.6666 148.264 23.3333 148.098 22.9999C147.765 22.6666 147.432 22.4999 146.766 22.4999H145.102V37.4999C145.102 37.8333 144.936 38.1666 144.769 38.3333C144.603 38.4999 144.27 38.6666 143.937 38.6666H142.773C142.606 38.6666 142.44 38.6666 142.44 38.4999C142.44 38.4999 142.273 38.3333 142.273 37.9999V0.999919C142.273 0.833252 142.273 0.666585 142.44 0.499919C142.44 0.499919 142.606 0.333252 142.773 0.333252H146.766C147.598 0.333252 148.264 0.499919 148.763 0.666585C149.262 0.833252 149.762 1.16659 150.094 1.49992C150.427 1.83325 150.76 2.33325 150.926 2.83325C151.093 3.33325 151.093 3.83325 151.093 4.33325V17.6666C151.093 18.4999 150.926 19.1666 150.76 19.6666C150.594 20.1666 150.094 20.6666 149.595 20.9999C150.094 21.3333 150.427 21.6666 150.76 22.1666C150.926 22.6666 151.093 23.1666 151.093 23.6666V37.9999H151.259Z" fill="#E8BA33"/>
<path d="M175.719 2.99992V19.8333H177.55C177.883 19.8333 178.049 19.8333 178.382 19.6666C178.548 19.4999 178.715 19.3333 178.881 19.1666C179.048 18.9999 179.048 18.6666 179.048 18.4999C179.048 18.1666 179.048 17.9999 179.048 17.6666V4.49992C179.048 4.16659 178.881 3.83325 178.715 3.49992C178.382 3.16659 178.049 2.99992 177.384 2.99992H175.719ZM181.876 37.9999C181.876 38.1666 181.876 38.3333 181.71 38.4999C181.71 38.4999 181.544 38.6666 181.377 38.6666H180.212C179.88 38.6666 179.547 38.4999 179.38 38.3333C179.214 38.1666 179.048 37.8333 179.048 37.4999V23.9999C179.048 23.6666 178.881 23.3333 178.715 22.9999C178.382 22.6666 178.049 22.4999 177.384 22.4999H175.719V37.4999C175.719 37.8333 175.553 38.1666 175.387 38.3333C175.22 38.4999 174.887 38.6666 174.555 38.6666H173.39C173.223 38.6666 173.057 38.6666 173.057 38.4999C173.057 38.4999 172.891 38.3333 172.891 37.9999V0.999919C172.891 0.833252 172.891 0.666585 173.057 0.499919C173.057 0.499919 173.223 0.333252 173.39 0.333252H177.384C178.216 0.333252 178.881 0.499919 179.38 0.666585C179.88 0.833252 180.379 1.16659 180.712 1.49992C181.044 1.83325 181.377 2.33325 181.544 2.83325C181.71 3.33325 181.71 3.83325 181.71 4.33325V17.6666C181.71 18.4999 181.544 19.1666 181.377 19.6666C181.211 20.1666 180.712 20.6666 180.212 20.9999C180.712 21.3333 181.044 21.6666 181.377 22.1666C181.544 22.6666 181.71 23.1666 181.71 23.6666V37.9999H181.876Z" fill="#E8BA33"/>
<path d="M210.502 0.499919C210.835 0.499919 211.001 0.666585 211.001 1.16659V1.66659C211.001 2.16659 210.835 2.49992 210.669 2.83325C210.502 3.16659 210.169 3.16659 209.67 3.16659H206.509V18.3333H210.169C210.502 18.3333 210.669 18.4999 210.669 18.9999V19.4999C210.669 20.4999 210.169 20.9999 209.337 20.9999H206.675V35.9999H209.837C210.336 35.9999 210.669 36.1666 210.835 36.3333C211.001 36.4999 211.168 36.9999 211.168 37.4999V37.9999C211.168 38.3333 211.001 38.6666 210.669 38.6666H204.512C204.179 38.6666 204.012 38.6666 203.846 38.4999C203.68 38.4999 203.68 38.3333 203.68 37.9999V0.999919C203.68 0.833252 203.68 0.666585 203.846 0.499919C203.846 0.499919 204.012 0.333252 204.179 0.333252H210.502V0.499919Z" fill="#E8BA33"/>
</g>
<path d="M1.93723 56.634C4.0359 56.634 4.84308 55.6682 4.84308 54.2194C4.84308 52.6097 3.87446 51.8049 2.2601 51.8049H0.645744V56.7949H1.93723V56.634ZM0 51H2.42154C3.55159 51 4.35877 51.3219 4.84308 51.9658C5.32739 52.4487 5.65026 53.2536 5.65026 54.2194C5.65026 55.8291 4.68164 56.795 3.39016 57.1169L5.97313 61.6241H5.16595L2.58298 57.2779C2.42154 57.2779 2.2601 57.2779 2.09867 57.2779H0.645744V61.6241H0V51Z" fill="#E8BA33"/>
<path d="M15.1641 51H20.0071V51.6439H15.8098V55.8291H19.6843V56.473H15.8098V60.8192H20.1686V61.4631H15.1641V51Z" fill="#E8BA33"/>
<path d="M28.7188 60.4973L29.2031 59.8534C29.8488 60.4973 30.656 60.9802 31.6246 60.9802C32.9161 60.9802 33.7233 60.1753 33.7233 59.0485C33.7233 58.2437 33.4004 57.5998 31.6246 56.634C29.5259 55.5072 29.2031 54.7023 29.2031 53.5755C29.2031 52.1268 30.3331 51 31.9475 51C32.7546 51 33.5618 51.3219 34.369 51.9658L33.8847 52.6097C33.239 51.9658 32.5932 51.6439 31.786 51.6439C30.656 51.6439 29.8488 52.4487 29.8488 53.4146C29.8488 54.3804 30.3331 54.8633 31.9475 55.8291C34.0461 56.9559 34.369 57.9217 34.369 58.8876C34.369 60.3363 33.239 61.4631 31.6246 61.4631C30.4945 61.6241 29.5259 61.3021 28.7188 60.4973Z" fill="#E8BA33"/>
<path d="M45.0387 51.6439H42.6172V51H48.106V51.6439H45.8459V61.4631H45.0387V51.6439Z" fill="#E8BA33"/>
<path d="M61.0201 57.9218L59.2443 51.9658L57.4686 57.9218H61.0201ZM58.9215 51H59.7287L62.9574 61.6241H62.1502L61.343 58.7266H57.4686L56.6614 61.6241H56.0156L58.9215 51Z" fill="#E8BA33"/>
<path d="M71.6719 58.2437V51H72.3176V58.2437C72.3176 60.0144 73.1248 60.9802 74.5777 60.9802C76.0306 60.9802 76.8378 60.0144 76.8378 58.2437V51H77.4836V58.2437C77.4836 60.4973 76.3535 61.785 74.4163 61.785C72.8019 61.6241 71.6719 60.3363 71.6719 58.2437Z" fill="#E8BA33"/>
<path d="M89.4268 56.634C91.5255 56.634 92.3326 55.6682 92.3326 54.2194C92.3326 52.6097 91.364 51.8049 89.7497 51.8049H88.1353V56.7949H89.4268V56.634ZM87.3281 51H89.7497C90.8797 51 91.6869 51.3219 92.1712 51.9658C92.6555 52.4487 92.9784 53.2536 92.9784 54.2194C92.9784 55.8291 92.0098 56.795 90.7183 57.1169L93.3013 61.6241H92.4941L90.0725 57.2779C89.9111 57.2779 89.7497 57.2779 89.5882 57.2779H88.1353V61.6241H87.4896V51H87.3281Z" fill="#E8BA33"/>
<path d="M107.028 57.9218L105.252 51.9658L103.476 57.9218H107.028ZM104.929 51H105.736L108.965 61.6241H108.158L107.351 58.7266H103.476L102.669 61.6241H102.023L104.929 51Z" fill="#E8BA33"/>
<path d="M118.172 51H118.818L123.499 60.0144V51H124.145V61.4631H123.499L118.818 52.2878V61.4631H118.172V51Z" fill="#E8BA33"/>
<path d="M135.596 51.6439H133.336V51H138.825V51.6439H136.403V61.4631H135.596V51.6439Z" fill="#E8BA33"/>
<path d="M147.867 51H152.71V51.6439H148.513V55.8291H152.387V56.473H148.513V60.8192H152.872V61.4631H147.867V51Z" fill="#E8BA33"/>
<path d="M164.83 56.7949H161.602V57.4388H164.83V56.7949Z" fill="#E8BA33"/>
<path d="M176.609 56.473H174.995V60.8192H176.609C178.223 60.8192 179.353 60.0144 179.353 58.7266C179.353 57.2779 178.385 56.473 176.609 56.473ZM179.031 53.7365C179.031 52.4487 178.223 51.8049 176.77 51.8049H175.156V55.9901H176.609C178.062 55.8291 179.031 55.0243 179.031 53.7365ZM174.349 51H176.77C177.739 51 178.546 51.3219 179.031 51.8049C179.515 52.2878 179.676 52.9316 179.676 53.5755C179.676 55.0243 178.708 55.8291 177.739 56.1511C179.031 56.473 179.838 57.2779 179.838 58.7266C179.838 60.4973 178.546 61.4631 176.448 61.4631H174.188V51H174.349Z" fill="#E8BA33"/>
<path d="M194.036 57.9218L192.26 51.9658L190.484 57.9218H194.036ZM191.937 51H192.744L195.973 61.6241H195.166L194.359 58.7266H190.484L189.677 61.6241H189.031L191.937 51Z" fill="#E8BA33"/>
<path d="M207.13 56.634C209.229 56.634 210.036 55.6682 210.036 54.2194C210.036 52.6097 209.067 51.8049 207.453 51.8049H205.838V56.7949H207.13V56.634ZM205.031 51H207.453C208.583 51 209.39 51.3219 209.874 51.9658C210.359 52.4487 210.682 53.2536 210.682 54.2194C210.682 55.8291 209.713 56.795 208.421 57.1169L211.004 61.6241H210.197L207.776 57.2779C207.614 57.2779 207.453 57.2779 207.291 57.2779H205.838V61.6241H205.193V51H205.031Z" fill="#E8BA33"/>
<defs>
<clipPath id="clip0_1286_7092">
<rect width="211" height="39" fill="white"/>
</clipPath>
</defs>
</svg>
