<?xml version="1.0" encoding="UTF-8"?>
<svg id="Capa_2" data-name="Capa 2" xmlns="http://www.w3.org/2000/svg" viewBox="0 0 442.18 136.71">
  <defs>
    <style>
      .cls-1 {
        font-family: CGOmega-Bold, 'CG Omega';
        font-size: 24.68px;
        font-weight: 700;
      }

      .cls-1, .cls-2, .cls-3 {
        fill: #9b5d47;
      }

      .cls-3 {
        fill-rule: evenodd;
      }
    </style>
  </defs>
  <g id="Capa_1-2" data-name="Capa 1">
    <path class="cls-2" d="M402.41,72.07c6.92,0,12.42-2.92,16.47-8.77,4.06-5.86,6.09-13.77,6.09-23.73,0-8.88-2.02-15.95-6.09-21.19-4.05-5.24-9.55-7.86-16.47-7.86s-12.37,2.92-16.46,8.78c-4.06,5.85-6.1,13.78-6.1,23.77,0,8.89,2.04,15.96,6.1,21.18,4.08,5.22,9.55,7.82,16.46,7.82m0,6.7c-11.96,0-21.59-3.25-28.86-9.76-7.28-6.5-10.92-15.12-10.92-25.84,0-11.83,3.64-21.36,10.92-28.55,7.27-7.19,16.9-10.79,28.86-10.79s21.62,3.27,28.88,9.79c7.26,6.52,10.9,15.14,10.9,25.84,0,11.81-3.64,21.33-10.9,28.51-7.26,7.19-16.88,10.8-28.88,10.8Zm-94.44-60.79c0-.88-.05-2.2-.18-3.94-.12-1.72-.36-4.75-.71-9.03,2.5,.17,5.33,.26,8.49,.26s5.96-.09,8.43-.26c-.32,11.34-.52,19.58-.6,24.77-.09,5.19-.05,9.91,.09,14.17l.2,5.76,.53,15.21c.23,9.04-1.83,16.19-6.2,21.48-4.26,5.12-10.12,7.75-17.57,7.93l-2.19-4.8c3.79-.19,6.43-1.72,7.96-4.57,1.56-3.02,2.23-8.32,2.02-15.87l.05-19.32c-.04-11.97-.14-22.57-.32-31.79Zm-45.34,26.02c.04,11.6-2.64,20.31-8.04,26.09-5.38,5.78-13.49,8.69-24.3,8.69s-18.42-2.58-23.68-7.75c-5.25-5.17-7.9-12.92-7.93-23.26v-5.71l-.11-24.07c-.04-3.04-.09-5.45-.18-7.17-.09-1.74-.23-3.67-.44-5.8,2.54,.17,5.4,.26,8.59,.26s6.11-.09,8.64-.26c-.25,2.02-.43,3.9-.55,5.64-.12,1.74-.23,4.18-.33,7.33-.18,7.12-.27,15.12-.27,24.01v4.38c0,8.35,1.6,14.52,4.83,18.53,3.24,3.99,8.2,5.99,14.91,5.99s11.58-2.23,14.97-6.71c3.41-4.48,5.1-11.04,5.1-19.65v-2.48l-.11-24.07c-.03-3.32-.09-5.85-.18-7.56-.09-1.72-.21-3.53-.39-5.41,1.6,.17,3.4,.26,5.43,.26s3.8-.09,5.36-.26c-.32,2.44-.55,4.52-.7,6.26-.12,1.74-.23,3.97-.3,6.71-.21,7.12-.32,15.12-.32,24.01v2Zm-156.32,26.34h0c3.09,.33,6.46,.49,10.14,.46,7.97,0,14.02-2.69,18.14-8.09,4.14-5.4,6.19-13.27,6.19-23.64,0-8.9-2.1-15.67-6.28-20.29-4.21-4.64-10.33-6.96-18.41-6.96-3.51,0-6.76,.14-9.78,.4-.21,8.32-.32,18-.32,29.06s.11,20.78,.32,29.06Zm-15.87-5.2c.14-7.01,.21-14.94,.21-23.8s-.07-16.81-.21-23.86c-.11-3.57-.21-6.22-.32-7.95-.09-1.74-.23-3.41-.41-5.03,2.29,.39,5.04,.63,8.24,.78,3.22,.14,5.98,.14,8.31,0,3.82-.25,7.33-.44,10.56-.6,3.22-.16,5.26-.23,6.13-.23,11.28,0,19.94,3.04,25.99,9.14,6.05,6.1,9.07,14.8,9.07,26.14,0,12.32-3.41,21.82-10.24,28.46-6.83,6.65-16.6,9.97-29.29,9.97-.99,0-3.17-.07-6.55-.23-3.35-.16-6.95-.35-10.75-.6-1.57-.11-3.46-.07-5.68,.07-2.22,.16-4.14,.39-5.77,.7,.18-1.62,.32-3.3,.41-5.05,.11-1.72,.21-4.36,.32-7.93Z"/>
    <path class="cls-3" d="M3.33,9C.43,2.2,5.6-1.71,12.03,2.48c1.76-3.2,4.4-4.81,13.24,4.78,15.07,20.48,29.83,42.05,43.88,66,5.63,7.63,20.26,17.3,28.23,18.44-31.49,14.54-48.34-.78-62.92-18.54C22.77,58.9,11.73,39.87,3.33,9"/>
    <path class="cls-3" d="M1.56,3.3c-2.23,.07-1.92,6.75,0,14.35,8.65,26.88,20.3,46.87,32.39,65.87-.75-.25-1.5-.49-2.24-.73-1.07,5.75-1.39,18.39-1.6,32.02,2.99,3.68,7.27,4.41,12.83,2.21,.53-6.38,.64-14.35,.32-21.71-1.49-2.08-2.99-3.07-4.48-5.15,5.02,3.57,10.05,7.41,15.07,9.93,1.17,.74,2.35,1.47,3.52,2.21h-3.52v9.94c4.5,2.28,8.53,1.89,12.18-.74v-5.52c-1.5-.73-2.99-1.47-4.49-2.21,10.91,2.09,20.31,2.46,29.5,2.58-3.88,4.24-1.27,12.73,.96,20.97,5.88,3.68,10.47,3.93,13.79,.74-4.33-12,2.24-14.19,5.45-25.39,2.25-.12,4.17-1.35,6.41-1.47-3.63,6.01,1.07,13.86,1.6,20.24,4.17,2.82,8.34,2.7,12.51-.37-.96-4.66-1.92-8.47-2.89-12.14,3.21-3.8,5.56-7.6,7.05-11.41,2.88,2.21,4.49,1.47,4.81-2.21,1.31-11.57-4.9-10.2-12.19-6.99,.75-.86,1.5-1.72,2.25-2.58-1.28-.19-2.01-.31-4.25-.04l-21.18,2.53,15.17-.65c-3.64,.98-7.27,2.33-10.9,3.31-13.82,3.39-25.12,9.3-38.48,8.46C31.95,100.56,.32,16.65,1.56,3.3"/>
    <path class="cls-3" d="M141.54,100.73H441.22v4.54H138.57c1.11-1.51,2.1-3.03,2.97-4.54"/>
    <text class="cls-1" transform="translate(148.89 129.56)"><tspan x="0" y="0">INDUSTRIA</tspan></text>
    <text class="cls-1" transform="translate(279.98 129.56)"><tspan x="0" y="0"> </tspan></text>
    <text class="cls-1" transform="translate(286.8 129.56)"><tspan x="0" y="0">DEL</tspan></text>
    <text class="cls-1" transform="translate(330.5 129.56)"><tspan x="0" y="0"> </tspan></text>
    <text class="cls-1" transform="translate(337.32 129.56)"><tspan x="0" y="0">MUEBLE</tspan></text>
  </g>
</svg>