<svg width="212" height="90" viewBox="0 0 212 90" fill="none" xmlns="http://www.w3.org/2000/svg">
<path d="M19.3791 79V69.5292L8.14186 63.501V27.4458L39.0474 9.57904L41.2708 10.7622V75.6641L49.4211 71.2505V42.1902L54.3929 54.0301L59.2673 42.6455V65.367L67 61.0616V29.2036L59.3632 24.8982L54.6807 38.3161L49.4931 19.3731V5.81178L38.9754 0L0 22.3871V68.0931L19.3791 79Z" fill="white"/>
<path d="M59.0273 11V20.6688L70.0592 27.0284V63.0393L39.4834 80.5215L37.391 79.3783V14.5009L29.2602 19.0261L24.363 38.2699L19.5595 24.5041L12 28.9341V61.0384L19.6083 65.2306V42.0814L24.4105 53.8463L29.284 41.5329V84.2841L39.3409 90L78 67.7072V21.0746L59.0273 11Z" fill="white"/>
<path d="M90 59.0669H129.842" stroke="white" stroke-width="2" stroke-miterlimit="10"/>
<path d="M172.158 59.0669H212" stroke="white" stroke-width="2" stroke-miterlimit="10"/>
<path d="M141.43 56.6223V55.9423C141.43 55.3955 141.212 54.871 140.826 54.4843C140.439 54.0976 139.915 53.8804 139.368 53.8804H136.138C135.591 53.8804 135.067 54.0976 134.68 54.4843C134.293 54.871 134.076 55.3955 134.076 55.9423V57.0132C134.077 57.5598 134.294 58.0838 134.681 58.4702C135.067 58.8565 135.591 59.0735 136.138 59.0735H139.368C139.639 59.0735 139.907 59.1268 140.157 59.2304C140.407 59.3341 140.634 59.4859 140.826 59.6774C141.017 59.8689 141.169 60.0962 141.273 60.3464C141.376 60.5965 141.43 60.8647 141.43 61.1354V62.582C141.43 63.1289 141.212 63.6533 140.826 64.04C140.439 64.4267 139.915 64.644 139.368 64.644H136.138C135.591 64.644 135.067 64.4267 134.68 64.04C134.293 63.6533 134.076 63.1289 134.076 62.582V61.3156" stroke="white" stroke-width="2" stroke-miterlimit="10"/>
<path d="M155.202 64.6371V62.4664C155.202 61.6148 154.864 60.798 154.262 60.1958C153.659 59.5937 152.843 59.2553 151.991 59.2553H153.424C153.996 59.2553 154.544 59.0282 154.948 58.624C155.352 58.2198 155.579 57.6716 155.579 57.0999V56.029C155.579 55.4573 155.352 54.9091 154.948 54.5049C154.544 54.1006 153.996 53.8735 153.424 53.8735H148.027V64.6371" stroke="white" stroke-width="2" stroke-miterlimit="10"/>
<path d="M162.146 53.8735V64.6371H168.194" stroke="white" stroke-width="2" stroke-miterlimit="10"/>
<path d="M144.96 63.4214H143.629V64.9258H144.96V63.4214Z" fill="white"/>
<path d="M159.08 63.4214H157.749V64.9258H159.08V63.4214Z" fill="white"/>
<path d="M105.624 33.3306V32.0217C105.624 31.7604 105.572 31.5016 105.473 31.2601C105.373 31.0186 105.226 30.7991 105.042 30.6143C104.857 30.4294 104.638 30.2828 104.396 30.1827C104.155 30.0827 103.896 30.0312 103.635 30.0312H99.2371C98.9758 30.0312 98.717 30.0827 98.4756 30.1827C98.2342 30.2828 98.0149 30.4294 97.8302 30.6143C97.6455 30.7991 97.499 31.0186 97.3991 31.2601C97.2993 31.5016 97.248 31.7604 97.2482 32.0217V42.1054C97.2482 42.6328 97.4578 43.1387 97.8308 43.5117C98.2037 43.8847 98.7096 44.0942 99.2371 44.0942H103.895C104.156 44.0944 104.415 44.0432 104.656 43.9433C104.898 43.8435 105.117 43.697 105.302 43.5123C105.487 43.3276 105.634 43.1083 105.734 42.8669C105.834 42.6254 105.885 42.3667 105.885 42.1054V40.3613H112.438V42.1768C112.438 43.1695 112.243 44.1525 111.863 45.0696C111.483 45.9867 110.926 46.8201 110.224 47.522C109.522 48.224 108.689 48.7808 107.772 49.1607C106.855 49.5406 105.872 49.7361 104.879 49.7361H98.1237C96.1188 49.7361 94.1961 48.9397 92.7784 47.522C91.3608 46.1044 90.5643 44.1816 90.5643 42.1768V31.5576C90.5643 30.565 90.7599 29.5821 91.1398 28.6651C91.5197 27.748 92.0765 26.9148 92.7785 26.213C93.4805 25.5112 94.3138 24.9545 95.231 24.5748C96.1481 24.1951 97.131 23.9998 98.1237 24H104.879C105.872 23.9998 106.855 24.1951 107.772 24.5748C108.689 24.9545 109.522 25.5112 110.224 26.213C110.926 26.9148 111.483 27.748 111.863 28.6651C112.243 29.5821 112.438 30.565 112.438 31.5576V33.4615L105.624 33.3306Z" fill="white"/>
<path d="M119.151 24.3604H129.335L137.09 49.7361H130.435L124.417 29.6266L121.291 40.6214H125.459L126.846 45.483H119.7L118.514 49.7361H111.801L119.151 24.3604Z" fill="white"/>
<path d="M137.09 24.3604H153.713C154.991 24.3604 156.216 24.8679 157.119 25.7713C158.023 26.6748 158.53 27.9001 158.53 29.1778V34.937C158.53 36.2146 158.023 37.44 157.119 38.3434C156.216 39.2469 154.991 39.7544 153.713 39.7544V39.7544V40.1879C154.991 40.1879 156.216 40.6954 157.119 41.5989C158.023 42.5023 158.53 43.7277 158.53 45.0053V49.7361H151.802V45.1362C151.802 44.8568 151.748 44.5801 151.641 44.3219C151.534 44.0637 151.377 43.8291 151.18 43.6314C150.983 43.4338 150.748 43.277 150.49 43.17C150.232 43.063 149.955 43.008 149.676 43.008H145.9V37.3236H150.262C150.465 37.3236 150.665 37.2837 150.852 37.2062C151.039 37.1287 151.209 37.0151 151.352 36.8719C151.495 36.7287 151.608 36.5588 151.686 36.3717C151.763 36.1847 151.802 35.9842 151.802 35.7818V31.7021C151.802 31.2937 151.64 30.9019 151.351 30.6131C151.062 30.3243 150.671 30.162 150.262 30.162H143.293V49.7361H137.09V24.3604Z" fill="white"/>
<path d="M167.253 24.3604H160.613V49.9095H167.253V24.3604Z" fill="white"/>
<path d="M199.414 29.8592V34.7192H210.655V39.2765H199.414V44.4118H211.262V49.9092H193.035V24.3618H211.262V29.8592H199.414Z" fill="white"/>
<path d="M169.51 24.3618H185.468C188.564 24.3618 190.69 26.4442 190.69 29.1351V33.0839C190.69 34.0757 190.296 35.0269 189.595 35.7283C188.894 36.4296 187.943 36.8236 186.951 36.8236V36.8236V37.1415H187.342C188.228 37.1415 189.078 37.4936 189.705 38.1203C190.332 38.747 190.684 39.5971 190.684 40.4834V45.2176C190.683 46.4604 190.189 47.6522 189.311 48.5317C188.433 49.4112 187.242 49.9065 185.999 49.9092H169.51V31.9416H176.281V34.5458H182.429C182.999 34.5458 183.545 34.3194 183.948 33.9164C184.351 33.5135 184.578 32.967 184.578 32.3971V31.7886C184.577 31.219 184.351 30.6729 183.948 30.2704C183.545 29.8678 182.999 29.6416 182.429 29.6416H169.51V24.3618ZM182.531 39.2323H176.281V44.4849H182.531C183.072 44.4849 183.591 44.27 183.973 43.8875C184.356 43.5049 184.571 42.9861 184.571 42.4451V41.2722C184.571 40.7312 184.356 40.2123 183.973 39.8298C183.591 39.4472 183.072 39.2323 182.531 39.2323V39.2323Z" fill="white"/>
</svg>
