<svg width="123" height="144" viewBox="0 0 123 144" fill="none" xmlns="http://www.w3.org/2000/svg">
<path d="M54.384 71.2704C53.0522 74.1313 49.7996 76.0574 46.2019 74.3791C43.2757 73.0125 41.8801 69.6297 41.4599 68.4095C41.4472 68.3724 41.4206 68.3416 41.3857 68.3232C41.3508 68.3052 41.3103 68.301 41.2724 68.3119C41.2495 68.319 41.2288 68.3318 41.2116 68.3487C41.1947 68.3656 41.182 68.3866 41.1748 68.4095C36.9431 81.3324 26.8102 82.4588 21.4981 81.1372C16.1259 79.8043 12.4269 70.1854 12.1193 63.4236C11.8116 56.6618 14.7828 40.8254 21.4381 38.753C27.2379 36.9471 34.5384 41.1371 36.3166 42.2446C36.3526 42.2664 36.3939 42.2777 36.4359 42.2765C36.4779 42.2758 36.5188 42.263 36.5537 42.2398C36.589 42.2165 36.6164 42.1838 36.6336 42.1455C36.6509 42.1072 36.6565 42.0648 36.6505 42.0231C36.1515 38.7755 33.3266 19.9844 33.9119 16.1548C34.5534 11.9611 40.2632 11.244 42.0377 14.9947C46.2019 23.7689 47.4962 50.0276 50.5912 61.8092C51.6528 65.8452 55.7157 68.4095 54.384 71.2704ZM26.135 47.6849C22.8561 49.3556 21.7007 53.4067 21.8882 63.127C22.0796 73.0763 24.8519 74.7246 27.4142 72.9975C29.9765 71.2704 34.317 62.0682 33.3792 55.603C32.4413 49.1378 28.5209 46.4647 26.135 47.6849Z" fill="white"/>
<path d="M53.4428 18.7689C56.9768 19.242 63.5044 2.09151 57.9822 0.417019C52.46 -1.25747 51.0794 2.20415 50.9068 9.12371C50.7343 16.0432 51.9647 18.5737 53.4428 18.7689Z" fill="white"/>
<path d="M21.3524 109.49C22.5191 109.742 25.1377 104.189 23.3407 103.483C21.5437 102.777 20.9923 103.9 20.7559 106.205C20.5196 108.51 20.8647 109.37 21.3524 109.49Z" fill="white"/>
<path d="M77.7013 11.1248C83.9139 11.718 96.9317 10.832 103.737 30.3702C110.542 49.9085 102.405 79.5162 82.1394 84.2506C61.8736 88.985 60.9883 80.9955 60.9883 78.923C60.9883 76.8506 64.8899 36.2422 65.5726 18.7839C65.9253 9.88209 71.4926 10.5316 77.7013 11.1248ZM77.8514 24.5959C77.8514 24.5959 74.8914 70.7758 75.9269 71.6694C76.9623 72.5629 91.5557 72.1988 93.6791 50.2051C95.7499 28.737 79.3295 20.7438 77.8514 24.5921V24.5959Z" fill="white"/>
<path d="M14.1541 109.998C15.801 110.043 19.2224 109.578 21.3645 114.612C23.5066 119.647 21.886 127.603 16.6226 129.213C11.3592 130.824 10.9953 128.733 10.9465 128.185C10.8978 127.637 11.2166 116.854 11.0891 112.236C11.0216 109.867 12.5034 109.953 14.1541 109.998ZM14.4317 113.55C14.4317 113.55 14.473 125.789 14.7618 126.007C15.0507 126.225 18.8885 125.868 19.0648 120.026C19.2262 114.323 14.7543 112.495 14.4317 113.55Z" fill="white"/>
<path d="M29.0934 106.758C31.243 106.815 35.6923 106.21 38.4722 112.765C41.2521 119.321 39.1512 129.661 32.3009 131.774C25.4506 133.888 24.9592 131.147 24.9104 130.434C24.8616 129.721 25.263 115.683 25.0942 109.668C25.0192 106.604 26.955 106.698 29.0934 106.758ZM29.4685 111.38C29.4685 111.38 29.521 127.314 29.8962 127.596C30.2713 127.877 35.2796 127.419 35.4972 119.813C35.6998 112.39 29.8699 110.025 29.4573 111.369L29.4685 111.38Z" fill="white"/>
<path d="M114.239 91.942C98.9324 90.1136 77.8788 90.7181 58.0332 91.1911C30.6471 91.8632 5.96202 93.7066 1.68528 96.6877C-3.83697 100.536 5.66565 98.9028 9.36841 98.6438C12.546 98.4185 60.2129 95.734 68.8676 95.6702C77.5224 95.6064 111.568 95.4862 113.278 95.4862C116.456 95.4975 116.715 92.2386 114.239 91.942Z" fill="white"/>
<path d="M2.12174 41.0215C3.21156 41.0215 4.09505 39.9507 4.09505 38.6299C4.09505 37.3091 3.21156 36.2383 2.12174 36.2383C1.03193 36.2383 0.148438 37.3091 0.148438 38.6299C0.148438 39.9507 1.03193 41.0215 2.12174 41.0215Z" fill="white"/>
<path d="M8.35049 39.0776C8.43865 38.5332 8.06913 38.0203 7.52516 37.9321C6.98118 37.8435 6.46873 38.2133 6.38019 38.7577C6.29203 39.3021 6.66155 39.8149 7.20552 39.9035C7.7495 39.9918 8.26195 39.6219 8.35049 39.0776Z" fill="white"/>
<path d="M121.42 53.4755C122.096 53.3167 122.476 52.4731 122.269 51.5908C122.062 50.7085 121.347 50.122 120.671 50.2808C119.995 50.4393 119.615 51.2829 119.822 52.1652C120.029 53.0475 120.744 53.6339 121.42 53.4755Z" fill="white"/>
<path d="M121.068 96.2919C121.997 96.1451 122.596 95.0431 122.404 93.8304C122.213 92.6181 121.305 91.7542 120.376 91.901C119.447 92.0478 118.848 93.1498 119.04 94.3621C119.231 95.5748 120.139 96.4387 121.068 96.2919Z" fill="white"/>
<path d="M116.049 53.7495C116.582 53.6245 116.882 52.9603 116.719 52.2658C116.556 51.5712 115.992 51.1098 115.46 51.2348C114.927 51.3598 114.628 52.024 114.79 52.7186C114.953 53.4128 115.517 53.8746 116.049 53.7495Z" fill="white"/>
<path d="M118.945 56.3337C119.319 56.2459 119.528 55.7788 119.414 55.2904C119.299 54.8019 118.904 54.4768 118.531 54.5646C118.158 54.6521 117.948 55.1192 118.062 55.6076C118.177 56.0961 118.572 56.4212 118.945 56.3337Z" fill="white"/>
<path d="M52.5234 119.648C52.7185 123.121 50.7114 132.135 45.1667 130.506C39.6219 128.876 42.5744 115.514 45.4255 113.077C49.4922 109.597 52.3021 115.724 52.5234 119.648ZM47.1437 116.851C45.8457 117.958 44.0562 126.436 46.1646 126.841C48.1716 127.217 49.027 122.933 49.1208 121.671C49.3083 119.193 48.9932 115.266 47.1437 116.851Z" fill="white"/>
<path d="M106.759 119.648C106.954 123.121 104.947 132.135 99.3987 130.506C93.8502 128.876 96.8064 115.514 99.6576 113.077C103.724 109.597 106.534 115.724 106.759 119.648ZM101.376 116.851C100.082 117.958 98.2883 126.436 100.397 126.841C102.407 127.217 103.263 122.933 103.357 121.671C103.54 119.193 103.225 115.266 101.376 116.851Z" fill="white"/>
<path d="M56.2607 112.044C56.7296 111.203 59.5133 110.632 60.4512 112.044C61.2652 113.271 64.7241 119.958 65.6133 121.685C65.6283 121.712 65.6534 121.732 65.6827 121.74C65.7123 121.749 65.7438 121.745 65.7708 121.73C65.7873 121.72 65.8016 121.707 65.8121 121.69C65.8226 121.674 65.829 121.656 65.8308 121.636C65.8646 119.677 66.0222 112.051 66.3673 111.214C66.7612 110.249 69.5223 109.855 69.8187 111.631C70.1151 113.407 69.4736 126.975 68.9296 128.259C68.3856 129.543 66.4649 130.726 64.5403 127.223C62.9572 124.336 60.0985 118.911 59.1456 117.086C59.1227 117.043 59.0837 117.011 59.0372 116.997C58.9911 116.983 58.9408 116.988 58.898 117.011C58.8699 117.027 58.8459 117.05 58.829 117.077C58.8117 117.105 58.802 117.136 58.8005 117.169C58.7067 119.628 58.3578 127.891 57.675 129.528C56.8835 131.458 54.9627 131.803 54.7151 130.076C54.4675 128.349 55.6042 119.913 55.5029 117.101C55.4016 114.289 55.6342 113.163 56.2607 112.044Z" fill="white"/>
<path d="M79.1024 108.86C80.6367 108.965 81.3758 110.395 81.7472 111.668C81.946 112.359 83.713 121.869 84.2532 124.632C84.7934 127.396 85.7351 130.283 84.0581 130.38C82.7376 130.459 81.4921 129.141 80.9331 125.015C80.9241 124.951 80.8922 124.892 80.8434 124.849C80.7943 124.807 80.7317 124.783 80.6668 124.783L77.9131 124.805C77.8531 124.805 77.7946 124.826 77.7477 124.863C77.7008 124.901 77.6678 124.953 77.6543 125.012C77.4817 125.83 76.8102 128.95 75.8235 129.408C74.503 130.02 72.6272 129.656 73.1975 127.959C73.6777 126.517 74.1241 124.914 74.2816 124.343C74.2967 124.287 74.2888 124.228 74.2599 124.178C74.231 124.128 74.1834 124.092 74.1278 124.077H74.0866C73.0211 123.979 69.007 123.585 68.5793 122.988C68.0879 122.297 67.9866 119.782 68.5793 119.928C69.1721 120.074 74.7694 121.4 75.3096 120.807C75.771 120.3 76.7314 112.723 76.949 111.728C77.4442 109.491 78.4083 108.811 79.1024 108.86ZM79.4437 119.215C79.428 119.179 79.3991 119.15 79.3627 119.134C79.3263 119.119 79.2854 119.118 79.2487 119.132C79.2299 119.14 79.213 119.151 79.1991 119.165C79.1849 119.179 79.1736 119.196 79.1661 119.215C78.8124 119.97 78.5516 120.766 78.3896 121.584C78.3708 121.76 80.0327 121.644 80.1565 121.636C80.5092 121.606 79.7589 119.857 79.4512 119.215H79.4437Z" fill="white"/>
<path d="M97.2737 107.318C97.2718 107.82 97.0715 108.301 96.7166 108.656C96.3617 109.011 95.8811 109.212 95.3792 109.214H92.1003V128.485C92.1228 128.989 91.9443 129.48 91.6047 129.852C91.2649 130.224 90.7914 130.445 90.2883 130.468C89.7852 130.49 89.2942 130.312 88.9228 129.971C88.5514 129.632 88.33 129.158 88.3075 128.654C88.3038 128.598 88.3038 128.542 88.3075 128.485V109.214H83.6444C83.1409 109.214 82.6581 109.014 82.3021 108.657C81.9461 108.301 81.7461 107.818 81.7461 107.314C81.7461 106.81 81.9461 106.327 82.3021 105.971C82.6581 105.614 83.1409 105.414 83.6444 105.414H95.3792C95.6286 105.412 95.8762 105.459 96.1073 105.553C96.338 105.648 96.5481 105.787 96.7245 105.964C96.9008 106.14 97.0403 106.351 97.1345 106.581C97.229 106.813 97.2763 107.061 97.2737 107.31V107.318Z" fill="white"/>
<path d="M20.7061 142.7C20.526 143.005 20.2668 143.255 19.9558 143.424C19.6459 143.612 19.2903 143.711 18.9279 143.71C18.7171 143.723 18.5066 143.683 18.3145 143.595C18.1228 143.506 17.9559 143.372 17.8287 143.203C17.5999 142.866 17.4866 142.464 17.5061 142.058C17.4832 141.369 17.7233 140.698 18.1776 140.181C18.3862 139.945 18.6439 139.759 18.9324 139.634C19.2205 139.508 19.5326 139.448 19.847 139.456C20.0849 139.437 20.322 139.5 20.5185 139.636V140.064H20.4322C20.3508 139.993 20.2552 139.94 20.1516 139.908C20.0485 139.876 19.9393 139.867 19.832 139.88C19.5529 139.87 19.2749 139.92 19.0164 140.026C18.7576 140.131 18.5242 140.29 18.3314 140.492C18.1344 140.706 17.9818 140.957 17.882 141.23C17.7822 141.503 17.7372 141.794 17.7499 142.084C17.7499 142.892 18.1449 143.297 18.9354 143.297C19.2877 143.288 19.6305 143.182 19.9262 142.99C20.2214 142.797 20.4578 142.527 20.6086 142.208H20.6949L20.7061 142.7Z" fill="white"/>
<path d="M25.0789 143.43H24.9176L24.3023 142.154L22.389 142.327V142.03L21.5337 143.757L21.3086 143.686L23.4057 139.451L23.6308 139.522L23.5295 139.729L24.5011 141.707H24.6925V142.12L25.0676 142.924L25.0789 143.43ZM24.1035 141.733L23.3269 140.078C23.2631 140.235 22.9518 140.829 22.4453 141.884L24.1035 141.733Z" fill="white"/>
<path d="M28.6231 139.902L26.4997 140.101V141.205L28.4805 141.021V141.445L26.4997 141.633V143.6H26.2558V140.12L26.1133 140.138V139.71H26.2558V139.631H26.4997V139.692L28.6231 139.489V139.902Z" fill="white"/>
<path d="M32.4325 143.419L29.6602 143.675V143.254H29.8065V140.134H29.6752V139.714H29.8065V139.635H30.0466V139.695L32.2187 139.485V139.901L30.0466 140.112V141.321L32.1174 141.129V141.542L30.0466 141.737V143.239L32.4325 143.018V143.419ZM31.9936 138.204L30.8869 139.113H30.8006L30.6693 138.993L31.7948 138.081H31.8811L31.9936 138.204Z" fill="white"/>
<path d="M35.725 142.484H34.6821V143.61H34.457V142.484H33.4141V142.078H34.457V140.952H34.6971V142.078H35.74L35.725 142.484Z" fill="white"/>
<path d="M40.0586 141.028C40.0815 141.386 40.0264 141.744 39.897 142.078C39.7672 142.412 39.5664 142.713 39.3083 142.962C38.7115 143.439 37.9585 143.676 37.1962 143.626H36.8398V143.206H37.0349V140.277L36.8661 140.375V139.936L37.0349 139.838V139.526H37.275V139.725C37.7308 139.532 38.2204 139.432 38.7156 139.429C39.6085 139.44 40.0586 139.962 40.0586 141.028ZM39.8148 141.028C39.8411 140.722 39.7574 140.418 39.5785 140.168C39.4603 140.059 39.3203 139.976 39.1677 139.926C39.0146 139.875 38.8529 139.858 38.6931 139.875C38.2016 139.88 37.7162 139.986 37.2675 140.187V143.191C37.9822 143.22 38.6826 142.986 39.2371 142.534C39.434 142.338 39.5871 142.102 39.6869 141.843C39.7863 141.583 39.8302 141.306 39.8148 141.028Z" fill="white"/>
<path d="M43.9981 142.174C44.0161 142.56 43.8815 142.938 43.623 143.225C43.4553 143.388 43.2546 143.513 43.0347 143.592C42.8145 143.671 42.5804 143.702 42.3475 143.683C42.1299 143.692 41.916 143.627 41.7397 143.499C41.6399 143.424 41.5604 143.324 41.5086 143.21C41.4569 143.096 41.4343 142.971 41.4433 142.846V139.527H41.6834V142.613C41.6834 143.034 41.9273 143.244 42.4112 143.244C43.3015 143.244 43.7468 142.856 43.7468 142.08V139.527H43.9869L43.9981 142.174Z" fill="white"/>
<path d="M47.9657 143.443L45.5234 143.668V143.244H45.621V139.527H45.8611V143.199L47.9657 143.007V143.443Z" fill="white"/>
<path d="M52.1556 142.7C51.9759 143.005 51.7167 143.256 51.4053 143.424C51.0939 143.612 50.7371 143.711 50.3736 143.71C50.1628 143.722 49.9523 143.682 49.7606 143.594C49.5689 143.506 49.402 143.371 49.2744 143.203C49.0471 142.866 48.9349 142.464 48.9555 142.058C48.9308 141.369 49.1709 140.697 49.6271 140.18C49.8349 139.945 50.0919 139.759 50.3796 139.633C50.6674 139.508 50.9791 139.447 51.2927 139.456C51.5306 139.436 51.7681 139.5 51.9643 139.636V140.064H51.878C51.7973 139.992 51.7016 139.938 51.5981 139.906C51.4946 139.874 51.385 139.866 51.2777 139.88C50.9986 139.871 50.721 139.921 50.4621 140.026C50.2037 140.132 49.9703 140.29 49.7771 140.492C49.381 140.925 49.1716 141.497 49.1956 142.084C49.1956 142.893 49.5907 143.297 50.3811 143.297C50.7334 143.288 51.0763 143.182 51.3719 142.989C51.6671 142.797 51.9035 142.527 52.0543 142.208H52.1406L52.1556 142.7Z" fill="white"/>
<path d="M56.12 143.419L53.3477 143.674V143.254H53.494V140.134H53.3627V139.713H53.494V139.635H53.7341V139.695L55.9062 139.484V139.901L53.7341 140.111V141.32L55.8049 141.129V141.542L53.7341 141.737V143.239L56.12 143.017V143.419Z" fill="white"/>
<path d="M60.1434 143.363H60.0571C59.3109 142.846 58.5062 142.419 57.6598 142.09V143.611H57.4198V140.333L57.2734 140.419V139.995L57.4198 139.901V139.526H57.6598V139.77C58.0796 139.53 58.5535 139.401 59.0367 139.395C59.6294 139.395 59.9258 139.71 59.9258 140.337C59.928 140.539 59.8811 140.739 59.7892 140.919C59.6969 141.099 59.5622 141.253 59.3968 141.369C59.0355 141.627 58.6169 141.791 58.1776 141.85C58.8701 142.126 59.5296 142.478 60.1434 142.901V143.363ZM59.6857 140.359C59.6857 140.022 59.4568 139.853 59.0029 139.853C58.5306 139.862 58.0684 139.991 57.6598 140.228V141.636C59.0104 141.411 59.6857 140.98 59.6857 140.344V140.359Z" fill="white"/>
<path d="M62.3159 138.204L61.1904 139.113H61.1041L60.9766 138.993L62.0833 138.081H62.1695L62.3159 138.204ZM61.5656 143.611H61.3255V139.526H61.5656V143.611Z" fill="white"/>
<path d="M66.2268 143.43H66.0655L65.4428 142.154L63.5295 142.327V142.03L62.6704 143.757L62.4453 143.686L64.5462 139.451L64.7713 139.522L64.67 139.729L65.6379 141.707H65.8329V142.12L66.2268 142.924V143.43ZM65.2477 141.733L64.4711 140.078C64.4036 140.235 64.096 140.829 63.5858 141.884L65.2477 141.733Z" fill="white"/>
<path d="M69.3923 142.484H68.3532V143.61H68.1131V142.484H67.0664V142.078H68.1131V140.952H68.3532V142.078H69.3923V142.484Z" fill="white"/>
<path d="M20.7061 142.7C20.526 143.005 20.2668 143.255 19.9558 143.424C19.6459 143.612 19.2903 143.711 18.9279 143.71C18.7171 143.723 18.5066 143.683 18.3145 143.595C18.1228 143.506 17.9559 143.372 17.8287 143.203C17.5999 142.866 17.4866 142.464 17.5061 142.058C17.4832 141.369 17.7233 140.698 18.1776 140.181C18.3862 139.945 18.6439 139.759 18.9324 139.634C19.2205 139.508 19.5326 139.448 19.847 139.456C20.0849 139.437 20.322 139.5 20.5185 139.636V140.064H20.4322C20.3508 139.993 20.2552 139.94 20.1516 139.908C20.0485 139.876 19.9393 139.867 19.832 139.88C19.5529 139.87 19.2749 139.92 19.0164 140.026C18.7576 140.131 18.5242 140.29 18.3314 140.492C18.1344 140.706 17.9818 140.957 17.882 141.23C17.7822 141.503 17.7372 141.794 17.7499 142.084C17.7499 142.892 18.1449 143.297 18.9354 143.297C19.2877 143.288 19.6305 143.182 19.9262 142.99C20.2214 142.797 20.4578 142.527 20.6086 142.208H20.6949L20.7061 142.7Z" fill="white"/>
<path d="M25.0789 143.43H24.9176L24.3023 142.154L22.389 142.327V142.03L21.5337 143.757L21.3086 143.686L23.4057 139.451L23.6308 139.522L23.5295 139.729L24.5011 141.707H24.6925V142.12L25.0676 142.924L25.0789 143.43ZM24.1035 141.733L23.3269 140.078C23.2631 140.235 22.9518 140.829 22.4453 141.884L24.1035 141.733Z" fill="white"/>
<path d="M28.6231 139.902L26.4997 140.101V141.205L28.4805 141.021V141.445L26.4997 141.633V143.6H26.2558V140.12L26.1133 140.138V139.71H26.2558V139.631H26.4997V139.692L28.6231 139.489V139.902Z" fill="white"/>
<path d="M32.4325 143.419L29.6602 143.675V143.254H29.8065V140.134H29.6752V139.714H29.8065V139.635H30.0466V139.695L32.2187 139.485V139.901L30.0466 140.112V141.321L32.1174 141.129V141.542L30.0466 141.737V143.239L32.4325 143.018V143.419ZM31.9936 138.204L30.8869 139.113H30.8006L30.6693 138.993L31.7948 138.081H31.8811L31.9936 138.204Z" fill="white"/>
<path d="M35.725 142.484H34.6821V143.61H34.457V142.484H33.4141V142.078H34.457V140.952H34.6971V142.078H35.74L35.725 142.484Z" fill="white"/>
<path d="M40.0586 141.028C40.0815 141.386 40.0264 141.744 39.897 142.078C39.7672 142.412 39.5664 142.713 39.3083 142.962C38.7115 143.439 37.9585 143.676 37.1962 143.626H36.8398V143.206H37.0349V140.277L36.8661 140.375V139.936L37.0349 139.838V139.526H37.275V139.725C37.7308 139.532 38.2204 139.432 38.7156 139.429C39.6085 139.44 40.0586 139.962 40.0586 141.028ZM39.8148 141.028C39.8411 140.722 39.7574 140.418 39.5785 140.168C39.4603 140.059 39.3203 139.976 39.1677 139.926C39.0146 139.875 38.8529 139.858 38.6931 139.875C38.2016 139.88 37.7162 139.986 37.2675 140.187V143.191C37.9822 143.22 38.6826 142.986 39.2371 142.534C39.434 142.338 39.5871 142.102 39.6869 141.843C39.7863 141.583 39.8302 141.306 39.8148 141.028Z" fill="white"/>
<path d="M43.9981 142.174C44.0161 142.56 43.8815 142.938 43.623 143.225C43.4553 143.388 43.2546 143.513 43.0347 143.592C42.8145 143.671 42.5804 143.702 42.3475 143.683C42.1299 143.692 41.916 143.627 41.7397 143.499C41.6399 143.424 41.5604 143.324 41.5086 143.21C41.4569 143.096 41.4343 142.971 41.4433 142.846V139.527H41.6834V142.613C41.6834 143.034 41.9273 143.244 42.4112 143.244C43.3015 143.244 43.7468 142.856 43.7468 142.08V139.527H43.9869L43.9981 142.174Z" fill="white"/>
<path d="M47.9657 143.443L45.5234 143.668V143.244H45.621V139.527H45.8611V143.199L47.9657 143.007V143.443Z" fill="white"/>
<path d="M52.1556 142.7C51.9759 143.005 51.7167 143.256 51.4053 143.424C51.0939 143.612 50.7371 143.711 50.3736 143.71C50.1628 143.722 49.9523 143.682 49.7606 143.594C49.5689 143.506 49.402 143.371 49.2744 143.203C49.0471 142.866 48.9349 142.464 48.9555 142.058C48.9308 141.369 49.1709 140.697 49.6271 140.18C49.8349 139.945 50.0919 139.759 50.3796 139.633C50.6674 139.508 50.9791 139.447 51.2927 139.456C51.5306 139.436 51.7681 139.5 51.9643 139.636V140.064H51.878C51.7973 139.992 51.7016 139.938 51.5981 139.906C51.4946 139.874 51.385 139.866 51.2777 139.88C50.9986 139.871 50.721 139.921 50.4621 140.026C50.2037 140.132 49.9703 140.29 49.7771 140.492C49.381 140.925 49.1716 141.497 49.1956 142.084C49.1956 142.893 49.5907 143.297 50.3811 143.297C50.7334 143.288 51.0763 143.182 51.3719 142.989C51.6671 142.797 51.9035 142.527 52.0543 142.208H52.1406L52.1556 142.7Z" fill="white"/>
<path d="M56.12 143.419L53.3477 143.674V143.254H53.494V140.134H53.3627V139.713H53.494V139.635H53.7341V139.695L55.9062 139.484V139.901L53.7341 140.111V141.32L55.8049 141.129V141.542L53.7341 141.737V143.239L56.12 143.017V143.419Z" fill="white"/>
<path d="M60.1434 143.363H60.0571C59.3109 142.846 58.5062 142.419 57.6598 142.09V143.611H57.4198V140.333L57.2734 140.419V139.995L57.4198 139.901V139.526H57.6598V139.77C58.0796 139.53 58.5535 139.401 59.0367 139.395C59.6294 139.395 59.9258 139.71 59.9258 140.337C59.928 140.539 59.8811 140.739 59.7892 140.919C59.6969 141.099 59.5622 141.253 59.3968 141.369C59.0355 141.627 58.6169 141.791 58.1776 141.85C58.8701 142.126 59.5296 142.478 60.1434 142.901V143.363ZM59.6857 140.359C59.6857 140.022 59.4568 139.853 59.0029 139.853C58.5306 139.862 58.0684 139.991 57.6598 140.228V141.636C59.0104 141.411 59.6857 140.98 59.6857 140.344V140.359Z" fill="white"/>
<path d="M62.3159 138.204L61.1904 139.113H61.1041L60.9766 138.993L62.0833 138.081H62.1695L62.3159 138.204ZM61.5656 143.611H61.3255V139.526H61.5656V143.611Z" fill="white"/>
<path d="M66.2268 143.43H66.0655L65.4428 142.154L63.5295 142.327V142.03L62.6704 143.757L62.4453 143.686L64.5462 139.451L64.7713 139.522L64.67 139.729L65.6379 141.707H65.8329V142.12L66.2268 142.924V143.43ZM65.2477 141.733L64.4711 140.078C64.4036 140.235 64.096 140.829 63.5858 141.884L65.2477 141.733Z" fill="white"/>
<path d="M69.3923 142.484H68.3532V143.61H68.1131V142.484H67.0664V142.078H68.1131V140.952H68.3532V142.078H69.3923V142.484Z" fill="white"/>
<path d="M73.3328 140.439C73.3347 140.691 73.2743 140.94 73.1561 141.163C73.0383 141.385 72.8669 141.575 72.6576 141.715C72.1515 142.061 71.5591 142.258 70.9469 142.286V143.611H70.703V140.39L70.6055 140.457V140.007L70.703 139.943V139.526H70.9469V139.804C71.3509 139.573 71.8056 139.444 72.2711 139.429C72.9764 139.451 73.3328 139.782 73.3328 140.439ZM73.0927 140.457C73.0999 140.38 73.0897 140.303 73.0631 140.23C73.0365 140.157 72.9941 140.091 72.9389 140.037C72.7337 139.913 72.4947 139.858 72.2561 139.879C71.7966 139.901 71.3483 140.03 70.9469 140.255V141.858C71.498 141.83 72.0337 141.668 72.5075 141.385C72.6789 141.296 72.8241 141.164 72.928 141.001C73.0323 140.838 73.0916 140.651 73.1002 140.457H73.0927Z" fill="white"/>
<path d="M73.3328 140.439C73.3347 140.691 73.2743 140.94 73.1561 141.163C73.0383 141.385 72.8669 141.575 72.6576 141.715C72.1515 142.061 71.5591 142.258 70.9469 142.286V143.611H70.703V140.39L70.6055 140.457V140.007L70.703 139.943V139.526H70.9469V139.804C71.3509 139.573 71.8056 139.444 72.2711 139.429C72.9764 139.451 73.3328 139.782 73.3328 140.439ZM73.0927 140.457C73.0999 140.38 73.0897 140.303 73.0631 140.23C73.0365 140.157 72.9941 140.091 72.9389 140.037C72.7337 139.913 72.4947 139.858 72.2561 139.879C71.7966 139.901 71.3483 140.03 70.9469 140.255V141.858C71.498 141.83 72.0337 141.668 72.5075 141.385C72.6789 141.296 72.8241 141.164 72.928 141.001C73.0323 140.838 73.0916 140.651 73.1002 140.457H73.0927Z" fill="white"/>
<path d="M76.9926 143.43H76.8501L76.2086 142.154L74.2953 142.327V142.03L73.4399 143.757L73.2148 143.686L75.3119 139.451L75.537 139.522L75.4358 139.729L76.4074 141.707H76.5987V142.12L76.9926 142.924V143.43ZM76.0172 141.733L75.2407 140.078C75.1769 140.235 74.8655 140.829 74.3591 141.884L76.0172 141.733Z" fill="white"/>
<path d="M81.004 143.655L80.7939 143.734C80.7939 143.704 80.7489 143.648 80.6963 143.562L78.4079 140.318V143.61H78.1641V139.567L78.3929 139.518C78.4154 139.571 78.4529 139.642 78.5055 139.736L80.7564 142.931V139.552H81.0002L81.004 143.655Z" fill="white"/>
<path d="M85.68 143.43H85.5187L84.8922 142.154L82.9789 142.327V142.03L82.1235 143.757L81.8984 143.686L83.9993 139.451L84.2244 139.522L84.1193 139.729L85.091 141.707H85.2861V142.12L85.68 142.924V143.43ZM84.7008 141.733L83.928 140.078C83.8605 140.235 83.5529 140.829 83.0427 141.884L84.7008 141.733Z" fill="white"/>
<path d="M89.879 141.028C89.9019 141.386 89.8467 141.744 89.7173 142.078C89.5875 142.412 89.3868 142.713 89.1287 142.962C88.5318 143.439 87.7789 143.676 87.0166 143.626H86.6602V143.206H86.8552V140.277L86.6864 140.375V139.936L86.8552 139.838V139.526H87.0953V139.725C87.5511 139.532 88.0407 139.432 88.5359 139.429C89.4325 139.44 89.879 139.962 89.879 141.028ZM89.6389 141.028C89.6651 140.722 89.5815 140.418 89.4025 140.168C89.2836 140.06 89.1433 139.978 88.991 139.928C88.8383 139.878 88.677 139.86 88.5172 139.875C88.0257 139.879 87.5399 139.985 87.0916 140.187V143.191C87.8051 143.22 88.5044 142.986 89.0574 142.534C89.2555 142.338 89.41 142.103 89.5102 141.844C89.6104 141.584 89.6543 141.306 89.6389 141.028Z" fill="white"/>
<path d="M93.9052 143.419L91.1328 143.674V143.254H91.2791V140.134H91.1478V139.713H91.2791V139.635H91.5192V139.695L93.6914 139.484V139.901L91.5192 140.111V141.32L93.5901 141.129V141.542L91.5192 141.737V143.239L93.9052 143.017V143.419Z" fill="white"/>
<path d="M97.9248 143.363H97.8385C97.0934 142.846 96.2902 142.419 95.445 142.09V143.611H95.2049V140.333L95.0586 140.419V139.995L95.2049 139.901V139.526H95.445V139.77C95.8644 139.53 96.3382 139.401 96.8218 139.395C97.4146 139.395 97.7109 139.71 97.7109 140.337C97.7132 140.539 97.6663 140.739 97.5744 140.919C97.4821 141.099 97.3474 141.253 97.182 141.369C96.8207 141.627 96.402 141.791 95.9627 141.85C96.6545 142.125 97.3129 142.478 97.9248 142.901V143.363ZM97.4671 140.359C97.4671 140.022 97.242 139.853 96.7881 139.853C96.3157 139.862 95.8535 139.991 95.445 140.228V141.636C96.7956 141.403 97.4858 140.979 97.4858 140.344L97.4671 140.359Z" fill="white"/>
<path d="M100.109 138.204L98.9832 139.113H98.8969L98.7656 138.993L99.8911 138.081H99.9774L100.109 138.204ZM99.3584 143.611H99.1183V139.526H99.3584V143.611Z" fill="white"/>
<path d="M104.012 143.43H103.862L103.228 142.154L101.315 142.327V142.03L100.456 143.757L100.23 143.686L102.331 139.451L102.556 139.522L102.451 139.729L103.423 141.707H103.618V142.12L103.993 142.924L104.012 143.43ZM103.033 141.733L102.26 140.078C102.193 140.235 101.885 140.829 101.375 141.884L103.033 141.733Z" fill="white"/>
<path d="M76.9926 143.43H76.8501L76.2086 142.154L74.2953 142.327V142.03L73.4399 143.757L73.2148 143.686L75.3119 139.451L75.537 139.522L75.4358 139.729L76.4074 141.707H76.5987V142.12L76.9926 142.924V143.43ZM76.0172 141.733L75.2407 140.078C75.1769 140.235 74.8655 140.829 74.3591 141.884L76.0172 141.733Z" fill="white"/>
<path d="M81.004 143.655L80.7939 143.734C80.7939 143.704 80.7489 143.648 80.6963 143.562L78.4079 140.318V143.61H78.1641V139.567L78.3929 139.518C78.4154 139.571 78.4529 139.642 78.5055 139.736L80.7564 142.931V139.552H81.0002L81.004 143.655Z" fill="white"/>
<path d="M85.68 143.43H85.5187L84.8922 142.154L82.9789 142.327V142.03L82.1235 143.757L81.8984 143.686L83.9993 139.451L84.2244 139.522L84.1193 139.729L85.091 141.707H85.2861V142.12L85.68 142.924V143.43ZM84.7008 141.733L83.928 140.078C83.8605 140.235 83.5529 140.829 83.0427 141.884L84.7008 141.733Z" fill="white"/>
<path d="M89.879 141.028C89.9019 141.386 89.8467 141.744 89.7173 142.078C89.5875 142.412 89.3868 142.713 89.1287 142.962C88.5318 143.439 87.7789 143.676 87.0166 143.626H86.6602V143.206H86.8552V140.277L86.6864 140.375V139.936L86.8552 139.838V139.526H87.0953V139.725C87.5511 139.532 88.0407 139.432 88.5359 139.429C89.4325 139.44 89.879 139.962 89.879 141.028ZM89.6389 141.028C89.6651 140.722 89.5815 140.418 89.4025 140.168C89.2836 140.06 89.1433 139.978 88.991 139.928C88.8383 139.878 88.677 139.86 88.5172 139.875C88.0257 139.879 87.5399 139.985 87.0916 140.187V143.191C87.8051 143.22 88.5044 142.986 89.0574 142.534C89.2555 142.338 89.41 142.103 89.5102 141.844C89.6104 141.584 89.6543 141.306 89.6389 141.028Z" fill="white"/>
<path d="M93.9052 143.419L91.1328 143.674V143.254H91.2791V140.134H91.1478V139.713H91.2791V139.635H91.5192V139.695L93.6914 139.484V139.901L91.5192 140.111V141.32L93.5901 141.129V141.542L91.5192 141.737V143.239L93.9052 143.017V143.419Z" fill="white"/>
<path d="M97.9248 143.363H97.8385C97.0934 142.846 96.2902 142.419 95.445 142.09V143.611H95.2049V140.333L95.0586 140.419V139.995L95.2049 139.901V139.526H95.445V139.77C95.8644 139.53 96.3382 139.401 96.8218 139.395C97.4146 139.395 97.7109 139.71 97.7109 140.337C97.7132 140.539 97.6663 140.739 97.5744 140.919C97.4821 141.099 97.3474 141.253 97.182 141.369C96.8207 141.627 96.402 141.791 95.9627 141.85C96.6545 142.125 97.3129 142.478 97.9248 142.901V143.363ZM97.4671 140.359C97.4671 140.022 97.242 139.853 96.7881 139.853C96.3157 139.862 95.8535 139.991 95.445 140.228V141.636C96.7956 141.403 97.4858 140.979 97.4858 140.344L97.4671 140.359Z" fill="white"/>
<path d="M100.109 138.204L98.9832 139.113H98.8969L98.7656 138.993L99.8911 138.081H99.9774L100.109 138.204ZM99.3584 143.611H99.1183V139.526H99.3584V143.611Z" fill="white"/>
<path d="M104.012 143.43H103.862L103.228 142.154L101.315 142.327V142.03L100.456 143.757L100.23 143.686L102.331 139.451L102.556 139.522L102.451 139.729L103.423 141.707H103.618V142.12L103.993 142.924L104.012 143.43ZM103.033 141.733L102.26 140.078C102.193 140.235 101.885 140.829 101.375 141.884L103.033 141.733Z" fill="white"/>
</svg>
