<svg width="235" height="134" viewBox="0 0 235 134" fill="none" xmlns="http://www.w3.org/2000/svg">
<path d="M118.253 4.16781C113.327 1.51557 107.72 0 101.733 0H75.918V18.692H101.834C102.491 18.692 103.173 18.7425 103.804 18.8183C107.038 12.6045 112.09 7.4768 118.253 4.16781ZM75.918 69.7414H101.733C120.956 69.7414 136.541 54.1058 136.541 34.8833C136.541 29.0231 135.101 23.4913 132.524 18.6415C124.189 19.6266 118.329 26.1435 118.329 34.8833C118.329 34.9843 118.329 35.0601 118.329 35.1612C118.329 35.4895 118.329 35.8179 118.303 36.1463V36.3231C117.672 44.8608 110.498 51.6303 101.834 51.6303H75.918V69.6656V69.7414Z" fill="white"/>
<path d="M118.252 65.5483C123.152 68.1753 128.76 69.6656 134.696 69.6656C144.345 69.6656 153.085 65.6746 159.4 59.3597L146.391 46.5532C143.512 49.5338 139.42 51.2009 134.696 51.2009C133.964 51.2009 133.256 51.1504 132.549 51.0746C129.316 57.2127 124.34 62.2646 118.252 65.5483ZM159.198 10.1796C152.883 3.86471 144.244 0.0505371 134.671 0.0505371C115.448 0.0505371 99.8633 15.6609 99.8633 34.8833C99.8633 40.9203 101.404 46.6037 104.107 51.5546C112.114 50.4179 118.328 43.4968 118.353 35.1612V34.8581C118.353 25.3858 125.224 18.5152 134.696 18.5152C139.42 18.5152 143.512 20.1823 146.391 23.0619L159.198 10.1543V10.1796Z" fill="#919191"/>
<path d="M0.316406 83.6088H16.6088C23.6309 83.6088 29.2637 85.377 33.5578 88.8628C36.8921 91.5403 39.3423 94.9251 40.9589 98.9413C42.1461 101.972 42.727 105.155 42.727 108.414C42.727 114.627 40.6558 120.109 36.589 124.782C33.7094 127.964 30.5267 130.187 27.0409 131.374C23.934 132.486 20.2966 132.991 16.0025 132.991H0.316406V102.629H13.8555V121.372C16.4572 121.296 18.4527 121.069 19.9177 120.639C21.4081 120.185 22.7215 119.452 24.0603 118.416C25.4748 117.229 26.5862 115.739 27.3945 113.895C28.2028 112.127 28.6575 110.182 28.6575 108.262C28.6575 106.342 28.2028 104.498 27.3945 102.629C26.5105 100.785 25.399 99.295 23.9087 98.1078C22.6458 97.1479 21.307 96.4912 19.7662 96.0365C18.2759 95.6576 16.2804 95.4555 13.8555 95.4555H0.316406V83.6088Z" fill="white"/>
<path d="M97.1427 83.6088V95.4555H89.5396C87.1146 95.4555 85.1191 95.7333 83.5025 96.3143C81.8859 96.8952 80.4461 97.8551 79.1579 99.1433C76.733 101.619 75.4953 104.7 75.4953 108.338C75.4953 111.773 76.6572 114.728 79.0064 117.179C80.3956 118.618 81.9112 119.654 83.5783 120.235C85.2454 120.816 87.443 121.119 90.1205 121.119H97.1427V132.966H87.8724C81.8859 132.966 76.9856 131.829 73.1462 129.53C68.3216 126.626 64.9116 122.433 62.9413 116.951C61.931 114.173 61.4258 111.344 61.4258 108.439C61.4258 104.65 62.2593 100.962 63.9517 97.4004C65.24 94.6724 66.9323 92.298 69.0289 90.2268C72.0853 87.2714 75.7226 85.3264 79.941 84.3918C82.4164 83.8361 85.2454 83.5583 88.3776 83.5583H97.1427V83.6088Z" fill="white"/>
<path d="M137.382 83.6088V95.4555H104.141V83.6088H137.382ZM137.382 102.629V114.476H117.68V121.144H137.382V132.991H104.141V102.629H137.382Z" fill="white"/>
<path d="M144.523 83.6088H161.397C166.423 83.6088 170.061 84.0635 172.208 84.9476C175.315 86.2863 177.538 88.5092 178.801 91.5403C179.457 93.2327 179.836 95.0261 179.836 96.87C179.836 100.356 178.876 103.16 176.881 105.307C175.997 106.342 175.037 107.151 173.925 107.681C172.89 108.212 171.399 108.717 169.48 109.171C170.97 109.475 172.157 109.828 173.041 110.283C173.85 110.737 174.607 111.318 175.264 112.127C176.83 113.895 177.639 116.497 177.639 119.982V133.016H164.1V121.397C164.1 118.795 163.519 116.951 162.407 115.991C161.22 115.032 159.149 114.501 156.042 114.501H144.574V102.654H160.563C162.862 102.654 164.327 102.2 165.009 101.391C165.539 100.735 165.817 99.9012 165.817 99.0171C165.817 97.8299 165.438 96.9458 164.706 96.3396C163.897 95.7586 162.71 95.4555 161.068 95.4555H144.549V83.6088H144.523Z" fill="white"/>
<path d="M209.436 82.6489C213.805 82.6489 217.872 83.6088 221.737 85.4527C226.915 88.0544 230.628 91.8939 232.851 97.0721C234.266 100.406 234.998 104.246 234.998 108.54C234.998 115.789 232.624 121.877 227.976 126.752C223.303 131.576 217.316 133.926 209.991 133.926C202.666 133.926 196.578 131.627 191.855 127.03C186.753 122.155 184.227 115.991 184.227 108.439C184.227 103.766 185.262 99.4717 187.333 95.5565C189.632 91.1108 193.118 87.7008 197.69 85.3264C201.176 83.5582 205.091 82.6489 209.461 82.5984L209.436 82.6489ZM209.511 93.9651C205.798 93.9651 202.919 95.3039 200.999 98.0319C199.155 100.558 198.271 103.943 198.271 108.186C198.271 112.632 199.306 116.193 201.454 118.921C203.297 121.372 206.127 122.635 209.663 122.635C213.578 122.635 216.483 121.144 218.403 118.189C220.095 115.587 220.929 112.329 220.929 108.489C220.929 103.741 219.817 100.128 217.594 97.5267C215.675 95.2281 212.921 94.0409 209.511 93.9651Z" fill="white"/>
<path fill-rule="evenodd" clip-rule="evenodd" d="M51.9761 102.629L45.8633 83.7603L58.9477 83.6846L51.9761 102.629Z" fill="#919191"/>
</svg>
