<svg width="271" height="74" viewBox="0 0 271 74" fill="none" xmlns="http://www.w3.org/2000/svg">
<path d="M105.95 25.244C104.384 25.244 103.052 25.1423 101.954 24.939C100.856 24.7153 99.941 24.3697 99.209 23.902C98.4973 23.414 97.9382 22.7633 97.5315 21.95C97.1452 21.1367 96.8707 20.12 96.708 18.9C96.5453 17.6597 96.464 16.1957 96.464 14.508C96.464 12.8203 96.5453 11.3665 96.708 10.1465C96.8707 8.90617 97.1553 7.87933 97.562 7.066C97.9687 6.25267 98.5278 5.61217 99.2395 5.1445C99.9512 4.6565 100.856 4.31083 101.954 4.1075C103.052 3.88383 104.384 3.772 105.95 3.772C106.682 3.772 107.485 3.8025 108.359 3.8635C109.233 3.9245 110.118 4.00583 111.013 4.1075C111.907 4.20917 112.721 4.33117 113.453 4.4735V8.8045C112.802 8.72317 112.131 8.652 111.44 8.591C110.748 8.53 110.098 8.47917 109.488 8.4385C108.898 8.39783 108.42 8.3775 108.054 8.3775C107.037 8.3775 106.194 8.408 105.523 8.469C104.872 8.50967 104.353 8.63167 103.967 8.835C103.581 9.018 103.286 9.323 103.083 9.75C102.9 10.177 102.778 10.7768 102.717 11.5495C102.656 12.3222 102.625 13.3083 102.625 14.508C102.625 15.5653 102.645 16.4702 102.686 17.2225C102.727 17.9545 102.818 18.5543 102.961 19.022C103.103 19.4693 103.306 19.8252 103.571 20.0895C103.835 20.3335 104.181 20.5063 104.608 20.608C105.035 20.6893 105.573 20.73 106.224 20.73C106.366 20.73 106.539 20.73 106.743 20.73C106.966 20.7097 107.19 20.6995 107.414 20.6995C107.637 20.6995 107.83 20.6893 107.993 20.669V16.826H105.523V12.5865H113.544V24.6035C112.812 24.7255 111.989 24.8373 111.074 24.939C110.179 25.0203 109.284 25.0915 108.39 25.1525C107.515 25.2135 106.702 25.244 105.95 25.244ZM117.419 25V4.016H128.125C129.528 4.016 130.656 4.1685 131.51 4.4735C132.364 4.75817 133.005 5.19533 133.432 5.785C133.879 6.35433 134.174 7.07617 134.316 7.9505C134.479 8.8045 134.56 9.79067 134.56 10.909C134.56 11.8037 134.499 12.6475 134.377 13.4405C134.276 14.2335 134.032 14.9452 133.645 15.5755C133.279 16.1855 132.73 16.6735 131.998 17.0395L134.987 25H128.521L125.807 16.6735L127.362 17.5275C127.179 17.6495 126.986 17.7308 126.783 17.7715C126.58 17.7918 126.315 17.802 125.99 17.802H123.702V25H117.419ZM123.702 13.4405H125.776C126.346 13.4405 126.793 13.4202 127.118 13.3795C127.444 13.3185 127.688 13.2067 127.85 13.044C128.033 12.8813 128.145 12.6373 128.186 12.312C128.247 11.9867 128.277 11.5495 128.277 11.0005C128.277 10.4718 128.257 10.0448 128.216 9.7195C128.196 9.39417 128.105 9.15017 127.942 8.9875C127.8 8.82483 127.556 8.713 127.21 8.652C126.864 8.57067 126.386 8.53 125.776 8.53H123.702V13.4405ZM136.267 25L142.489 4.016H151.151L157.343 25H151.09L150.084 21.401H143.374L142.398 25H136.267ZM144.502 16.948H148.925L146.82 9.201H146.576L144.502 16.948ZM159.58 25V4.016H166.015L171.353 13.593H171.536V4.016H177.544V25H171.719L165.741 14.0505H165.558V25H159.58ZM96.8605 53V32.016H111.287V36.6215H103.113V40.922H110.159V45.558H103.113V53H96.8605ZM114.53 53V32.016H129.567V36.6215H120.783V40.129H128.133V44.6735H120.783V48.3945H129.567V53H114.53ZM133.242 53V32.016H143.948C145.351 32.016 146.479 32.1685 147.333 32.4735C148.187 32.7582 148.828 33.1953 149.255 33.785C149.702 34.3543 149.997 35.0762 150.139 35.9505C150.302 36.8045 150.383 37.7907 150.383 38.909C150.383 39.8037 150.322 40.6475 150.2 41.4405C150.099 42.2335 149.855 42.9452 149.468 43.5755C149.102 44.1855 148.553 44.6735 147.821 45.0395L150.81 53H144.344L141.63 44.6735L143.185 45.5275C143.002 45.6495 142.809 45.7308 142.606 45.7715C142.403 45.7918 142.138 45.802 141.813 45.802H139.525V53H133.242ZM139.525 41.4405H141.599C142.169 41.4405 142.616 41.4202 142.941 41.3795C143.267 41.3185 143.511 41.2067 143.673 41.044C143.856 40.8813 143.968 40.6373 144.009 40.312C144.07 39.9867 144.1 39.5495 144.1 39.0005C144.1 38.4718 144.08 38.0448 144.039 37.7195C144.019 37.3942 143.928 37.1502 143.765 36.9875C143.623 36.8248 143.379 36.713 143.033 36.652C142.687 36.5707 142.209 36.53 141.599 36.53H139.525V41.4405ZM153.921 53V32.016H164.626C166.029 32.016 167.158 32.1685 168.012 32.4735C168.866 32.7582 169.506 33.1953 169.933 33.785C170.38 34.3543 170.675 35.0762 170.818 35.9505C170.98 36.8045 171.062 37.7907 171.062 38.909C171.062 39.8037 171.001 40.6475 170.879 41.4405C170.777 42.2335 170.533 42.9452 170.147 43.5755C169.781 44.1855 169.232 44.6735 168.5 45.0395L171.489 53H165.023L162.308 44.6735L163.864 45.5275C163.681 45.6495 163.487 45.7308 163.284 45.7715C163.081 45.7918 162.816 45.802 162.491 45.802H160.204V53H153.921ZM160.204 41.4405H162.278C162.847 41.4405 163.294 41.4202 163.62 41.3795C163.945 41.3185 164.189 41.2067 164.352 41.044C164.535 40.8813 164.646 40.6373 164.687 40.312C164.748 39.9867 164.779 39.5495 164.779 39.0005C164.779 38.4718 164.758 38.0448 164.718 37.7195C164.697 37.3942 164.606 37.1502 164.443 36.9875C164.301 36.8248 164.057 36.713 163.711 36.652C163.365 36.5707 162.888 36.53 162.278 36.53H160.204V41.4405ZM174.599 53V32.016H189.635V36.6215H180.851V40.129H188.202V44.6735H180.851V48.3945H189.635V53H174.599ZM197.337 53V36.8655H191.908V32.016H209.049V36.8655H203.62V53H197.337ZM211.695 53V32.016H226.732V36.6215H217.948V40.129H225.298V44.6735H217.948V48.3945H226.732V53H211.695ZM230.408 53V32.016H241.113C242.516 32.016 243.645 32.1685 244.499 32.4735C245.353 32.7582 245.993 33.1953 246.42 33.785C246.867 34.3543 247.162 35.0762 247.305 35.9505C247.467 36.8045 247.549 37.7907 247.549 38.909C247.549 39.8037 247.488 40.6475 247.366 41.4405C247.264 42.2335 247.02 42.9452 246.634 43.5755C246.268 44.1855 245.719 44.6735 244.987 45.0395L247.976 53H241.51L238.795 44.6735L240.351 45.5275C240.168 45.6495 239.974 45.7308 239.771 45.7715C239.568 45.7918 239.303 45.802 238.978 45.802H236.691V53H230.408ZM236.691 41.4405H238.765C239.334 41.4405 239.781 41.4202 240.107 41.3795C240.432 41.3185 240.676 41.2067 240.839 41.044C241.022 40.8813 241.133 40.6373 241.174 40.312C241.235 39.9867 241.266 39.5495 241.266 39.0005C241.266 38.4718 241.245 38.0448 241.205 37.7195C241.184 37.3942 241.093 37.1502 240.93 36.9875C240.788 36.8248 240.544 36.713 240.198 36.652C239.852 36.5707 239.375 36.53 238.765 36.53H236.691V41.4405ZM259.87 53.244C258.06 53.244 256.576 53.1423 255.417 52.939C254.278 52.7153 253.383 52.3595 252.733 51.8715C252.082 51.3835 251.614 50.7227 251.33 49.889C251.045 49.0553 250.862 48.0387 250.781 46.839C250.72 45.619 250.689 44.1753 250.689 42.508C250.689 40.8407 250.72 39.4072 250.781 38.2075C250.862 36.9875 251.045 35.9607 251.33 35.127C251.614 34.2933 252.082 33.6325 252.733 33.1445C253.383 32.6565 254.278 32.3108 255.417 32.1075C256.576 31.8838 258.06 31.772 259.87 31.772C261.679 31.772 263.153 31.8838 264.292 32.1075C265.451 32.3108 266.356 32.6565 267.007 33.1445C267.657 33.6325 268.125 34.2933 268.41 35.127C268.694 35.9607 268.877 36.9875 268.959 38.2075C269.04 39.4072 269.081 40.8407 269.081 42.508C269.081 44.1753 269.04 45.619 268.959 46.839C268.877 48.0387 268.694 49.0553 268.41 49.889C268.125 50.7227 267.657 51.3835 267.007 51.8715C266.356 52.3595 265.451 52.7153 264.292 52.939C263.153 53.1423 261.679 53.244 259.87 53.244ZM259.87 48.6385C260.439 48.6385 260.896 48.6182 261.242 48.5775C261.608 48.5165 261.893 48.3945 262.096 48.2115C262.299 48.0082 262.442 47.693 262.523 47.266C262.625 46.8187 262.686 46.2188 262.706 45.4665C262.747 44.6938 262.767 43.7077 262.767 42.508C262.767 41.3083 262.747 40.3323 262.706 39.58C262.686 38.8073 262.625 38.2075 262.523 37.7805C262.442 37.3332 262.299 37.018 262.096 36.835C261.893 36.6317 261.608 36.5097 261.242 36.469C260.896 36.408 260.439 36.3775 259.87 36.3775C259.3 36.3775 258.833 36.408 258.467 36.469C258.121 36.5097 257.846 36.6317 257.643 36.835C257.44 37.018 257.287 37.3332 257.186 37.7805C257.104 38.2075 257.053 38.8073 257.033 39.58C257.013 40.3323 257.003 41.3083 257.003 42.508C257.003 43.7077 257.013 44.6938 257.033 45.4665C257.053 46.2188 257.104 46.8187 257.186 47.266C257.287 47.693 257.44 48.0082 257.643 48.2115C257.846 48.3945 258.121 48.5165 258.467 48.5775C258.833 48.6182 259.3 48.6385 259.87 48.6385Z" fill="white"/>
<path d="M101.509 73.8994C101.101 73.8994 100.693 74.0001 100.285 74.0001C98.9585 74.0001 98.0403 73.7988 97.5302 73.4969C96.9181 73.0944 96.5101 72.4906 96.306 71.4843C96.102 70.3774 96 68.7674 96 66.4529C96 64.2391 96.102 62.629 96.306 61.6227C96.5101 60.6164 96.9181 59.912 97.5302 59.5095C98.1423 59.107 99.0605 59.0063 100.285 59.0063C100.693 59.0063 101.101 59.0063 101.509 59.107C101.917 59.2076 102.325 59.2076 102.631 59.3082V60.3145C101.815 60.2139 101.101 60.1133 100.591 60.1133C99.5706 60.1133 98.7544 60.2139 98.3464 60.5158C97.9383 60.8177 97.6323 61.3208 97.4282 62.2265C97.3262 63.0315 97.2242 64.4403 97.2242 66.4529C97.2242 68.4655 97.3262 69.9749 97.4282 70.7799C97.5302 71.585 97.8363 72.1887 98.2444 72.39C98.6524 72.5913 99.3665 72.7925 100.489 72.7925C101.203 72.7925 101.917 72.6919 102.631 72.5913V73.6982C102.325 73.7988 101.917 73.8994 101.509 73.8994Z" fill="white"/>
<path d="M105.693 73.4967C105.183 73.1949 104.877 72.6917 104.673 71.9873C104.469 71.2829 104.469 70.0754 104.469 68.3647C104.469 66.654 104.571 65.4464 104.673 64.742C104.775 64.0376 105.183 63.5345 105.693 63.2326C106.203 62.9307 107.019 62.8301 108.141 62.8301C109.264 62.8301 110.08 62.9307 110.59 63.2326C111.1 63.5345 111.406 64.0376 111.61 64.742C111.712 65.4464 111.814 66.654 111.814 68.3647C111.814 69.9747 111.712 71.1823 111.61 71.9873C111.508 72.6917 111.1 73.1949 110.59 73.4967C110.08 73.7986 109.264 73.8993 108.141 73.8993C107.019 73.8993 106.203 73.7986 105.693 73.4967ZM109.876 72.5911C110.182 72.3898 110.386 71.9873 110.488 71.3835C110.59 70.7798 110.59 69.7735 110.59 68.3647C110.59 66.9559 110.59 65.9496 110.488 65.3458C110.386 64.742 110.182 64.3395 109.876 64.1383C109.57 63.937 108.957 63.8364 108.141 63.8364C107.325 63.8364 106.815 63.937 106.407 64.1383C105.999 64.3395 105.897 64.742 105.795 65.3458C105.693 65.9496 105.693 66.9559 105.693 68.3647C105.693 69.7735 105.693 70.7798 105.795 71.3835C105.897 71.9873 106.101 72.3898 106.407 72.5911C106.713 72.7923 107.325 72.893 108.141 72.893C108.957 72.893 109.57 72.7923 109.876 72.5911Z" fill="white"/>
<path d="M125.275 67.3585C125.275 66.2515 125.275 65.5471 125.173 65.044C125.071 64.5409 124.867 64.239 124.663 64.1383C124.459 64.0377 123.949 63.9371 123.337 63.9371C122.623 63.9371 122.113 64.1383 121.807 64.4402C121.501 64.7421 121.297 65.2453 121.194 65.7484C121.092 66.3522 121.092 67.1572 121.092 68.2641V73.8993H119.868V67.3585C119.868 66.2515 119.868 65.5471 119.766 65.044C119.664 64.5409 119.46 64.239 119.256 64.1383C118.95 63.9371 118.542 63.9371 117.93 63.9371C117.216 63.9371 116.706 64.1383 116.4 64.4402C116.094 64.7421 115.89 65.2453 115.788 65.849C115.686 66.4528 115.686 67.2578 115.686 68.2641V73.8993H114.359V62.9308H115.38L115.482 64.4402H115.584C115.788 63.9371 115.992 63.4339 116.4 63.1321C116.808 62.8302 117.42 62.6289 118.236 62.6289C119.052 62.6289 119.664 62.7295 120.072 63.0314C120.48 63.3333 120.684 63.7358 120.888 64.3396H120.99C121.297 63.2327 122.215 62.6289 123.745 62.6289C124.561 62.6289 125.173 62.7295 125.479 63.0314C125.887 63.3333 126.193 63.7358 126.295 64.3396C126.397 64.9434 126.499 65.7484 126.499 66.8553V73.6981H125.275V67.3585Z" fill="white"/>
<path d="M135.992 68.7672H130.177C130.177 69.9747 130.279 70.8804 130.381 71.4842C130.483 71.9873 130.789 72.3898 131.095 72.5911C131.504 72.7923 132.116 72.893 132.932 72.893C133.34 72.893 133.85 72.893 134.36 72.7923C134.87 72.7923 135.38 72.6917 135.686 72.5911V73.5974C135.38 73.698 134.87 73.7986 134.36 73.7986C133.85 73.8993 133.238 73.8993 132.728 73.8993C131.606 73.8993 130.789 73.698 130.279 73.3961C129.769 73.0942 129.361 72.4905 129.259 71.7861C129.157 71.0817 128.953 69.8741 128.953 68.264C128.953 66.654 129.055 65.5471 129.157 64.8427C129.259 64.1383 129.667 63.5345 130.177 63.2326C130.687 62.9307 131.504 62.8301 132.728 62.8301C133.748 62.8301 134.564 63.0313 134.972 63.3332C135.38 63.6351 135.686 64.2389 135.89 64.9433C135.992 65.6477 136.094 66.8552 136.094 68.4653V68.7672H135.992ZM130.993 64.1383C130.687 64.3395 130.483 64.6414 130.381 65.2452C130.279 65.7483 130.177 66.654 130.177 67.8615H134.87V67.459C134.87 66.3521 134.768 65.5471 134.666 65.0439C134.564 64.5408 134.36 64.2389 134.054 64.0376C133.748 63.8364 133.34 63.8364 132.626 63.8364C131.912 63.8364 131.3 63.937 130.993 64.1383Z" fill="white"/>
<path d="M138.539 62.9308H139.559L139.661 65.044H139.763C139.967 64.1383 140.273 63.6352 140.783 63.2326C141.294 62.9308 141.906 62.7295 142.62 62.7295V64.0377C141.906 64.0377 141.294 64.1383 140.885 64.5408C140.477 64.9433 140.171 65.3458 139.967 66.0502C139.763 66.654 139.763 67.5597 139.763 68.566V73.8993H138.539V62.9308Z" fill="white"/>
<path d="M148.74 73.8993C148.332 73.8993 147.924 73.9999 147.515 73.9999C146.495 73.9999 145.679 73.7986 145.169 73.4967C144.659 73.1949 144.353 72.5911 144.251 71.7861C144.149 70.981 144.047 69.9747 144.047 68.4653C144.047 66.9559 144.149 65.8489 144.353 65.0439C144.557 64.2389 144.863 63.7357 145.373 63.3332C145.883 63.0313 146.597 62.8301 147.515 62.8301C147.924 62.8301 148.332 62.8301 148.74 62.9307C149.148 62.9307 149.556 63.0313 149.76 63.132V64.1383C149.046 63.937 148.332 63.937 147.719 63.937C147.005 63.937 146.495 64.0376 146.087 64.3395C145.781 64.5408 145.475 65.0439 145.373 65.6477C145.271 66.2515 145.169 67.2578 145.169 68.5659C145.169 69.8741 145.271 70.8804 145.373 71.4842C145.475 72.0879 145.679 72.4905 146.087 72.7923C146.495 73.0942 147.005 73.0942 147.719 73.0942C148.026 73.0942 148.434 73.0942 148.74 72.9936C149.148 72.9936 149.454 72.893 149.76 72.7923V73.7986C149.556 73.7986 149.25 73.7986 148.74 73.8993Z" fill="white"/>
<path d="M152.008 59.6101V58H153.334V59.6101H152.008ZM152.008 73.7987V62.9308H153.232V73.7987H152.008Z" fill="white"/>
<path d="M156.701 73.698C156.293 73.4968 155.987 73.1949 155.783 72.7924C155.579 72.2892 155.477 71.6855 155.477 70.8804C155.477 70.0754 155.579 69.4716 155.681 68.9685C155.885 68.566 156.089 68.1635 156.497 67.9622C156.905 67.7609 157.415 67.6603 158.129 67.6603C158.537 67.6603 159.557 67.6603 161.189 67.7609V66.9559C161.189 65.9496 161.087 65.3458 160.985 64.8427C160.883 64.4402 160.577 64.1383 160.271 64.0377C159.965 63.937 159.353 63.8364 158.537 63.8364C158.129 63.8364 157.721 63.8364 157.211 63.937C156.701 63.937 156.293 64.0377 155.885 64.1383V63.0314C156.803 62.8301 157.823 62.7295 158.843 62.7295C159.863 62.7295 160.577 62.8301 160.985 63.0314C161.496 63.2326 161.802 63.6352 162.006 64.2389C162.21 64.8427 162.312 65.6477 162.312 66.7546V73.698H161.292L161.189 72.1886H161.292C161.087 72.893 160.679 73.2955 160.169 73.5974C159.659 73.7987 159.047 73.8993 158.333 73.8993C157.721 73.9999 157.109 73.8993 156.701 73.698ZM160.067 72.6918C160.475 72.5911 160.679 72.2892 160.883 71.7861C160.985 71.3836 161.087 71.0817 161.189 70.6792C161.189 70.2767 161.292 69.8741 161.292 69.2704V68.566H158.537C158.027 68.566 157.619 68.6666 157.415 68.7672C157.211 68.8679 157.007 69.0691 156.905 69.371C156.803 69.6729 156.803 70.176 156.803 70.7798C156.803 71.3836 156.905 71.7861 157.007 72.088C157.109 72.3899 157.313 72.5911 157.619 72.6918C157.925 72.7924 158.333 72.893 158.945 72.893C159.251 72.893 159.761 72.893 160.067 72.6918Z" fill="white"/>
<path d="M165.266 73.7987V58H166.49V73.7987H165.266Z" fill="white"/>
<path d="M169.352 59.6101V58H170.678V59.6101H169.352ZM169.454 73.7987V62.9308H170.678V73.7987H169.454Z" fill="white"/>
<path d="M172.82 73.7988V72.7925L177.819 64.0378H173.024V63.0315H179.247V63.9372L174.249 72.7925H179.247V73.7988H172.82Z" fill="white"/>
<path d="M182.099 73.698C181.691 73.4968 181.385 73.1949 181.181 72.7924C180.977 72.2892 180.875 71.6855 180.875 70.8804C180.875 70.0754 180.977 69.4716 181.079 68.9685C181.283 68.566 181.487 68.1635 181.895 67.9622C182.303 67.7609 182.813 67.6603 183.527 67.6603C183.936 67.6603 184.956 67.6603 186.588 67.7609V66.9559C186.588 65.9496 186.486 65.3458 186.384 64.8427C186.282 64.4402 185.976 64.1383 185.67 64.0377C185.364 63.937 184.752 63.8364 184.038 63.8364C183.629 63.8364 183.221 63.8364 182.711 63.937C182.099 63.937 181.691 64.0377 181.385 64.0377V63.0314C182.303 62.8301 183.323 62.7295 184.344 62.7295C185.364 62.7295 186.078 62.8301 186.486 63.0314C186.996 63.2326 187.302 63.6352 187.506 64.2389C187.71 64.8427 187.812 65.7484 187.812 66.8553V73.7987H186.792L186.69 72.2892H186.588C186.384 72.9936 185.976 73.3962 185.466 73.698C184.956 73.8993 184.344 73.9999 183.629 73.9999C183.017 73.9999 182.507 73.8993 182.099 73.698ZM185.466 72.6918C185.874 72.5911 186.078 72.2892 186.282 71.7861C186.384 71.3836 186.486 71.0817 186.588 70.6792C186.588 70.2767 186.69 69.8741 186.69 69.2704V68.566H183.935C183.425 68.566 183.017 68.6666 182.813 68.7672C182.609 68.8679 182.405 69.0691 182.303 69.371C182.201 69.6729 182.201 70.176 182.201 70.7798C182.201 71.3836 182.303 71.7861 182.405 72.088C182.507 72.3899 182.711 72.5911 183.017 72.6918C183.323 72.7924 183.731 72.893 184.344 72.893C184.65 72.893 185.058 72.893 185.466 72.6918Z" fill="white"/>
<path d="M191.49 73.4969C191.082 73.195 190.674 72.5912 190.572 71.8868C190.368 71.0818 190.266 69.9748 190.266 68.3648C190.266 66.7547 190.368 65.6478 190.572 64.8428C190.776 64.0377 191.082 63.5346 191.49 63.2327C191.898 62.9308 192.612 62.7296 193.53 62.7296C194.244 62.7296 194.856 62.8302 195.264 63.0314C195.673 63.2327 195.979 63.6352 196.183 64.239H196.285V58H197.509V73.7987H196.489L196.387 72.2893H196.285C196.081 72.9937 195.775 73.3962 195.264 73.6981C194.754 74 194.244 74 193.53 74C192.612 74 192 73.7987 191.49 73.4969ZM195.366 72.5912C195.673 72.3899 195.979 71.9874 196.081 71.4843C196.183 71.0818 196.285 70.5786 196.285 70.0755C196.285 69.5723 196.387 68.9686 196.387 68.1635C196.387 66.956 196.285 66.0503 196.183 65.5472C196.081 64.9434 195.775 64.5409 195.468 64.239C195.162 64.0377 194.652 63.8365 193.938 63.8365C193.224 63.8365 192.714 63.9371 192.408 64.1384C192.102 64.3396 191.898 64.7421 191.796 65.3459C191.694 65.9497 191.592 66.956 191.592 68.3648C191.592 69.7736 191.694 70.7799 191.796 71.3836C191.898 71.9874 192.102 72.3899 192.408 72.5912C192.714 72.7925 193.224 72.8931 194.04 72.8931C194.55 72.8931 194.958 72.7925 195.366 72.5912Z" fill="white"/>
<path d="M201.279 73.4967C200.769 73.1949 200.463 72.6917 200.259 71.9873C200.055 71.2829 200.055 70.0754 200.055 68.3647C200.055 66.654 200.157 65.4464 200.259 64.742C200.361 64.0376 200.769 63.5345 201.279 63.2326C201.789 62.9307 202.605 62.8301 203.727 62.8301C204.849 62.8301 205.666 62.9307 206.176 63.2326C206.686 63.5345 206.992 64.0376 207.196 64.742C207.298 65.4464 207.4 66.654 207.4 68.3647C207.4 69.9747 207.298 71.1823 207.196 71.9873C207.094 72.6917 206.686 73.1949 206.176 73.4967C205.666 73.7986 204.849 73.8993 203.727 73.8993C202.605 73.8993 201.687 73.7986 201.279 73.4967ZM205.462 72.5911C205.768 72.3898 205.972 71.9873 206.074 71.3835C206.176 70.7798 206.176 69.7735 206.176 68.3647C206.176 66.9559 206.176 65.9496 206.074 65.3458C205.972 64.742 205.768 64.3395 205.462 64.1383C205.156 63.937 204.543 63.8364 203.727 63.8364C202.911 63.8364 202.401 63.937 201.993 64.1383C201.585 64.3395 201.483 64.742 201.381 65.3458C201.279 65.9496 201.279 66.9559 201.279 68.3647C201.279 69.7735 201.279 70.7798 201.381 71.3835C201.483 71.9873 201.687 72.3898 201.993 72.5911C202.299 72.7923 202.911 72.893 203.727 72.893C204.543 72.893 205.054 72.7923 205.462 72.5911Z" fill="white"/>
<path d="M209.953 62.9308H210.973L211.075 65.044H211.177C211.381 64.1383 211.687 63.6352 212.197 63.2326C212.708 62.9308 213.32 62.7295 214.034 62.7295V64.0377C213.32 64.0377 212.708 64.2389 212.3 64.5408C211.891 64.8427 211.585 65.3458 211.381 66.0502C211.177 66.654 211.177 67.5597 211.177 68.566V73.8993H209.953V62.9308Z" fill="white"/>
<path d="M216.279 73.698C215.871 73.4968 215.565 73.1949 215.361 72.7924C215.157 72.2892 215.055 71.6855 215.055 70.8804C215.055 70.0754 215.157 69.4716 215.259 68.9685C215.463 68.566 215.667 68.1635 216.075 67.9622C216.483 67.7609 216.993 67.6603 217.707 67.6603C218.115 67.6603 219.135 67.6603 220.768 67.7609V66.9559C220.768 65.9496 220.666 65.3458 220.564 64.8427C220.462 64.4402 220.156 64.1383 219.849 64.0377C219.543 63.937 218.931 63.8364 218.115 63.8364C217.707 63.8364 217.299 63.8364 216.789 63.937C216.279 63.937 215.871 64.0377 215.463 64.1383V63.0314C216.381 62.8301 217.401 62.7295 218.421 62.7295C219.441 62.7295 220.156 62.8301 220.564 63.0314C221.074 63.2326 221.38 63.6352 221.584 64.2389C221.788 64.8427 221.89 65.6477 221.89 66.7546V73.698H220.87L220.768 72.1886H220.666C220.462 72.893 220.054 73.2955 219.543 73.5974C219.033 73.7987 218.421 73.8993 217.707 73.8993C217.299 73.9999 216.687 73.8993 216.279 73.698ZM219.645 72.6918C220.054 72.5911 220.258 72.2892 220.462 71.7861C220.564 71.3836 220.666 71.0817 220.768 70.6792C220.768 70.2767 220.87 69.8741 220.87 69.2704V68.566H218.115C217.605 68.566 217.197 68.6666 216.993 68.7672C216.789 68.8679 216.585 69.0691 216.483 69.371C216.381 69.6729 216.381 70.176 216.381 70.7798C216.381 71.3836 216.483 71.7861 216.585 72.088C216.687 72.3899 216.891 72.5911 217.197 72.6918C217.503 72.7924 217.911 72.893 218.523 72.893C218.829 72.893 219.339 72.893 219.645 72.6918Z" fill="white"/>
<path d="M239.028 73.7987V61.522H238.926L235.254 73.6981H234.03L230.459 61.522H230.357V73.6981H229.133V59.2075H230.969L234.642 71.6855H234.744L238.416 59.2075H240.253V73.7987H239.028Z" fill="white"/>
<path d="M243.211 59.6101V58H244.537V59.6101H243.211ZM243.313 73.7987V62.9308H244.537V73.7987H243.313Z" fill="white"/>
<path d="M252.904 73.7988L250.354 69.3712H250.252L247.701 73.7988H246.375L249.538 68.2642L246.477 62.9309H247.905L250.354 67.1573H250.456L252.904 62.9309H254.23L251.17 68.2642L254.332 73.7988H252.904Z" fill="white"/>
<path d="M256.883 73.7987V64.0377H255.148V63.0314H256.781V59.8113H258.005V62.9308H259.943V63.9371H258.005V73.6981H256.883V73.7987Z" fill="white"/>
<path d="M262.287 73.698C261.879 73.4968 261.573 73.1949 261.369 72.7924C261.165 72.2892 261.062 71.6855 261.062 70.8804C261.062 70.0754 261.165 69.4716 261.267 68.9685C261.471 68.566 261.675 68.1635 262.083 67.9622C262.491 67.7609 263.001 67.6603 263.715 67.6603C264.123 67.6603 265.143 67.6603 266.775 67.7609V66.9559C266.775 65.9496 266.673 65.3458 266.571 64.8427C266.469 64.4402 266.163 64.1383 265.857 64.0377C265.551 63.937 264.939 63.8364 264.123 63.8364C263.715 63.8364 263.307 63.8364 262.797 63.937C262.287 63.937 261.879 64.0377 261.471 64.1383V63.0314C262.389 62.8301 263.409 62.7295 264.429 62.7295C265.449 62.7295 266.163 62.8301 266.571 63.0314C267.081 63.2326 267.388 63.6352 267.592 64.2389C267.796 64.8427 267.898 65.6477 267.898 66.7546V73.698H266.877L266.775 72.1886H266.673C266.469 72.893 266.061 73.2955 265.551 73.5974C265.041 73.7987 264.429 73.8993 263.715 73.8993C263.205 73.9999 262.695 73.8993 262.287 73.698ZM265.653 72.6918C266.061 72.5911 266.265 72.2892 266.469 71.7861C266.571 71.3836 266.673 71.0817 266.775 70.6792C266.775 70.2767 266.877 69.8741 266.877 69.2704V68.566H264.123C263.613 68.566 263.205 68.6666 263.001 68.7672C262.797 68.8679 262.593 69.0691 262.491 69.371C262.389 69.6729 262.389 70.176 262.389 70.7798C262.389 71.3836 262.491 71.7861 262.593 72.088C262.695 72.3899 262.899 72.5911 263.205 72.6918C263.511 72.7924 263.919 72.893 264.531 72.893C264.837 72.893 265.347 72.893 265.653 72.6918Z" fill="white"/>
<path d="M20.7831 4H62.3493L70.5566 17.9219H33.2265L10.4577 56.5651L0 38.7398L20.7831 4Z" fill="white"/>
<path d="M45.5356 31.9741L37.3283 45.896H58.1114L49.9041 60.2083H29.121L20.7812 74.0001H62.2151L82.9982 39.3904L78.6297 31.7139L45.5356 31.9741Z" fill="white"/>
</svg>
