<svg id="Capa_1" data-name="Capa 1" xmlns="http://www.w3.org/2000/svg" viewBox="0 0 1956.45 899.22"><defs><style>.cls-1{fill:#fff;}</style></defs><path class="cls-1" d="M811.05,630.14h-2.91L752,749h13.25l23.95-50.58,2.38-5h35.89l2.37,5L853.65,749h12.83ZM797,681.92l12.56-26.53,12.5,26.53Z"/><path class="cls-1" d="M1876.23,630.14h-2.91L1817.16,749h13.25l23.95-50.58,2.38-5h35.89l2.36,5L1918.83,749h12.83Zm-14.06,51.78,12.56-26.53,12.5,26.53Z"/><path class="cls-1" d="M24.83,748.71V629.56h24.7q26.73,0,38.79,4.3a51.73,51.73,0,0,1,27.1,21.06q9.77,15,9.76,35.71,0,17.91-7.73,31.51t-20.1,20.09Q85,748.71,62.73,748.71Zm11.42-11.26H50q24.7,0,34.26-3.08a39.44,39.44,0,0,0,21.13-15.74q7.71-11.37,7.7-27.8,0-17.24-8.34-29.46a42.07,42.07,0,0,0-23.24-16.75q-11.19-3.39-36.86-3.4H36.25Z"/><path class="cls-1" d="M287.94,626.56q27.07,0,45.3,18.07t18.24,44.46q0,26.17-18.19,44.39t-44.38,18.23q-26.51,0-44.74-18.15a59.68,59.68,0,0,1-18.23-43.9,63.44,63.44,0,0,1,8.31-31.83,61.36,61.36,0,0,1,53.69-31.27Zm.53,11.59A50.88,50.88,0,0,0,244.9,663.6a51.67,51.67,0,0,0-6.65,26q0,21.24,14.73,35.87a48.5,48.5,0,0,0,35.49,14.63,51.08,51.08,0,0,0,25.68-6.72A48.21,48.21,0,0,0,332.55,715a51.59,51.59,0,0,0,6.62-25.94,50.33,50.33,0,0,0-6.62-25.65A49.28,49.28,0,0,0,313.94,645,50.35,50.35,0,0,0,288.47,638.15Z"/><path class="cls-1" d="M459,629.56H482.7q19.85,0,26.89,1.63a30.66,30.66,0,0,1,17.25,10.42q6.64,8,6.64,19.66a31.83,31.83,0,0,1-4.58,17.12,28.5,28.5,0,0,1-13.08,11.14q-8.51,3.78-23.49,3.86l42.85,55.32H520.45L477.6,693.39h-6.73v55.32H459Zm11.9,11.66v40.5l20.53.17c7.94,0,13.83-.76,17.63-2.27a18.36,18.36,0,0,0,8.93-7.25,20.14,20.14,0,0,0,3.21-11.14,19.27,19.27,0,0,0-3.25-10.89,18.07,18.07,0,0,0-8.52-7q-5.26-2.1-17.52-2.11Z"/><path class="cls-1" d="M640.23,629.56h11.91V748.71H640.23Z"/><path class="cls-1" d="M1351,651.67l-9.4,7.21a51,51,0,0,0-18.67-15.34,54.48,54.48,0,0,0-23.93-5.23,52.79,52.79,0,0,0-26.4,6.85,48.94,48.94,0,0,0-18.83,18.38,50.91,50.91,0,0,0-6.69,26q0,21.79,15,36.37t37.7,14.57q25,0,41.87-19.6L1351,728a59.93,59.93,0,0,1-22.23,17.53,69.63,69.63,0,0,1-29.77,6.21q-31.26,0-49.33-20.82-15.14-17.58-15.14-42.44,0-26.18,18.34-44t46-17.87a67.46,67.46,0,0,1,30.13,6.61A58.52,58.52,0,0,1,1351,651.67Z"/><path class="cls-1" d="M1458.22,629.56h11.91v71.92c0,8.54.16,13.85.49,16a26.42,26.42,0,0,0,4.12,11.79,24.48,24.48,0,0,0,10,7.94,31.24,31.24,0,0,0,13.53,3.19,26.62,26.62,0,0,0,11.34-2.51,25.26,25.26,0,0,0,9.08-7,28.34,28.34,0,0,0,5.34-10.78q1.21-4.53,1.21-18.63V629.56h11.91v71.92q0,16-3.11,25.8t-12.48,17.13q-9.35,7.29-22.64,7.3-14.42,0-24.71-6.89a33.15,33.15,0,0,1-13.76-18.22q-2.19-7-2.19-25.12Z"/><path class="cls-1" d="M1649.69,629.56h23.5q14.16,0,21.78,3.36a26.78,26.78,0,0,1,12,10.33,28.35,28.35,0,0,1,4.42,15.47,27.81,27.81,0,0,1-3.87,14.46,28.77,28.77,0,0,1-11.37,10.57q9.28,3.15,14.3,7.41a29.49,29.49,0,0,1,7.78,10.29,30.75,30.75,0,0,1,2.79,13.07,32.12,32.12,0,0,1-10.49,24.27q-10.49,9.91-28.14,9.92h-32.73Zm11.67,11.66v38.15h6.82q12.42,0,18.26-2.3a19.66,19.66,0,0,0,9.25-7.3,19.14,19.14,0,0,0,3.41-11q0-8.18-5.72-12.84t-18.22-4.66Zm0,50.14V737h14.77q13.06,0,19.14-2.55a21.72,21.72,0,0,0,9.78-8,20.84,20.84,0,0,0-1.49-25.59q-5.2-5.91-14.28-8.1-6.09-1.46-21.19-1.46Z"/><polygon class="cls-1" points="1049.42 629.56 1049.42 681.48 980.42 629.56 980.41 629.59 968.12 629.59 968.12 748.71 980.43 748.71 980.43 644.8 1049.42 695.49 1049.42 748.68 1061.71 748.68 1061.71 629.56 1049.42 629.56"/><path class="cls-1" d="M24.8,879.2V837.77h8.59q9.3,0,13.49,1.49a18,18,0,0,1,9.42,7.33A22.25,22.25,0,0,1,59.69,859,21.8,21.8,0,0,1,57,870a17.28,17.28,0,0,1-7,7q-4.29,2.25-12,2.25Zm4-3.92h4.79q8.59,0,11.92-1.07a13.74,13.74,0,0,0,7.35-5.47,16.83,16.83,0,0,0,2.67-9.66,17.79,17.79,0,0,0-2.9-10.25A14.64,14.64,0,0,0,44.52,843q-3.89-1.18-12.82-1.18H28.77Z"/><path class="cls-1" d="M127,836.73A21.51,21.51,0,0,1,142.73,843a21.78,21.78,0,0,1-15.42,37.23,21.19,21.19,0,0,1-15.56-6.31,20.71,20.71,0,0,1-6.34-15.26,22,22,0,0,1,2.89-11.07,21,21,0,0,1,7.87-8A21.26,21.26,0,0,1,127,836.73Zm.18,4a17.08,17.08,0,0,0-8.72,2.4A17.38,17.38,0,0,0,112,849.6a18.11,18.11,0,0,0-2.31,9,17.43,17.43,0,0,0,17.46,17.57,17.8,17.8,0,0,0,8.93-2.34,16.68,16.68,0,0,0,6.4-6.4,17.92,17.92,0,0,0,2.31-9,17.51,17.51,0,0,0-2.31-8.93,17.09,17.09,0,0,0-6.47-6.38A17.48,17.48,0,0,0,127.15,840.75Z"/><path class="cls-1" d="M197.11,837.77h8.25a50.62,50.62,0,0,1,9.35.56,10.67,10.67,0,0,1,6,3.63A10.33,10.33,0,0,1,223,848.8a11.08,11.08,0,0,1-1.59,6,10,10,0,0,1-4.55,3.88,21,21,0,0,1-8.16,1.33l14.89,19.24h-5.12L203.59,860h-2.34V879.2h-4.14Zm4.14,4.06v14.08l7.14.06a17.61,17.61,0,0,0,6.14-.8,6.39,6.39,0,0,0,3.09-2.51,7,7,0,0,0,1.12-3.88,6.61,6.61,0,0,0-1.13-3.78,6.28,6.28,0,0,0-3-2.44,18,18,0,0,0-6.09-.73Z"/><path class="cls-1" d="M270.82,837.77H275V879.2h-4.13Z"/><path class="cls-1" d="M340.88,837.77l19.33,41.43h-4.48l-6.51-13.63H331.37l-6.46,13.63H320.3l19.57-41.43Zm-.51,8.8-7.1,15h14.16Z"/><path class="cls-1" d="M406.17,879.2V837.77h.9l27.57,31.76V837.77h4.09V879.2h-.93l-27.35-31.37V879.2Z"/><path class="cls-1" d="M582.39,845.46,579.12,848a17.73,17.73,0,0,0-6.48-5.34,19,19,0,0,0-8.33-1.82,18.48,18.48,0,0,0-9.18,2.38,17.15,17.15,0,0,0-6.55,6.4,17.64,17.64,0,0,0-2.32,9,17,17,0,0,0,5.19,12.65,18,18,0,0,0,13.12,5.07,18.42,18.42,0,0,0,14.55-6.82l3.27,2.48a20.85,20.85,0,0,1-7.73,6.1,24.17,24.17,0,0,1-10.35,2.15q-10.87,0-17.15-7.24a21.79,21.79,0,0,1-5.27-14.76,20.52,20.52,0,0,1,6.38-15.3,22,22,0,0,1,16-6.21A23.47,23.47,0,0,1,574.74,839,20.29,20.29,0,0,1,582.39,845.46Z"/><path class="cls-1" d="M647.14,837.77l19.32,41.43H662l-6.52-13.63H637.63l-6.46,13.63h-4.62l19.57-41.43Zm-.52,8.8-7.1,15h14.16Z"/><path class="cls-1" d="M712.62,837.77h8.26a50.77,50.77,0,0,1,9.35.56,10.7,10.7,0,0,1,6,3.63,10.38,10.38,0,0,1,2.3,6.84,11,11,0,0,1-1.59,6,10,10,0,0,1-4.55,3.88,21,21,0,0,1-8.16,1.33l14.9,19.24H734L719.11,860h-2.35V879.2h-4.14Zm4.14,4.06v14.08l7.14.06a17.61,17.61,0,0,0,6.14-.8,6.41,6.41,0,0,0,3.1-2.51,7.06,7.06,0,0,0,1.12-3.88,6.69,6.69,0,0,0-1.13-3.78,6.3,6.3,0,0,0-3-2.44,17.93,17.93,0,0,0-6.09-.73Z"/><path class="cls-1" d="M787,837.77h8.17a19.3,19.3,0,0,1,7.57,1.17,9.28,9.28,0,0,1,4.19,3.59,9.87,9.87,0,0,1,1.54,5.38,9.74,9.74,0,0,1-1.35,5,9.93,9.93,0,0,1-4,3.67,15.34,15.34,0,0,1,5,2.58,10.48,10.48,0,0,1,2.71,3.57,10.88,10.88,0,0,1,1,4.56,11.18,11.18,0,0,1-3.66,8.43c-2.42,2.3-5.69,3.45-9.78,3.45H787Zm4.06,4.06v13.26h2.37a18.57,18.57,0,0,0,6.34-.8,6.83,6.83,0,0,0,3.22-2.54,6.56,6.56,0,0,0,1.19-3.84,5.43,5.43,0,0,0-2-4.46c-1.32-1.09-3.44-1.62-6.33-1.62Zm0,17.43v15.89h5.13a18.44,18.44,0,0,0,6.66-.89,7.59,7.59,0,0,0,3.4-2.78,7.26,7.26,0,0,0-.52-8.9,9.26,9.26,0,0,0-5-2.81,36,36,0,0,0-7.36-.51Z"/><path class="cls-1" d="M879.28,836.73A21.49,21.49,0,0,1,895,843a21.78,21.78,0,0,1-15.41,37.23,21.22,21.22,0,0,1-15.57-6.31,20.71,20.71,0,0,1-6.34-15.26,22.05,22.05,0,0,1,2.9-11.07,21,21,0,0,1,7.87-8A21.23,21.23,0,0,1,879.28,836.73Zm.18,4a17.08,17.08,0,0,0-8.72,2.4,17.3,17.3,0,0,0-6.43,6.45,18,18,0,0,0-2.31,9,17.41,17.41,0,0,0,17.46,17.57,17.76,17.76,0,0,0,8.92-2.34,16.77,16.77,0,0,0,6.41-6.4,18,18,0,0,0,2.3-9,17.6,17.6,0,0,0-2.3-8.93,17.16,17.16,0,0,0-6.47-6.38A17.53,17.53,0,0,0,879.46,840.75Z"/><path class="cls-1" d="M949.22,879.2V837.77h.91l27.57,31.76V837.77h4.08V879.2h-.93l-27.34-31.37V879.2Z"/><path class="cls-1" d="M1031.4,837.77h23.75v4.06h-19.61v13H1055v4.06h-19.44v16.28H1055v4.05H1031.4Z"/><path class="cls-1" d="M1101.81,837.77H1106V875.2h15.94v4h-20.09Z"/><path class="cls-1" d="M1168,837.77h4.15V875.2h15.94v4H1168Z"/><path class="cls-1" d="M1289.6,837.77h20.76v4.06h-16.61v13h16.61v4.06h-16.61V879.2h-4.15Z"/><path class="cls-1" d="M1357.12,837.77h23.74v4.06h-19.6v13h19.43v4.06h-19.43v16.28h19.43v4.05h-23.57Z"/><path class="cls-1" d="M1427.75,837.77H1436a50.77,50.77,0,0,1,9.35.56,10.68,10.68,0,0,1,6,3.63,10.33,10.33,0,0,1,2.31,6.84,11.08,11.08,0,0,1-1.59,6,10,10,0,0,1-4.55,3.88,21,21,0,0,1-8.16,1.33l14.89,19.24h-5.12L1434.24,860h-2.35V879.2h-4.14Zm4.14,4.06v14.08l7.14.06a17.61,17.61,0,0,0,6.14-.8,6.41,6.41,0,0,0,3.1-2.51,7.06,7.06,0,0,0,1.12-3.88,6.69,6.69,0,0,0-1.13-3.78,6.35,6.35,0,0,0-3-2.44,17.93,17.93,0,0,0-6.09-.73Z"/><path class="cls-1" d="M1502.07,879.2V837.77h.9l27.58,31.76V837.77h4.08V879.2h-.93l-27.34-31.37V879.2Z"/><path class="cls-1" d="M1601.16,837.77l19.32,41.43H1616l-6.52-13.63h-17.84l-6.46,13.63h-4.62l19.57-41.43Zm-.52,8.8-7.1,15h14.16Zm1.82-20.74h6l-8.31,8.67h-3.88Z"/><path class="cls-1" d="M1666.43,879.2V837.77h.91l27.57,31.76V837.77H1699V879.2h-.93l-27.34-31.37V879.2Z"/><path class="cls-1" d="M1748.59,879.2V837.77h8.6q9.29,0,13.48,1.49a18,18,0,0,1,9.43,7.33,22.25,22.25,0,0,1,3.39,12.42,21.81,21.81,0,0,1-2.69,11,17.32,17.32,0,0,1-7,7q-4.3,2.25-12,2.25Zm4-3.92h4.8q8.58,0,11.91-1.07a13.74,13.74,0,0,0,7.35-5.47,16.84,16.84,0,0,0,2.68-9.66,17.79,17.79,0,0,0-2.9-10.25,14.66,14.66,0,0,0-8.09-5.82q-3.88-1.18-12.82-1.18h-2.93Z"/><path class="cls-1" d="M1831.06,837.77h23.74v4.06h-19.6v13h19.44v4.06H1835.2v16.28h19.44v4.05h-23.58Z"/><path class="cls-1" d="M1899.86,841.77v-4h21.86l-17.31,37.38h16.43v4.05H1898l17.45-37.43Z"/><path class="cls-1" d="M855.76,276a21.1,21.1,0,0,1-21.21-21v-72.7a21.19,21.19,0,0,1,21.21-21.12h24.87v-14H855.76a35.18,35.18,0,0,0-35.19,35.1V255a35.09,35.09,0,0,0,35.19,35h164.4V276Zm266.32-21A21,21,0,0,1,1101,276h-24.87v14H1101a35.14,35.14,0,0,0,35.1-35V244.9h28V255A63.07,63.07,0,0,1,1101,318h-24.87v14H1101a77.11,77.11,0,0,0,77-77v-24.1h-55.92ZM1101,105.28H936.56v14H1101A63.08,63.08,0,0,1,1164,182.32v10.12h-28V182.32a35.23,35.23,0,0,0-35.1-35.1H936.56v14H1101a21.11,21.11,0,0,1,21.12,21.12v24.1H1178v-24.1A77.19,77.19,0,0,0,1101,105.28ZM792.6,255v-72.7a63.17,63.17,0,0,1,63.16-63.06h24.87v-14H855.76a77.22,77.22,0,0,0-77.14,77V255a77.14,77.14,0,0,0,77.14,77h164.4V318H855.76A63.15,63.15,0,0,1,792.6,255Zm63.16,21a21.1,21.1,0,0,1-21.21-21v-72.7a21.19,21.19,0,0,1,21.21-21.12h24.87v-14H855.76a35.18,35.18,0,0,0-35.19,35.1V255a35.09,35.09,0,0,0,35.19,35h164.4V276Z"/><path class="cls-1" d="M1076.07,96v9.26h-14V96A63.23,63.23,0,0,0,998.93,33H894.6V276h-14V19H998.93A77.16,77.16,0,0,1,1076.07,96Z"/><path class="cls-1" d="M1062.09,161.2h14V341.32a77.22,77.22,0,0,1-77.14,77H880.62V332h14v72.41H998.93a63.23,63.23,0,0,0,63.16-63.06Z"/><path class="cls-1" d="M1020.14,105.28V96A21.19,21.19,0,0,0,998.93,74.9H936.55V276h-14V60.92h76.37a35.19,35.19,0,0,1,35.2,35.1v9.26Z"/><path class="cls-1" d="M922.56,332h14v30.47h62.38a21.19,21.19,0,0,0,21.21-21.12V161.2h14V341.32a35.19,35.19,0,0,1-35.2,35.1H922.56Z"/></svg>