<svg id="Capa_1" data-name="Capa 1" xmlns="http://www.w3.org/2000/svg" viewBox="0 0 2465.08 420.63"><defs><style>.cls-1{fill:#fff;}</style></defs><path class="cls-1" d="M1327.39,155.56h-2.9l-56.16,118.86h13.25l24-50.58,2.38-5h35.89l2.36,5L1370,274.42h12.84Zm-14.05,51.78,12.56-26.53,12.49,26.53Z"/><path class="cls-1" d="M2392.57,155.56h-2.9l-56.16,118.86h13.25l23.95-50.58,2.38-5H2409l2.37,5,23.83,50.58H2448Zm-14.05,51.78,12.56-26.53,12.49,26.53Z"/><path class="cls-1" d="M541.18,274.13V155h24.7q26.73,0,38.79,4.3a51.91,51.91,0,0,1,27.1,21.06q9.76,15,9.76,35.71,0,17.91-7.73,31.51t-20.1,20.09q-12.35,6.48-34.62,6.48Zm11.42-11.26h13.77q24.69,0,34.25-3.07a39.49,39.49,0,0,0,21.14-15.75q7.69-11.37,7.69-27.8,0-17.24-8.33-29.45A42,42,0,0,0,597.87,170q-11.19-3.39-36.85-3.39H552.6Z"/><path class="cls-1" d="M804.29,152q27.08,0,45.3,18.07t18.24,44.46q0,26.18-18.19,44.39t-44.38,18.23q-26.5,0-44.74-18.15a59.62,59.62,0,0,1-18.23-43.9,63.54,63.54,0,0,1,8.3-31.83A61.39,61.39,0,0,1,804.29,152Zm.52,11.59a49,49,0,0,0-25.06,6.89A49.58,49.58,0,0,0,761.24,189a51.79,51.79,0,0,0-6.64,26q0,21.24,14.72,35.87a48.51,48.51,0,0,0,35.49,14.63,51,51,0,0,0,25.68-6.72,48.3,48.3,0,0,0,18.41-18.41,51.55,51.55,0,0,0,6.62-25.93,50.34,50.34,0,0,0-6.62-25.66,49.3,49.3,0,0,0-18.62-18.36A50.29,50.29,0,0,0,804.81,163.57Z"/><path class="cls-1" d="M975.31,155H999q19.85,0,26.9,1.63A30.7,30.7,0,0,1,1043.19,167q6.63,8,6.64,19.66a31.83,31.83,0,0,1-4.58,17.12A28.58,28.58,0,0,1,1032.17,215q-8.51,3.76-23.49,3.85l42.85,55.32h-14.74L994,218.81h-6.73v55.32H975.31Zm11.91,11.67v40.49l20.52.17q11.93,0,17.64-2.27a18.4,18.4,0,0,0,8.93-7.25,20.12,20.12,0,0,0,3.21-11.14,19.27,19.27,0,0,0-3.25-10.89,18.12,18.12,0,0,0-8.52-7q-5.26-2.1-17.53-2.1Z"/><path class="cls-1" d="M1156.58,155h11.91V274.13h-11.91Z"/><path class="cls-1" d="M1867.33,177.09l-9.4,7.22A51.15,51.15,0,0,0,1839.26,169a54.51,54.51,0,0,0-23.93-5.23,52.79,52.79,0,0,0-26.4,6.85A48.94,48.94,0,0,0,1770.1,189a50.81,50.81,0,0,0-6.69,26q0,21.79,14.94,36.37t37.71,14.57q25,0,41.87-19.6l9.4,7.13a60.06,60.06,0,0,1-22.23,17.54,69.81,69.81,0,0,1-29.77,6.2q-31.27,0-49.33-20.82-15.13-17.58-15.14-42.44,0-26.18,18.34-44t46-17.87a67.43,67.43,0,0,1,30.13,6.61A58.56,58.56,0,0,1,1867.33,177.09Z"/><path class="cls-1" d="M1974.57,155h11.9V226.9q0,12.81.49,16a26.55,26.55,0,0,0,4.13,11.78,24.41,24.41,0,0,0,10,7.94,31.24,31.24,0,0,0,13.53,3.19,26.62,26.62,0,0,0,11.34-2.51,25.23,25.23,0,0,0,9.07-7,28.34,28.34,0,0,0,5.34-10.78q1.22-4.53,1.22-18.63V155h11.91V226.9q0,16-3.12,25.81t-12.47,17.12q-9.36,7.29-22.64,7.3-14.42,0-24.71-6.89A33.21,33.21,0,0,1,1976.75,252q-2.18-7-2.18-25.12Z"/><path class="cls-1" d="M2166,155h23.49q14.17,0,21.78,3.36a26.81,26.81,0,0,1,12,10.33,28.34,28.34,0,0,1,4.41,15.47,27.81,27.81,0,0,1-3.87,14.46,28.74,28.74,0,0,1-11.36,10.57q9.28,3.15,14.29,7.41a29.48,29.48,0,0,1,7.79,10.29A30.77,30.77,0,0,1,2237.4,240a32.15,32.15,0,0,1-10.49,24.26q-10.48,9.92-28.15,9.92H2166Zm11.67,11.67V204.8h6.82q12.41,0,18.25-2.31a19.68,19.68,0,0,0,9.26-7.29,19.17,19.17,0,0,0,3.41-11.06q0-8.17-5.73-12.84t-18.22-4.65Zm0,50.13v45.69h14.76q13.07,0,19.15-2.56a21.83,21.83,0,0,0,9.78-8,20.82,20.82,0,0,0-1.5-25.59q-5.19-5.91-14.27-8.1-6.09-1.45-21.19-1.46Z"/><polygon class="cls-1" points="1565.77 154.98 1565.77 206.91 1496.77 154.98 1496.76 155.01 1484.46 155.01 1484.46 274.13 1496.78 274.13 1496.78 170.22 1565.77 220.91 1565.77 274.11 1578.06 274.11 1578.06 154.98 1565.77 154.98"/><path class="cls-1" d="M541.14,404.62V363.19h8.6q9.3,0,13.49,1.49a18,18,0,0,1,9.42,7.33A22.25,22.25,0,0,1,576,384.43a21.78,21.78,0,0,1-2.68,10.95,17.34,17.34,0,0,1-7,7q-4.29,2.25-12,2.25Zm4-3.92h4.79q8.6,0,11.91-1.06a13.8,13.8,0,0,0,7.36-5.48,16.83,16.83,0,0,0,2.67-9.66,17.79,17.79,0,0,0-2.9-10.25,14.63,14.63,0,0,0-8.09-5.82q-3.89-1.19-12.81-1.18h-2.93Z"/><path class="cls-1" d="M643.32,362.15a21.47,21.47,0,0,1,15.75,6.28,21.78,21.78,0,0,1-15.41,37.23,21.22,21.22,0,0,1-15.57-6.31,20.74,20.74,0,0,1-6.33-15.26A22,22,0,0,1,624.65,373a21.34,21.34,0,0,1,18.67-10.87Zm.18,4A17.65,17.65,0,0,0,628.35,375a18,18,0,0,0-2.31,9.05,17.41,17.41,0,0,0,17.46,17.56,17.7,17.7,0,0,0,8.93-2.34,16.68,16.68,0,0,0,6.4-6.4,18,18,0,0,0,2.31-9,17.57,17.57,0,0,0-2.31-8.92,17.19,17.19,0,0,0-6.47-6.39A17.59,17.59,0,0,0,643.5,366.18Z"/><path class="cls-1" d="M713.45,363.19h8.26a49.52,49.52,0,0,1,9.35.57,10.66,10.66,0,0,1,6,3.62,10.39,10.39,0,0,1,2.31,6.84,11,11,0,0,1-1.6,5.95,10,10,0,0,1-4.54,3.88,20.82,20.82,0,0,1-8.17,1.33L740,404.62h-5.12l-14.9-19.24H717.6v19.24h-4.15Zm4.15,4.06v14.08l7.13.06a17.86,17.86,0,0,0,6.14-.79,6.44,6.44,0,0,0,3.1-2.52,7.06,7.06,0,0,0,1.12-3.88,6.69,6.69,0,0,0-1.13-3.78,6.28,6.28,0,0,0-3-2.44,18,18,0,0,0-6.1-.73Z"/><path class="cls-1" d="M787.16,363.19h4.14v41.43h-4.14Z"/><path class="cls-1" d="M857.23,363.19l19.32,41.43h-4.47L865.56,391H847.72l-6.46,13.63h-4.61l19.56-41.43Zm-.52,8.8-7.1,15h14.16Z"/><path class="cls-1" d="M922.51,404.62V363.19h.91L951,395V363.19h4.08v41.43h-.93L926.8,373.25v31.37Z"/><path class="cls-1" d="M1098.74,370.88l-3.27,2.51a17.77,17.77,0,0,0-6.49-5.34,19,19,0,0,0-8.32-1.82,18.42,18.42,0,0,0-9.18,2.38,17.17,17.17,0,0,0-6.56,6.4,17.73,17.73,0,0,0-2.31,9,17,17,0,0,0,5.19,12.65,18,18,0,0,0,13.11,5.07,18.43,18.43,0,0,0,14.56-6.82l3.27,2.48a20.85,20.85,0,0,1-7.73,6.1,24.21,24.21,0,0,1-10.35,2.15q-10.87,0-17.16-7.23a21.86,21.86,0,0,1-5.26-14.76,20.56,20.56,0,0,1,6.37-15.31,22,22,0,0,1,16-6.21,23.44,23.44,0,0,1,10.48,2.29A20.32,20.32,0,0,1,1098.74,370.88Z"/><path class="cls-1" d="M1163.49,363.19l19.32,41.43h-4.48L1171.82,391H1154l-6.45,13.63h-4.62l19.57-41.43ZM1163,372l-7.1,15H1170Z"/><path class="cls-1" d="M1229,363.19h8.25a49.45,49.45,0,0,1,9.35.57,10.66,10.66,0,0,1,6,3.62,10.33,10.33,0,0,1,2.31,6.84,11.08,11.08,0,0,1-1.59,5.95,10,10,0,0,1-4.55,3.88,20.8,20.8,0,0,1-8.16,1.33l14.89,19.24h-5.12l-14.9-19.24h-2.34v19.24H1229Zm4.14,4.06v14.08l7.14.06a17.9,17.9,0,0,0,6.14-.79,6.46,6.46,0,0,0,3.09-2.52,7,7,0,0,0,1.12-3.88,6.61,6.61,0,0,0-1.13-3.78,6.28,6.28,0,0,0-3-2.44,18,18,0,0,0-6.09-.73Z"/><path class="cls-1" d="M1303.37,363.19h8.18a19.34,19.34,0,0,1,7.57,1.17,9.34,9.34,0,0,1,4.19,3.59,10,10,0,0,1,1.53,5.38,9.73,9.73,0,0,1-1.34,5,10,10,0,0,1-4,3.67,15.28,15.28,0,0,1,5,2.58,10.27,10.27,0,0,1,2.71,3.58,10.65,10.65,0,0,1,1,4.55,11.17,11.17,0,0,1-3.65,8.43c-2.43,2.3-5.7,3.45-9.78,3.45h-11.39Zm4.06,4.06v13.26h2.37a18.59,18.59,0,0,0,6.35-.8,6.83,6.83,0,0,0,3.22-2.54,6.63,6.63,0,0,0,1.19-3.84,5.45,5.45,0,0,0-2-4.46c-1.33-1.08-3.45-1.62-6.34-1.62Zm0,17.43v15.89h5.13a18.46,18.46,0,0,0,6.67-.89,7.75,7.75,0,0,0,3.4-2.77,7.17,7.17,0,0,0,1.28-4.09,7.07,7.07,0,0,0-1.81-4.82,9.26,9.26,0,0,0-5-2.81,36,36,0,0,0-7.36-.51Z"/><path class="cls-1" d="M1395.62,362.15a21.49,21.49,0,0,1,15.76,6.28A21.78,21.78,0,0,1,1396,405.66a21.19,21.19,0,0,1-15.56-6.31,20.71,20.71,0,0,1-6.34-15.26A22,22,0,0,1,1377,373a21,21,0,0,1,7.87-8A21.17,21.17,0,0,1,1395.62,362.15Zm.18,4a17.65,17.65,0,0,0-15.15,8.85,18,18,0,0,0-2.3,9.05,17.41,17.41,0,0,0,17.45,17.56,17.7,17.7,0,0,0,8.93-2.34,16.61,16.61,0,0,0,6.4-6.4,17.92,17.92,0,0,0,2.31-9,17.47,17.47,0,0,0-2.31-8.92,17.12,17.12,0,0,0-6.47-6.39A17.56,17.56,0,0,0,1395.8,366.18Z"/><path class="cls-1" d="M1465.57,404.62V363.19h.9L1494,395V363.19h4.09v41.43h-.93l-27.35-31.37v31.37Z"/><path class="cls-1" d="M1547.74,363.19h23.75v4.06h-19.6v13h19.43v4.06h-19.43v16.28h19.43v4.05h-23.58Z"/><path class="cls-1" d="M1618.16,363.19h4.14v37.43h15.94v4h-20.08Z"/><path class="cls-1" d="M1684.31,363.19h4.14v37.43h15.94v4h-20.08Z"/><path class="cls-1" d="M1806,363.19h20.76v4.06h-16.62v13h16.62v4.06h-16.62v20.33H1806Z"/><path class="cls-1" d="M1873.46,363.19h23.75v4.06h-19.6v13H1897v4.06h-19.43v16.28H1897v4.05h-23.58Z"/><path class="cls-1" d="M1944.09,363.19h8.26a49.52,49.52,0,0,1,9.35.57,10.66,10.66,0,0,1,6,3.62,10.33,10.33,0,0,1,2.31,6.84,11.08,11.08,0,0,1-1.59,5.95,10,10,0,0,1-4.55,3.88,20.8,20.8,0,0,1-8.16,1.33l14.89,19.24h-5.12l-14.9-19.24h-2.34v19.24h-4.15Zm4.15,4.06v14.08l7.14.06a17.94,17.94,0,0,0,6.14-.79,6.46,6.46,0,0,0,3.09-2.52,7,7,0,0,0,1.12-3.88,6.61,6.61,0,0,0-1.13-3.78,6.28,6.28,0,0,0-3-2.44,18,18,0,0,0-6.09-.73Z"/><path class="cls-1" d="M2018.42,404.62V363.19h.9L2046.89,395V363.19H2051v41.43h-.93l-27.35-31.37v31.37Z"/><path class="cls-1" d="M2117.51,363.19l19.32,41.43h-4.48L2125.84,391H2108l-6.45,13.63h-4.62l19.57-41.43ZM2117,372l-7.1,15h14.16Zm1.81-20.74h6.06l-8.32,8.67h-3.87Z"/><path class="cls-1" d="M2182.78,404.62V363.19h.9L2211.25,395V363.19h4.09v41.43h-.93l-27.35-31.37v31.37Z"/><path class="cls-1" d="M2264.94,404.62V363.19h8.59q9.3,0,13.49,1.49a18,18,0,0,1,9.42,7.33,22.25,22.25,0,0,1,3.39,12.42,21.78,21.78,0,0,1-2.68,10.95,17.34,17.34,0,0,1-7,7q-4.29,2.25-12,2.25Zm4-3.92h4.79q8.6,0,11.91-1.06a13.8,13.8,0,0,0,7.36-5.48,16.83,16.83,0,0,0,2.67-9.66,17.79,17.79,0,0,0-2.9-10.25,14.63,14.63,0,0,0-8.09-5.82q-3.89-1.19-12.81-1.18h-2.93Z"/><path class="cls-1" d="M2347.4,363.19h23.75v4.06h-19.6v13H2371v4.06h-19.43v16.28H2371v4.05H2347.4Z"/><path class="cls-1" d="M2416.21,367.19v-4h21.85l-17.3,37.38h16.43v4.05h-22.84l17.46-37.43Z"/><path class="cls-1" d="M92.7,269.16a20.1,20.1,0,0,1-20.2-20V180a20.17,20.17,0,0,1,20.2-20.1h23.67V146.55H92.7A33.49,33.49,0,0,0,59.2,180v69.19a33.41,33.41,0,0,0,33.5,33.32H249.17V269.16Zm253.48-20a20,20,0,0,1-20.1,20H302.4v13.31h23.68a33.46,33.46,0,0,0,33.41-33.32v-9.63H386.1v9.63a60,60,0,0,1-60,59.93H302.4v13.31h23.68a73.4,73.4,0,0,0,73.33-73.24V226.21H346.18Zm-20.1-142.52H169.6v13.31H326.08a60,60,0,0,1,60,60v9.63H359.49V180a33.53,33.53,0,0,0-33.41-33.41H169.6v13.31H326.08a20.09,20.09,0,0,1,20.1,20.1V202.9h53.23V180A73.48,73.48,0,0,0,326.08,106.63ZM32.58,249.15V180a60.13,60.13,0,0,1,60.12-60h23.67V106.63H92.7A73.49,73.49,0,0,0,19.28,180v69.19A73.41,73.41,0,0,0,92.7,322.39H249.17V309.08H92.7A60.11,60.11,0,0,1,32.58,249.15Zm60.12,20a20.1,20.1,0,0,1-20.2-20V180a20.17,20.17,0,0,1,20.2-20.1h23.67V146.55H92.7A33.49,33.49,0,0,0,59.2,180v69.19a33.41,33.41,0,0,0,33.5,33.32H249.17V269.16Z"/><path class="cls-1" d="M302.39,97.82v8.81H289.08V97.82A60.18,60.18,0,0,0,229,37.8h-99.3V269.16H116.36V24.49H229A73.44,73.44,0,0,1,302.39,97.82Z"/><path class="cls-1" d="M289.08,159.86h13.31V331.29A73.5,73.5,0,0,1,229,404.62H116.36V322.39h13.31v68.92H229a60.18,60.18,0,0,0,60.11-60Z"/><path class="cls-1" d="M249.16,106.63V97.82A20.17,20.17,0,0,0,229,77.72H169.59V269.16H156.28V64.41H229a33.5,33.5,0,0,1,33.5,33.41v8.81Z"/><path class="cls-1" d="M156.28,322.39h13.31v29H229a20.17,20.17,0,0,0,20.19-20.1V159.86h13.31V331.29A33.5,33.5,0,0,1,229,364.7H156.28Z"/></svg>