<svg width="132" height="213" viewBox="0 0 132 213" fill="none" xmlns="http://www.w3.org/2000/svg">
<path d="M1.96 154.147V152.922L2.94 152.824C4.08333 152.693 4.949 152.53 5.537 152.334C6.15767 152.105 6.58233 151.648 6.811 150.962C7.03967 150.243 7.154 149.084 7.154 147.483V125.727C7.154 124.094 7.03967 122.934 6.811 122.248C6.58233 121.562 6.15767 121.121 5.537 120.925C4.949 120.696 4.08333 120.517 2.94 120.386L1.96 120.288V119.063L9.212 119.21H9.261L16.513 119.063V120.288L15.533 120.386C14.4223 120.517 13.5567 120.696 12.936 120.925C12.3153 121.121 11.8907 121.562 11.662 122.248C11.4333 122.934 11.319 124.094 11.319 125.727V135.184H29.988V125.727C29.988 124.094 29.8737 122.934 29.645 122.248C29.4163 121.562 28.9917 121.121 28.371 120.925C27.783 120.696 26.9173 120.517 25.774 120.386L24.794 120.288V119.063L32.046 119.21H32.095L39.347 119.063V120.288L38.367 120.386C37.2563 120.517 36.3907 120.696 35.77 120.925C35.1493 121.121 34.7247 121.562 34.496 122.248C34.2673 122.934 34.153 124.094 34.153 125.727V147.483C34.153 149.084 34.2673 150.243 34.496 150.962C34.7247 151.648 35.1493 152.105 35.77 152.334C36.3907 152.53 37.2563 152.693 38.367 152.824L39.347 152.922V154.147L32.095 154H32.046L24.794 154.147V152.922L25.774 152.824C26.9173 152.693 27.783 152.53 28.371 152.334C28.9917 152.105 29.4163 151.648 29.645 150.962C29.8737 150.243 29.988 149.084 29.988 147.483V136.752H11.319V147.483C11.319 149.084 11.4333 150.243 11.662 150.962C11.8907 151.648 12.3153 152.105 12.936 152.334C13.5567 152.53 14.4223 152.693 15.533 152.824L16.513 152.922V154.147L9.261 154H9.212L1.96 154.147ZM53.0789 154.539C50.9882 154.539 49.0772 154.033 47.3459 153.02C45.6472 152.007 44.2915 150.652 43.2789 148.953C42.2989 147.222 41.8089 145.311 41.8089 143.22C41.8089 141.064 42.2989 139.12 43.2789 137.389C44.2915 135.658 45.6472 134.286 47.3459 133.273C49.0772 132.26 50.9882 131.754 53.0789 131.754C55.2022 131.754 57.1132 132.26 58.8119 133.273C60.5105 134.286 61.8499 135.658 62.8299 137.389C63.8425 139.12 64.3489 141.064 64.3489 143.22C64.3489 145.311 63.8425 147.222 62.8299 148.953C61.8499 150.652 60.5105 152.007 58.8119 153.02C57.1132 154.033 55.2022 154.539 53.0789 154.539ZM53.0789 153.314C54.8429 153.314 56.2639 152.873 57.3419 151.991C58.4199 151.076 59.2039 149.868 59.6939 148.365C60.1839 146.83 60.4289 145.115 60.4289 143.22C60.4289 141.26 60.1839 139.512 59.6939 137.977C59.2039 136.442 58.4199 135.233 57.3419 134.351C56.2639 133.436 54.8429 132.979 53.0789 132.979C51.3149 132.979 49.8939 133.436 48.8159 134.351C47.7379 135.233 46.9539 136.442 46.4639 137.977C45.9739 139.512 45.7289 141.26 45.7289 143.22C45.7289 145.115 45.9739 146.83 46.4639 148.365C46.9539 149.868 47.7379 151.076 48.8159 151.991C49.8939 152.873 51.3149 153.314 53.0789 153.314ZM67.1813 154.147V153.02L67.9653 152.922C68.9126 152.791 69.6313 152.644 70.1213 152.481C70.644 152.285 71.0033 151.877 71.1993 151.256C71.3953 150.603 71.4933 149.541 71.4933 148.071V137.732C71.4933 136.556 71.3136 135.69 70.9543 135.135C70.6276 134.547 70.1376 134.171 69.4843 134.008C68.831 133.845 68.0633 133.763 67.1813 133.763V132.636C68.5206 132.636 69.811 132.603 71.0523 132.538C72.2936 132.44 73.584 132.277 74.9233 132.048V135.87C75.642 134.759 76.6383 133.796 77.9123 132.979C79.219 132.162 80.7216 131.754 82.4203 131.754C84.1516 131.754 85.589 132.13 86.7323 132.881C87.9083 133.6 88.6923 134.743 89.0843 136.311C89.7703 135.135 90.783 134.09 92.1223 133.175C93.4616 132.228 95.046 131.754 96.8753 131.754C98.9986 131.754 100.681 132.309 101.922 133.42C103.196 134.531 103.833 136.295 103.833 138.712V148.071C103.833 149.508 103.915 150.554 104.078 151.207C104.274 151.828 104.617 152.236 105.107 152.432C105.63 152.628 106.365 152.791 107.312 152.922L108.096 153.02V154.147L102.118 154L96.5813 154.147V153.02L97.3653 152.922C98.182 152.824 98.8026 152.677 99.2273 152.481C99.6846 152.285 99.995 151.877 100.158 151.256C100.322 150.603 100.403 149.541 100.403 148.071V137.879C100.403 136.442 100.011 135.315 99.2273 134.498C98.4433 133.649 97.3326 133.224 95.8953 133.224C94.7193 133.224 93.6903 133.485 92.8083 134.008C91.9263 134.531 91.1913 135.184 90.6033 135.968C90.048 136.752 89.6396 137.52 89.3783 138.271C89.3783 138.402 89.3783 138.549 89.3783 138.712V148.071C89.3783 149.541 89.46 150.603 89.6233 151.256C89.7866 151.877 90.0806 152.285 90.5053 152.481C90.9626 152.644 91.5996 152.791 92.4163 152.922L93.2003 153.02V154.147L87.6633 154L82.1263 154.147V153.02L82.9103 152.922C83.727 152.791 84.3476 152.644 84.7723 152.481C85.2296 152.285 85.54 151.877 85.7033 151.256C85.8666 150.603 85.9483 149.541 85.9483 148.071V137.879C85.9483 136.442 85.5563 135.315 84.7723 134.498C83.9883 133.649 82.8776 133.224 81.4403 133.224C80.297 133.224 79.2843 133.485 78.4023 134.008C77.5203 134.531 76.7853 135.184 76.1973 135.968C75.6093 136.752 75.1846 137.52 74.9233 138.271V148.071C74.9233 149.541 75.005 150.603 75.1683 151.256C75.3316 151.877 75.6256 152.285 76.0503 152.481C76.5076 152.644 77.1446 152.791 77.9613 152.922L78.7453 153.02V154.147L73.2083 154L67.1813 154.147ZM120.837 154.539C118.681 154.539 116.803 154.082 115.202 153.167C113.602 152.22 112.344 150.929 111.429 149.296C110.547 147.63 110.106 145.735 110.106 143.612C110.106 141.325 110.596 139.3 111.576 137.536C112.556 135.739 113.863 134.335 115.496 133.322C117.162 132.277 118.992 131.754 120.984 131.754C123.5 131.754 125.46 132.554 126.864 134.155C128.302 135.756 129.02 137.863 129.02 140.476C129.02 140.868 129.004 141.195 128.971 141.456C128.939 141.717 128.906 141.897 128.873 141.995H114.075C114.043 142.452 114.026 142.91 114.026 143.367C114.026 145.098 114.304 146.715 114.859 148.218C115.415 149.688 116.248 150.864 117.358 151.746C118.502 152.628 119.89 153.069 121.523 153.069C123.059 153.069 124.414 152.644 125.59 151.795C126.799 150.913 127.73 149.623 128.383 147.924L129.559 148.365C128.187 152.481 125.28 154.539 120.837 154.539ZM120.984 132.979C118.959 132.979 117.375 133.698 116.231 135.135C115.121 136.572 114.435 138.483 114.173 140.868H120.396C121.866 140.868 122.977 140.705 123.728 140.378C124.512 140.019 125.035 139.594 125.296 139.104C125.59 138.581 125.737 138.075 125.737 137.585C125.737 136.148 125.247 135.021 124.267 134.204C123.287 133.387 122.193 132.979 120.984 132.979Z" fill="white"/>
<path d="M42.212 200.862C41.648 200.862 41.1623 200.674 40.755 200.298C40.379 199.922 40.191 199.342 40.191 198.559C40.191 197.4 40.5983 195.786 41.413 193.718C42.2277 191.619 43.199 189.269 44.327 186.668C43.7003 187.702 42.9327 188.814 42.024 190.005C41.1467 191.164 40.191 192.151 39.157 192.966C38.123 193.781 37.0577 194.188 35.961 194.188C34.9897 194.188 34.3003 193.953 33.893 193.483C33.4857 192.982 33.282 192.355 33.282 191.603C33.282 191.133 33.376 190.538 33.564 189.817C33.7833 189.096 34.034 188.391 34.316 187.702C34.598 187.013 34.8643 186.48 35.115 186.104C35.8983 184.819 36.8697 183.566 38.029 182.344C39.2197 181.122 40.4573 180.119 41.742 179.336C43.058 178.521 44.327 178.114 45.549 178.114C46.3323 178.114 47.1313 178.302 47.946 178.678C48.6667 177.174 49.3873 175.748 50.108 174.401C50.86 173.054 51.5493 171.879 52.176 170.876C53.21 169.121 54.15 167.774 54.996 166.834C55.8733 165.894 56.7193 165.22 57.534 164.813C58.38 164.406 59.2573 164.139 60.166 164.014C58.0667 166.677 56.1867 169.309 54.526 171.91C52.8967 174.479 51.3143 177.252 49.779 180.229C49.8417 180.417 49.873 180.558 49.873 180.652C49.873 180.871 49.7947 181.044 49.638 181.169C49.5127 181.294 49.3717 181.357 49.215 181.357C48.8703 181.984 48.4473 182.83 47.946 183.895C47.4447 184.96 46.912 186.135 46.348 187.42C45.784 188.673 45.2357 189.958 44.703 191.274C44.1703 192.59 43.7317 193.828 43.387 194.987C42.917 196.428 42.682 197.447 42.682 198.042C42.682 198.355 42.776 198.512 42.964 198.512C43.3713 198.512 44.092 197.948 45.126 196.82L47.335 194.47L48.839 192.825L52.317 188.783C52.6303 188.438 52.9437 188.078 53.257 187.702C53.5703 187.326 53.868 186.966 54.15 186.621C54.244 186.527 54.338 186.48 54.432 186.48C54.62 186.48 54.714 186.59 54.714 186.809C54.714 186.934 54.6357 187.107 54.479 187.326C54.1657 187.765 53.8053 188.219 53.398 188.689C53.022 189.159 52.6617 189.598 52.317 190.005C52.223 190.099 51.9567 190.412 51.518 190.945C51.1107 191.478 50.5937 192.136 49.967 192.919C49.3717 193.671 48.7607 194.454 48.134 195.269C47.5073 196.084 46.9277 196.836 46.395 197.525C45.8623 198.246 45.455 198.794 45.173 199.17C44.7657 199.703 44.2957 200.11 43.763 200.392C43.2303 200.705 42.7133 200.862 42.212 200.862ZM36.29 193.06C36.8227 193.06 37.606 192.653 38.64 191.838C39.298 191.337 40.0343 190.647 40.849 189.77C41.695 188.893 42.494 188.031 43.246 187.185C43.998 186.308 44.5463 185.634 44.891 185.164C45.267 184.255 45.6743 183.315 46.113 182.344C46.583 181.373 47.0687 180.386 47.57 179.383C47.3193 179.258 47.0373 179.195 46.724 179.195C45.878 179.195 44.9223 179.571 43.857 180.323C42.823 181.075 41.883 181.905 41.037 182.814C39.9403 183.942 38.9533 185.164 38.076 186.48C37.23 187.765 36.5877 188.94 36.149 190.005C35.773 190.882 35.585 191.603 35.585 192.167C35.585 192.762 35.82 193.06 36.29 193.06ZM55.6602 200.768C54.4382 200.768 53.4982 200.267 52.8402 199.264C52.1822 198.293 51.8532 196.898 51.8532 195.081C51.8532 194.768 51.8689 194.454 51.9002 194.141C51.9002 193.828 51.9159 193.499 51.9472 193.154C52.1352 191.619 52.6052 189.942 53.3572 188.125C54.1406 186.308 55.3312 184.365 56.9292 182.297C57.9946 180.918 59.1539 179.884 60.4072 179.195C61.6606 178.506 62.8669 178.161 64.0262 178.161C64.8409 178.161 65.5616 178.318 66.1882 178.631C66.9402 179.038 67.3162 179.775 67.3162 180.84C67.3162 181.623 67.0342 182.501 66.4702 183.472C65.9062 184.412 64.9506 185.321 63.6032 186.198C61.8172 187.326 60.3289 188.078 59.1382 188.454C57.9476 188.83 56.9919 189.034 56.2712 189.065C56.0206 189.41 55.7699 189.958 55.5192 190.71C55.2686 191.431 55.0492 192.198 54.8612 193.013C54.7046 193.796 54.5949 194.501 54.5322 195.128C54.5322 195.253 54.5166 195.379 54.4852 195.504C54.4852 195.661 54.4852 195.817 54.4852 195.974C54.4852 196.914 54.6419 197.713 54.9552 198.371C55.2999 199.06 55.8952 199.405 56.7412 199.405C57.4932 199.405 58.3392 199.123 59.2792 198.559C60.2192 198.026 61.1436 197.368 62.0522 196.585C62.9922 195.833 63.8069 195.097 64.4962 194.376C65.2169 193.687 65.7182 193.17 66.0002 192.825L69.4782 188.783L71.3582 186.621C71.4522 186.527 71.5306 186.48 71.5932 186.48C71.7812 186.48 71.8752 186.605 71.8752 186.856C71.8752 186.95 71.7969 187.107 71.6402 187.326C71.3269 187.765 70.9666 188.219 70.5592 188.689C70.1832 189.159 69.8229 189.598 69.4782 190.005C69.0396 190.506 68.4912 191.149 67.8332 191.932C67.2066 192.715 66.5329 193.53 65.8122 194.376C65.1229 195.222 64.4492 195.958 63.7912 196.585C62.6006 197.744 61.3159 198.731 59.9372 199.546C58.5899 200.361 57.1642 200.768 55.6602 200.768ZM56.6942 188.313C57.1329 188.282 57.6812 188.109 58.3392 187.796C58.9972 187.483 59.6866 187.107 60.4072 186.668C61.1279 186.229 61.7859 185.791 62.3812 185.352C63.0079 184.882 63.5092 184.49 63.8852 184.177C64.6059 183.613 65.1386 182.986 65.4832 182.297C65.8279 181.608 66.0002 181.012 66.0002 180.511C66.0002 180.166 65.9062 179.869 65.7182 179.618C65.5616 179.367 65.3109 179.242 64.9662 179.242C64.3082 179.242 63.5876 179.571 62.8042 180.229C62.0522 180.856 61.2846 181.67 60.5012 182.673C59.7492 183.644 59.0286 184.647 58.3392 185.681C57.6812 186.684 57.1329 187.561 56.6942 188.313ZM70.2413 202.272C69.6459 202.272 69.1289 202.021 68.6903 201.52C68.2516 201.019 68.0323 200.235 68.0323 199.17C68.0323 198.575 68.0949 197.964 68.2203 197.337C68.7529 194.392 69.5833 191.29 70.7113 188.031C71.8393 184.772 73.2493 181.545 74.9413 178.349C72.9673 179.007 71.3379 179.336 70.0533 179.336C69.4579 179.336 69.0193 179.289 68.7373 179.195C68.4553 179.07 68.3143 178.944 68.3143 178.819C68.3143 178.631 68.6119 178.553 69.2073 178.584C69.3326 178.615 69.4423 178.631 69.5363 178.631C69.6616 178.631 69.7869 178.631 69.9123 178.631C70.6643 178.631 71.5103 178.521 72.4503 178.302C73.3903 178.051 74.3929 177.722 75.4583 177.315C77.1503 174.213 79.0146 171.283 81.0513 168.526C83.1193 165.737 85.3283 163.262 87.6783 161.1C88.4929 160.379 89.3233 159.815 90.1693 159.408C91.0466 158.969 91.8456 158.75 92.5663 158.75C93.1929 158.75 93.7256 158.922 94.1643 159.267C94.6029 159.612 94.9006 160.191 95.0573 161.006C95.0886 161.131 95.1043 161.272 95.1043 161.429C95.1356 161.586 95.1513 161.742 95.1513 161.899C95.1513 162.494 95.0259 163.137 94.7753 163.826C93.9919 165.8 92.4096 167.79 90.0283 169.795C88.8689 170.798 87.6313 171.738 86.3153 172.615C84.9993 173.492 83.6206 174.323 82.1793 175.106C80.7379 175.889 79.3436 176.563 77.9963 177.127C76.9623 178.913 76.0066 180.73 75.1293 182.579C74.2519 184.428 73.4999 186.245 72.8733 188.031C72.2153 189.848 71.6983 191.603 71.3223 193.295C70.9463 194.956 70.7426 196.522 70.7113 197.995C70.7113 199.374 71.0559 200.063 71.7453 200.063C72.1526 200.063 72.6696 199.906 73.2963 199.593C74.2676 199.029 75.0979 198.449 75.7873 197.854C76.4766 197.259 77.1816 196.554 77.9023 195.739C78.2469 195.332 78.7326 194.736 79.3593 193.953C80.0173 193.138 80.7223 192.277 81.4743 191.368C82.2263 190.428 82.9469 189.566 83.6363 188.783C84.2629 188.031 84.8896 187.31 85.5163 186.621C85.6103 186.527 85.6886 186.48 85.7513 186.48C85.9393 186.48 86.0333 186.605 86.0333 186.856C86.0333 187.013 85.9706 187.169 85.8453 187.326C85.5006 187.765 85.1246 188.219 84.7173 188.689C84.3413 189.159 83.9809 189.598 83.6363 190.005C83.4483 190.193 83.1036 190.6 82.6023 191.227C82.1009 191.822 81.5056 192.543 80.8163 193.389C80.1269 194.204 79.4219 195.034 78.7013 195.88C77.9806 196.757 77.3069 197.556 76.6803 198.277C76.0849 198.998 75.5993 199.546 75.2233 199.922C74.5339 200.58 73.7819 201.128 72.9673 201.567C72.1839 202.037 71.2753 202.272 70.2413 202.272ZM78.7483 175.858C80.2836 175.106 81.8503 174.213 83.4483 173.179C85.0463 172.114 86.5659 170.986 88.0073 169.795C89.4486 168.573 90.6863 167.335 91.7203 166.082C92.7543 164.829 93.4749 163.607 93.8823 162.416C94.0076 162.04 94.0703 161.664 94.0703 161.288C94.0703 160.317 93.6786 159.831 92.8953 159.831C92.3939 159.831 91.8769 160.05 91.3443 160.489C89.2449 162.15 87.0986 164.327 84.9053 167.022C82.7119 169.717 80.6596 172.662 78.7483 175.858ZM94.624 173.461C93.8093 173.461 93.402 173.069 93.402 172.286C93.402 171.816 93.5743 171.424 93.919 171.111C94.2636 170.766 94.6396 170.594 95.047 170.594C95.4543 170.594 95.7676 170.735 95.987 171.017C96.2376 171.299 96.3316 171.644 96.269 172.051C96.175 172.458 95.9713 172.803 95.658 173.085C95.376 173.336 95.0313 173.461 94.624 173.461ZM87.01 194C85.3806 194 84.566 192.982 84.566 190.945C84.566 190.506 84.613 190.005 84.707 189.441C84.8323 188.783 85.0673 188 85.412 187.091C85.788 186.151 86.1953 185.227 86.634 184.318C87.104 183.378 87.527 182.579 87.903 181.921C88.2163 181.42 88.5766 180.824 88.984 180.135C89.3913 179.446 89.783 178.803 90.159 178.208C90.535 177.613 90.77 177.221 90.864 177.033C91.052 176.626 91.428 176.312 91.992 176.093C92.556 175.842 93.0573 175.717 93.496 175.717C93.9973 175.717 94.248 175.858 94.248 176.14C94.248 176.328 94.1853 176.5 94.06 176.657C93.4646 177.628 92.7596 178.756 91.945 180.041C91.1616 181.326 90.394 182.642 89.642 183.989C88.89 185.336 88.2633 186.621 87.762 187.843C87.2606 189.065 87.01 190.115 87.01 190.992C87.01 191.462 87.0883 191.838 87.245 192.12C87.433 192.402 87.762 192.543 88.232 192.543C88.7333 192.543 89.2973 192.308 89.924 191.838C90.582 191.337 91.2086 190.788 91.804 190.193C92.4306 189.566 92.9006 189.081 93.214 188.736L94.154 187.749C94.3106 187.592 94.4516 187.436 94.577 187.279C94.7023 187.091 94.8276 186.919 94.953 186.762C95.047 186.668 95.1253 186.621 95.188 186.621C95.376 186.621 95.47 186.762 95.47 187.044C95.47 187.201 95.4073 187.342 95.282 187.467C94.9373 187.906 94.5926 188.329 94.248 188.736C93.9033 189.143 93.543 189.551 93.167 189.958C92.3836 190.898 91.475 191.807 90.441 192.684C89.407 193.561 88.2633 194 87.01 194Z" fill="white"/>
<g clip-path="url(#clip0_1108_6587)">
<path d="M66.2728 21.2977C65.9073 21.3404 61.632 21.9677 59.9906 25.6858C59.2628 27.3363 59.2415 29.2578 59.8749 30.9417C60.5509 32.7353 61.8817 33.7707 63.4347 34.7847C64.3756 35.3968 65.28 36.1489 65.6272 37.2543C65.9896 38.4115 65.7551 39.7483 65.1247 40.7745C64.7715 41.3531 64.0102 42.361 63.2946 42.559C65.3318 41.9956 67.0858 40.3969 67.7679 38.3902C68.5566 36.0759 67.5883 33.9656 65.7003 32.5526C63.9828 31.2706 62.2044 30.0769 62.2745 27.6834C62.3171 26.1213 63.0449 24.5987 63.9767 23.3745C64.3452 22.8904 64.7715 22.4488 65.2344 22.056C65.4627 21.8641 65.9622 21.3434 66.2728 21.2977ZM73.0665 45.796C72.0372 46.1096 70.2223 46.81 68.4531 48.3904C66.5864 50.0561 65.6759 51.8923 65.2648 52.8972C64.7441 52.3522 64.199 51.9106 63.657 51.5513C57.6184 47.5561 48.7236 51.9959 47.1766 52.7937C52.46 54.7791 54.3297 56.7159 55.3437 57.9583C56.2268 59.0332 57.454 61.0369 58.8061 62.6813C58.94 62.8457 59.0679 62.9706 59.1502 63.0589C62.9931 62.124 80.3474 58.0557 82.4486 62.59C82.6404 63.0071 82.7166 63.5218 82.6039 64.1704C84.2665 63.5705 85.9292 62.9676 87.5949 62.3646C88.5967 62.0022 89.4159 61.2684 89.897 60.3183C90.3172 59.4839 90.8836 58.5612 91.648 57.6416C94.0476 54.7456 96.98 53.552 98.4112 53.08C97.8205 52.5927 92.2144 48.1042 86.0845 50.0774C84.233 50.6743 82.8505 51.6944 81.9035 52.5866C81.3767 51.5726 80.3657 49.9404 78.566 48.4635C76.4192 46.7065 74.2328 46.0548 73.0665 45.796ZM66.763 10.8651C92.5524 11.0082 113.476 32.3547 113.128 58.141C112.784 83.6015 92.0378 104.132 66.4981 104.132C44.4939 104.132 26.0464 88.8909 21.1406 68.391C22.7454 70.0384 24.4507 71.8046 26.7528 73.0744C38.6959 79.655 52.3077 73.927 55.0148 72.7242L57.1586 71.8533C60.0485 70.6809 63.2916 70.5987 66.1875 71.7528C68.2277 72.5659 70.402 72.983 72.5975 72.983C74.0622 72.983 75.5178 72.7973 76.9369 72.4319L79.5283 71.7589C80.2469 71.5731 80.9534 71.3417 81.6447 71.0646L88.9896 68.1108C90.1315 67.651 90.7466 66.3538 90.2837 65.2149C89.8087 64.0547 88.5054 63.537 87.3878 64.0029L80.2043 66.9963H73.0269V65.1174H79.2085C79.915 65.1174 80.5454 64.5998 80.6124 63.8963C80.6915 63.0894 80.0581 62.4103 79.2664 62.4103H75.0367C71.7449 62.4103 68.4592 62.73 65.2283 63.3665L65.1156 63.3878C62.0156 63.9999 58.9827 64.9043 56.0502 66.0736C43.1905 71.2016 30.2091 67.7484 24.7948 59.3712C22.651 56.0551 22.0511 52.0842 22.0998 48.5305C22.1699 43.3203 23.6955 38.2349 26.3539 33.7494C31.9448 24.3216 40.7636 17.0284 51.2876 13.4017C56.1355 11.7299 61.3427 10.8346 66.763 10.8651ZM79.0806 39.456C79.9059 37.7355 78.8918 36.1642 76.9125 35.1136C75.1128 34.1574 73.2492 33.2713 73.3223 31.4899C73.368 30.3297 74.1292 29.1938 75.1067 28.2833C75.4935 27.924 75.9381 27.5951 76.4253 27.3028C76.6689 27.1566 77.2018 26.7638 77.5307 26.7364C77.2931 26.7547 72.6797 27.1871 70.9288 30.0038C70.1645 31.231 70.1431 32.6622 70.807 33.9138C71.5165 35.2506 72.9112 36.021 74.5403 36.7732C75.5239 37.23 76.474 37.7903 76.8364 38.6125C77.214 39.4742 76.9704 40.467 76.3096 41.2313C75.9381 41.6607 75.1402 42.4098 74.3911 42.559C76.5258 42.1387 78.365 40.9481 79.0806 39.456Z" fill="white"/>
<path d="M66.4996 0.0761108C98.1631 0.0761108 123.922 25.835 123.922 57.4985C123.922 89.1619 98.1631 114.921 66.4996 114.921C34.8362 114.921 9.07422 89.1619 9.07422 57.4985C9.07422 25.835 34.8362 0.0761108 66.4996 0.0761108ZM119.659 57.4985C119.659 28.1859 95.8122 4.33932 66.4996 4.33932C37.187 4.33932 13.3374 28.1859 13.3374 57.4985C13.3374 86.8111 37.187 110.658 66.4996 110.658C95.8122 110.658 119.659 86.8111 119.659 57.4985Z" fill="white"/>
</g>
<defs>
<clipPath id="clip0_1108_6587">
<rect width="115" height="115" fill="white" transform="translate(9)"/>
</clipPath>
</defs>
</svg>
