<svg width="395" height="161" viewBox="0 0 395 161" fill="none" xmlns="http://www.w3.org/2000/svg">
<mask id="path-1-inside-1_906_6904" fill="white">
<path d="M362.307 71.35C347.247 72 331.757 84 331.657 100.22C331.557 117.51 348.957 129.38 363.447 129.43C377.297 129.43 387.527 118.72 388.927 117.13C389.455 116.531 389.918 115.877 390.307 115.18C391.193 113.638 391.735 111.923 391.896 110.151C392.056 108.38 391.831 106.595 391.237 104.919C390.642 103.243 389.691 101.716 388.45 100.442C387.209 99.1681 385.707 98.1782 384.047 97.54L393.587 91.61C393.207 90.61 392.817 89.68 392.437 88.71C385.937 77.59 374.317 70.85 362.307 71.35ZM355.837 111L364.267 107.23C364.163 108.063 364.163 108.907 364.267 109.74C364.38 110.875 364.681 111.983 365.157 113.02C363.574 113.543 361.879 113.634 360.249 113.282C358.619 112.931 357.113 112.15 355.887 111.02L355.837 111Z"/>
</mask>
<path d="M331.657 100.22L330.657 100.214L330.657 100.214L331.657 100.22ZM363.447 129.43L363.443 130.43H363.447V129.43ZM388.927 117.13L388.177 116.468L388.176 116.469L388.927 117.13ZM390.307 115.18L389.44 114.682L389.433 114.693L390.307 115.18ZM384.047 97.54L383.519 96.6907L381.811 97.752L383.688 98.4734L384.047 97.54ZM393.587 91.61L394.115 92.4593L394.814 92.0246L394.521 91.2548L393.587 91.61ZM392.437 88.71L393.368 88.3452L393.339 88.2726L393.3 88.2053L392.437 88.71ZM355.837 111L355.428 110.087L353.272 111.052L355.465 111.929L355.837 111ZM364.267 107.23L365.259 107.354L365.479 105.592L363.858 106.317L364.267 107.23ZM364.267 109.74L365.262 109.641L365.26 109.628L365.259 109.616L364.267 109.74ZM365.157 113.02L365.471 113.969L366.532 113.618L366.065 112.603L365.157 113.02ZM355.887 111.02L356.564 110.284L356.429 110.16L356.258 110.091L355.887 111.02ZM362.264 70.3509C346.822 71.0174 330.761 83.3215 330.657 100.214L332.657 100.226C332.753 84.6785 347.671 72.9826 362.35 72.3491L362.264 70.3509ZM330.657 100.214C330.605 109.221 335.115 116.776 341.439 122.058C347.753 127.33 355.947 130.404 363.443 130.43L363.45 128.43C356.456 128.406 348.705 125.52 342.721 120.522C336.748 115.534 332.609 108.509 332.657 100.226L330.657 100.214ZM363.447 130.43C370.629 130.43 376.837 127.655 381.397 124.717C385.959 121.778 388.934 118.634 389.677 117.791L388.176 116.469C387.519 117.216 384.68 120.222 380.314 123.036C375.946 125.85 370.114 128.43 363.447 128.43V130.43ZM389.676 117.792C390.252 117.139 390.756 116.427 391.18 115.667L389.433 114.693C389.079 115.328 388.658 115.923 388.177 116.468L389.676 117.792ZM391.174 115.678C392.132 114.011 392.718 112.157 392.892 110.242L390.9 110.061C390.752 111.689 390.254 113.265 389.44 114.682L391.174 115.678ZM392.892 110.242C393.065 108.327 392.822 106.397 392.179 104.585L390.294 105.254C390.841 106.794 391.047 108.434 390.9 110.061L392.892 110.242ZM392.179 104.585C391.536 102.773 390.508 101.121 389.166 99.7441L387.734 101.14C388.874 102.31 389.748 103.714 390.294 105.254L392.179 104.585ZM389.166 99.7441C387.824 98.3669 386.2 97.2965 384.405 96.6066L383.688 98.4734C385.213 99.0598 386.593 99.9694 387.734 101.14L389.166 99.7441ZM384.575 98.3893L394.115 92.4593L393.059 90.7607L383.519 96.6907L384.575 98.3893ZM394.521 91.2548C394.143 90.2581 393.733 89.277 393.368 88.3452L391.506 89.0748C391.901 90.0829 392.271 90.9619 392.652 91.9652L394.521 91.2548ZM393.3 88.2053C386.632 76.7978 374.681 69.834 362.265 70.3509L362.348 72.3491C373.953 71.866 385.241 78.3822 391.573 89.2146L393.3 88.2053ZM356.245 111.913L364.675 108.143L363.858 106.317L355.428 110.087L356.245 111.913ZM363.274 107.106C363.16 108.022 363.16 108.948 363.274 109.864L365.259 109.616C365.165 108.865 365.165 108.105 365.259 107.354L363.274 107.106ZM363.272 109.839C363.396 111.084 363.726 112.3 364.248 113.437L366.065 112.603C365.636 111.667 365.364 110.666 365.262 109.641L363.272 109.839ZM364.843 112.071C363.429 112.538 361.916 112.619 360.46 112.305L360.038 114.26C361.843 114.649 363.718 114.549 365.471 113.969L364.843 112.071ZM360.46 112.305C359.005 111.991 357.659 111.293 356.564 110.284L355.209 111.756C356.567 113.006 358.234 113.871 360.038 114.26L360.46 112.305ZM356.258 110.091L356.208 110.071L355.465 111.929L355.515 111.949L356.258 110.091Z" fill="white" mask="url(#path-1-inside-1_906_6904)"/>
<path d="M297.387 128.5H297.386C289.615 128.512 282.073 125.867 276.01 121.006C270.533 115.59 267.366 108.263 267.177 100.562C267.052 87.0388 276.653 78.8268 278.041 77.6956C283.614 74.1211 290.08 72.1854 296.701 72.11C301.802 72.0772 306.849 73.1573 311.49 75.2749L312.197 75.5978V74.82V51.4954L327.556 51.3546L327.497 103.371C326.46 110.011 323.228 116.113 318.318 120.703C310.141 128.191 300.443 128.5 297.387 128.5Z" stroke="white"/>
<path d="M233.555 70.92L233.555 70.92C241.61 70.8412 249.751 74.0323 255.822 79.3268C261.89 84.6191 265.861 91.9843 265.65 100.247L266.15 100.26L265.65 100.247C265.249 116.021 249.778 127.734 234.67 128.04C226.697 128.198 218.539 125.171 212.389 120.014C206.242 114.86 202.131 107.606 202.18 99.3129L202.18 99.3127C202.268 83.2155 218.053 71.0582 233.555 70.92Z" stroke="white"/>
<mask id="path-5-inside-2_906_6904" fill="white">
<path d="M198.79 127.69H181.62V74H183.9C183.27 73.57 177.61 69.54 177.54 62.81C177.48 56.48 182.38 49.64 189.62 49.31C196.86 48.98 202.74 55.54 202.93 62.15C203.13 69.46 196.46 73.78 196.11 74H198.79V127.66"/>
</mask>
<path d="M181.62 127.69H180.62V128.69H181.62V127.69ZM181.62 74V73H180.62V74H181.62ZM183.9 74V75H187.139L184.463 73.1741L183.9 74ZM177.54 62.81L176.54 62.8195L176.54 62.8204L177.54 62.81ZM202.93 62.15L203.929 62.1227L203.929 62.1213L202.93 62.15ZM196.11 74L195.577 73.1534L192.64 75H196.11V74ZM198.79 74H199.79V73H198.79V74ZM198.79 126.69H181.62V128.69H198.79V126.69ZM182.62 127.69V74H180.62V127.69H182.62ZM181.62 75H183.9V73H181.62V75ZM184.463 73.1741C184.194 72.9901 182.711 71.9411 181.294 70.1477C179.88 68.3563 178.572 65.8749 178.54 62.7996L176.54 62.8204C176.578 66.4752 178.135 69.3737 179.725 71.3873C181.314 73.399 182.975 74.58 183.336 74.826L184.463 73.1741ZM178.54 62.8005C178.484 56.8898 183.074 50.6094 189.665 50.309L189.574 48.3111C181.685 48.6706 176.476 56.0703 176.54 62.8195L178.54 62.8005ZM189.665 50.309C196.268 50.008 201.754 56.0448 201.93 62.1787L203.929 62.1213C203.726 55.0353 197.452 47.952 189.574 48.3111L189.665 50.309ZM201.93 62.1774C202.021 65.5064 200.551 68.1839 198.958 70.0932C197.364 72.0041 195.704 73.0741 195.577 73.1534L196.642 74.8466C196.866 74.706 198.715 73.506 200.494 71.3744C202.273 69.2411 204.038 66.1037 203.929 62.1227L201.93 62.1774ZM196.11 75H198.79V73H196.11V75ZM197.79 74V127.66H199.79V74H197.79Z" fill="white" mask="url(#path-5-inside-2_906_6904)"/>
<mask id="path-7-inside-3_906_6904" fill="white">
<path d="M180.848 88.07C179.478 94.95 172.628 100.32 164.638 100C162.452 110.615 157.518 120.47 150.328 128.58C145.622 134.728 140.054 140.168 133.798 144.73C109.638 162.31 83.0882 160.78 77.7982 160.38C47.4382 158.06 28.5682 140.12 23.8782 135.38C20.2582 131.81 -0.861804 110.54 -0.0018035 77.6C0.998196 42.79 25.7482 22.24 31.8182 17.54C43.3265 8.70893 56.9034 2.97004 71.2567 0.869556C85.6099 -1.23092 100.262 0.376902 113.818 5.54C145.448 17.68 160.518 45.75 165.448 64.2C166.088 66.6 166.508 68.64 166.768 70.06C176.268 71.17 182.498 79.95 180.878 88.06"/>
</mask>
<path d="M164.638 100L164.678 99.0008L163.83 98.9668L163.659 99.7983L164.638 100ZM150.328 128.58L149.58 127.917L149.556 127.944L149.534 127.972L150.328 128.58ZM133.798 144.73L134.387 145.539L134.387 145.538L133.798 144.73ZM77.7982 160.38L77.722 161.377L77.7228 161.377L77.7982 160.38ZM23.8782 135.38L24.5891 134.677L24.5804 134.668L23.8782 135.38ZM-0.0018035 77.6L-1.00139 77.5713L-1.00146 77.5739L-0.0018035 77.6ZM31.8182 17.54L31.2094 16.7467L31.206 16.7493L31.8182 17.54ZM113.818 5.54L114.177 4.6064L114.174 4.60549L113.818 5.54ZM165.448 64.2L166.414 63.9423L166.414 63.9418L165.448 64.2ZM166.768 70.06L165.785 70.2401L165.918 70.9674L166.652 71.0532L166.768 70.06ZM179.867 87.8747C178.601 94.2323 172.218 99.3028 164.678 99.0008L164.598 100.999C173.038 101.337 180.355 95.6677 181.829 88.2653L179.867 87.8747ZM163.659 99.7983C161.508 110.242 156.654 119.938 149.58 127.917L151.076 129.243C158.382 121.003 163.397 110.988 165.618 100.202L163.659 99.7983ZM149.534 127.972C144.886 134.044 139.388 139.416 133.209 143.922L134.387 145.538C140.721 140.919 146.357 135.413 151.122 129.188L149.534 127.972ZM133.21 143.921C109.347 161.285 83.101 159.778 77.8736 159.383L77.7228 161.377C83.0754 161.782 109.93 163.335 134.387 145.539L133.21 143.921ZM77.8744 159.383C47.8765 157.091 29.2224 139.359 24.589 134.677L23.1673 136.083C27.914 140.881 46.9999 159.029 77.722 161.377L77.8744 159.383ZM24.5804 134.668C20.9972 131.134 0.149371 110.125 0.997856 77.6261L-1.00146 77.5739C-1.87298 110.955 19.5192 132.486 23.176 136.092L24.5804 134.668ZM0.997784 77.6287C1.98411 43.2947 26.4078 22.994 32.4304 18.3307L31.206 16.7493C25.0886 21.486 0.0122829 42.2853 -1.00139 77.5713L0.997784 77.6287ZM32.427 18.3333C43.7999 9.60616 57.217 3.93479 71.4015 1.85902L71.1119 -0.119905C56.5897 2.00529 42.8531 7.81169 31.2094 16.7467L32.427 18.3333ZM71.4015 1.85902C85.5859 -0.216751 100.066 1.37216 113.462 6.47452L114.174 4.60549C100.458 -0.618355 85.634 -2.2451 71.1119 -0.119905L71.4015 1.85902ZM113.46 6.4736C144.691 18.4606 159.603 46.1978 164.482 64.4581L166.414 63.9418C161.434 45.3022 146.205 16.8994 114.177 4.60641L113.46 6.4736ZM164.482 64.4577C165.114 66.8271 165.528 68.8406 165.785 70.2401L167.752 69.8799C167.488 68.4394 167.063 66.3729 166.414 63.9423L164.482 64.4577ZM166.652 71.0532C175.613 72.1003 181.395 80.3669 179.898 87.8641L181.859 88.2559C183.601 79.5331 176.923 70.2397 166.884 69.0668L166.652 71.0532Z" fill="white" mask="url(#path-7-inside-3_906_6904)"/>
<mask id="path-9-inside-4_906_6904" fill="white">
<path d="M162.397 80.18C162.397 122.45 125.347 155.77 84.0275 155.89C42.5575 156 5.1875 122.68 5.1875 80.18C5.1875 38.12 41.7975 5.12 82.4975 4.47C124.227 3.8 162.397 37.25 162.397 80.18Z"/>
</mask>
<path d="M84.0275 155.89L84.0302 156.89H84.0304L84.0275 155.89ZM82.4975 4.47L82.5135 5.46988L82.5135 5.46988L82.4975 4.47ZM161.397 80.18C161.397 121.843 124.851 154.771 84.0246 154.89L84.0304 156.89C125.844 156.769 163.397 123.057 163.397 80.18H161.397ZM84.0248 154.89C43.0496 154.999 6.1875 122.07 6.1875 80.18H4.1875C4.1875 123.29 42.0654 157.001 84.0302 156.89L84.0248 154.89ZM6.1875 80.18C6.1875 38.7238 42.2998 6.11211 82.5135 5.46988L82.4815 3.47013C41.2952 4.1279 4.1875 37.5162 4.1875 80.18H6.1875ZM82.5135 5.46988C123.745 4.80788 161.397 37.8669 161.397 80.18H163.397C163.397 36.6331 124.71 2.79213 82.4814 3.47013L82.5135 5.46988Z" fill="white" mask="url(#path-9-inside-4_906_6904)"/>
<mask id="mask0_906_6904" style="mask-type:alpha" maskUnits="userSpaceOnUse" x="31" y="33" width="62" height="95">
<rect x="31" y="33" width="62" height="95" fill="#D9D9D9"/>
</mask>
<g mask="url(#mask0_906_6904)">
<path d="M54.9296 47.5314C54.8501 47.7441 54.739 48.02 54.5915 48.341C54.2435 49.0983 53.6903 50.1122 52.8679 51.1399C51.2175 53.2022 48.4784 55.3214 44.173 55.5195L44.1553 55.5203L44.1375 55.5198C37.4658 55.3533 32.3132 49.8741 33.1138 43.4582C33.5509 39.9515 35.5455 37.5381 37.9721 36.0581C40.3851 34.5864 43.2432 34.0235 45.4895 34.2016L45.4993 34.2023L45.509 34.2035C52.0633 34.9828 58.4647 36.7351 64.5021 39.4027L64.5145 39.4081L64.5266 39.4143C67.4605 40.9055 70.2136 42.7285 72.7319 44.8474L72.7325 44.8479C76.6838 48.1823 80.0099 52.1935 82.5552 56.6938L82.5604 56.703L82.5603 56.7031C86.3905 63.8206 88.1244 71.8779 87.5612 79.9405C87.8139 83.6497 88.3553 98.1357 78.7877 109.846C72.4141 117.673 63.8384 121.332 61.3215 122.406C61.278 122.425 61.2363 122.443 61.1965 122.46L61.1877 122.464L61.1877 122.463C58.5531 123.531 55.8325 124.371 53.0552 124.977C50.3103 125.677 47.4772 125.967 44.6474 125.839L44.6374 125.839L44.6374 125.839L44.5723 125.835C41.7111 125.648 39.427 125.499 37.114 123.86C35.9301 123.047 34.9247 122 34.1594 120.785C33.3935 119.568 32.8844 118.208 32.6632 116.787C32.442 115.367 32.5135 113.916 32.8732 112.524C33.2329 111.132 33.8733 109.829 34.7551 108.693L34.7664 108.679L34.7788 108.665C36.5457 106.707 38.903 105.379 41.4931 104.882C44.0802 104.385 46.7585 104.746 49.1226 105.907C50.1905 106.386 51.1668 107.047 52.0077 107.861L52.0121 107.865C53.2753 109.118 54.2029 110.664 54.7138 112.363C55.5627 112.082 56.6505 111.695 57.8875 111.179L57.8878 111.178L57.9252 111.163C61.207 109.796 64.645 108.365 67.8696 105.434C71.5108 101.974 74.129 97.579 75.4373 92.7298L75.4406 92.7175L75.4407 92.7175C75.8719 91.267 76.1956 89.787 76.4095 88.2895C75.984 88.3964 75.5592 88.5075 75.1297 88.6229L75.1228 88.6247C73.6587 88.9956 72.195 89.3855 70.8066 89.7757C69.4418 90.803 67.9013 91.5737 66.2602 92.0499C66.2599 92.05 66.2596 92.0501 66.2593 92.0502L66.12 91.57C65.1438 91.8553 64.1363 92.0198 63.12 92.06L54.9296 47.5314ZM54.9296 47.5314C56.6969 48.0481 58.4256 48.6894 60.1027 49.4505L54.9296 47.5314ZM9.5 80.17C9.5 40.6431 42.7189 8.56 83.79 8.56C124.862 8.56 158.13 40.6335 158.13 80.17C158.13 119.707 124.901 151.78 83.83 151.78C42.7586 151.78 9.5 119.697 9.5 80.17Z" stroke="white"/>
</g>
<path d="M146.433 152.05H144.112L150.826 133.763H153.112L159.827 152.05H157.505L152.041 136.656H151.898L146.433 152.05ZM147.29 144.907H156.648V146.871H147.29V144.907Z" fill="white"/>
<path d="M178.075 139.478C177.878 138.876 177.619 138.338 177.298 137.862C176.982 137.379 176.604 136.969 176.164 136.629C175.729 136.29 175.235 136.031 174.682 135.852C174.128 135.674 173.521 135.585 172.86 135.585C171.777 135.585 170.791 135.864 169.904 136.424C169.017 136.984 168.312 137.808 167.788 138.897C167.264 139.987 167.002 141.323 167.002 142.907C167.002 144.49 167.267 145.826 167.797 146.916C168.327 148.005 169.044 148.83 169.949 149.389C170.854 149.949 171.872 150.228 173.003 150.228C174.051 150.228 174.973 150.005 175.771 149.559C176.575 149.106 177.2 148.469 177.646 147.648C178.098 146.82 178.325 145.847 178.325 144.728L179.003 144.871H173.503V142.907H180.468V144.871C180.468 146.377 180.146 147.687 179.503 148.8C178.866 149.913 177.985 150.776 176.86 151.389C175.741 151.996 174.455 152.3 173.003 152.3C171.384 152.3 169.961 151.919 168.735 151.157C167.514 150.395 166.562 149.312 165.877 147.907C165.199 146.502 164.859 144.835 164.859 142.907C164.859 141.46 165.053 140.159 165.44 139.004C165.833 137.844 166.386 136.856 167.101 136.04C167.815 135.224 168.66 134.599 169.637 134.165C170.613 133.73 171.687 133.513 172.86 133.513C173.824 133.513 174.723 133.659 175.557 133.951C176.396 134.236 177.143 134.644 177.798 135.174C178.459 135.698 179.009 136.326 179.45 137.058C179.89 137.784 180.194 138.591 180.36 139.478H178.075Z" fill="white"/>
<path d="M186.843 152.05V133.763H193.022C194.451 133.763 195.624 134.007 196.54 134.495C197.457 134.977 198.136 135.641 198.576 136.486C199.017 137.332 199.237 138.293 199.237 139.371C199.237 140.448 199.017 141.403 198.576 142.237C198.136 143.07 197.46 143.725 196.549 144.201C195.639 144.672 194.475 144.907 193.058 144.907H188.058V142.907H192.987C193.963 142.907 194.749 142.764 195.344 142.478C195.945 142.192 196.38 141.787 196.648 141.264C196.921 140.734 197.058 140.103 197.058 139.371C197.058 138.638 196.921 137.998 196.648 137.451C196.374 136.903 195.936 136.481 195.335 136.183C194.734 135.879 193.939 135.727 192.951 135.727H189.058V152.05H186.843ZM195.451 143.835L199.951 152.05H197.38L192.951 143.835H195.451Z" fill="white"/>
<path d="M220.441 142.907C220.441 144.835 220.093 146.502 219.396 147.907C218.7 149.312 217.744 150.395 216.53 151.157C215.316 151.919 213.929 152.3 212.369 152.3C210.809 152.3 209.422 151.919 208.208 151.157C206.994 150.395 206.038 149.312 205.342 147.907C204.645 146.502 204.297 144.835 204.297 142.907C204.297 140.978 204.645 139.311 205.342 137.906C206.038 136.501 206.994 135.418 208.208 134.656C209.422 133.894 210.809 133.513 212.369 133.513C213.929 133.513 215.316 133.894 216.53 134.656C217.744 135.418 218.7 136.501 219.396 137.906C220.093 139.311 220.441 140.978 220.441 142.907ZM218.298 142.907C218.298 141.323 218.033 139.987 217.503 138.897C216.979 137.808 216.268 136.984 215.369 136.424C214.476 135.864 213.476 135.585 212.369 135.585C211.262 135.585 210.259 135.864 209.36 136.424C208.467 136.984 207.756 137.808 207.226 138.897C206.702 139.987 206.44 141.323 206.44 142.907C206.44 144.49 206.702 145.826 207.226 146.916C207.756 148.005 208.467 148.83 209.36 149.389C210.259 149.949 211.262 150.228 212.369 150.228C213.476 150.228 214.476 149.949 215.369 149.389C216.268 148.83 216.979 148.005 217.503 146.916C218.033 145.826 218.298 144.49 218.298 142.907Z" fill="white"/>
<path d="M229.737 133.763V152.05H227.523V133.763H229.737Z" fill="white"/>
<path d="M251.864 133.763V152.05H249.721L239.756 137.692H239.577V152.05H237.363V133.763H239.506L249.507 148.157H249.685V133.763H251.864Z" fill="white"/>
<path d="M264.557 152.05H258.914V133.763H264.807C266.581 133.763 268.099 134.129 269.361 134.861C270.623 135.588 271.59 136.632 272.263 137.995C272.935 139.353 273.272 140.978 273.272 142.871C273.272 144.776 272.932 146.416 272.254 147.791C271.575 149.16 270.587 150.214 269.289 150.952C267.992 151.684 266.414 152.05 264.557 152.05ZM261.128 150.086H264.414C265.926 150.086 267.179 149.794 268.173 149.211C269.167 148.627 269.908 147.797 270.397 146.719C270.885 145.642 271.129 144.359 271.129 142.871C271.129 141.395 270.888 140.124 270.405 139.058C269.923 137.987 269.203 137.165 268.245 136.594C267.286 136.016 266.093 135.727 264.664 135.727H261.128V150.086Z" fill="white"/>
<path d="M292.754 133.763H294.969V145.871C294.969 147.121 294.674 148.237 294.085 149.219C293.501 150.196 292.677 150.967 291.611 151.532C290.546 152.092 289.296 152.371 287.861 152.371C286.426 152.371 285.176 152.092 284.111 151.532C283.045 150.967 282.218 150.196 281.629 149.219C281.045 148.237 280.753 147.121 280.753 145.871V133.763H282.968V145.692C282.968 146.585 283.164 147.38 283.557 148.077C283.95 148.767 284.51 149.312 285.236 149.711C285.968 150.103 286.843 150.3 287.861 150.3C288.879 150.3 289.754 150.103 290.486 149.711C291.218 149.312 291.778 148.767 292.165 148.077C292.558 147.38 292.754 146.585 292.754 145.692V133.763Z" fill="white"/>
<path d="M312.004 138.335C311.897 137.43 311.462 136.728 310.7 136.228C309.939 135.727 309.004 135.477 307.897 135.477C307.087 135.477 306.379 135.608 305.772 135.87C305.17 136.132 304.7 136.492 304.361 136.951C304.027 137.409 303.861 137.93 303.861 138.513C303.861 139.002 303.977 139.421 304.209 139.772C304.447 140.118 304.751 140.406 305.12 140.639C305.489 140.865 305.876 141.052 306.281 141.201C306.685 141.344 307.057 141.46 307.397 141.549L309.254 142.049C309.73 142.174 310.26 142.347 310.843 142.567C311.433 142.787 311.995 143.088 312.531 143.469C313.073 143.844 313.519 144.326 313.87 144.916C314.222 145.505 314.397 146.228 314.397 147.085C314.397 148.074 314.138 148.966 313.62 149.764C313.108 150.562 312.358 151.196 311.37 151.666C310.388 152.136 309.194 152.371 307.79 152.371C306.48 152.371 305.346 152.16 304.388 151.737C303.435 151.315 302.685 150.725 302.137 149.969C301.596 149.213 301.289 148.335 301.218 147.335H303.504C303.563 148.026 303.795 148.597 304.2 149.05C304.611 149.496 305.129 149.83 305.754 150.05C306.385 150.264 307.063 150.371 307.79 150.371C308.635 150.371 309.394 150.234 310.067 149.961C310.739 149.681 311.272 149.294 311.665 148.8C312.058 148.3 312.254 147.716 312.254 147.05C312.254 146.442 312.085 145.948 311.745 145.567C311.406 145.186 310.959 144.877 310.406 144.639C309.852 144.401 309.254 144.192 308.611 144.014L306.361 143.371C304.932 142.96 303.801 142.374 302.968 141.612C302.134 140.85 301.718 139.853 301.718 138.621C301.718 137.597 301.995 136.704 302.548 135.942C303.108 135.174 303.858 134.579 304.798 134.156C305.745 133.727 306.801 133.513 307.968 133.513C309.147 133.513 310.195 133.724 311.111 134.147C312.028 134.564 312.754 135.135 313.29 135.861C313.832 136.588 314.117 137.412 314.147 138.335H312.004Z" fill="white"/>
<path d="M317.964 135.727V133.763H331.68V135.727H325.929V152.05H323.715V135.727H317.964Z" fill="white"/>
<path d="M336.054 152.05V133.763H342.233C343.662 133.763 344.835 134.007 345.751 134.495C346.668 134.977 347.347 135.641 347.787 136.486C348.228 137.332 348.448 138.293 348.448 139.371C348.448 140.448 348.228 141.403 347.787 142.237C347.347 143.07 346.671 143.725 345.76 144.201C344.85 144.672 343.686 144.907 342.269 144.907H337.269V142.907H342.198C343.174 142.907 343.96 142.764 344.555 142.478C345.156 142.192 345.591 141.787 345.858 141.264C346.132 140.734 346.269 140.103 346.269 139.371C346.269 138.638 346.132 137.998 345.858 137.451C345.585 136.903 345.147 136.481 344.546 136.183C343.945 135.879 343.15 135.727 342.162 135.727H338.269V152.05H336.054ZM344.662 143.835L349.162 152.05H346.591L342.162 143.835H344.662Z" fill="white"/>
<path d="M356.429 133.763V152.05H354.214V133.763H356.429Z" fill="white"/>
<path d="M364.812 152.05H362.491L369.205 133.763H371.491L378.206 152.05H375.884L370.42 136.656H370.277L364.812 152.05ZM365.669 144.907H375.027V146.871H365.669V144.907Z" fill="white"/>
<path d="M384.343 152.05V133.763H386.558V150.086H395.058V152.05H384.343Z" fill="white"/>
<path d="M141 75.83H150.32V81.55C150.816 80.8321 151.378 80.1625 152 79.55C153.022 78.5083 154.191 77.6222 155.47 76.92L155.59 76.85C156.896 76.1618 158.253 75.5767 159.65 75.1C161.155 74.5885 162.73 74.3119 164.32 74.28C165.901 74.1846 167.485 74.3881 168.99 74.88C169.61 75.1 174.33 76.88 175.62 81.88C176.04 83.6397 175.997 85.4782 175.496 87.2166C174.995 88.955 174.052 90.534 172.76 91.8C168.89 95.6 162.64 95.33 158.83 92.35C157.151 90.9916 155.91 89.1692 155.26 87.11C154.635 87.7759 154.069 88.4953 153.57 89.26C151.704 92.2202 150.745 95.6615 150.81 99.16V124.81H141V75.83Z" fill="white"/>
<path d="M216.409 98.69C216.248 102.94 217.59 107.111 220.199 110.47C223.379 114.41 228.113 116.383 234.399 116.39C239.559 116.39 243.586 115.03 246.479 112.31C249.733 109.263 251.356 104.597 251.349 98.31C251.428 96.164 251.032 94.0271 250.19 92.0515C249.348 90.076 248.081 88.3102 246.479 86.88C242.988 83.9633 238.546 82.4328 233.999 82.58C228.373 82.58 223.929 84.3533 220.669 87.9C217.911 90.8097 216.397 94.681 216.449 98.69M206.209 98.89C206.209 91.83 209.099 85.83 214.879 80.89C220.108 76.3905 226.792 73.9421 233.689 74C240.528 73.8815 247.202 76.1083 252.599 80.31C255.502 82.4825 257.843 85.3181 259.426 88.58C261.009 91.8419 261.789 95.4353 261.699 99.06C261.733 105.361 259.436 111.451 255.249 116.16C250.303 121.993 243.786 124.91 235.699 124.91C226.993 124.91 219.859 122.44 214.299 117.5C211.569 115.255 209.409 112.396 207.996 109.156C206.583 105.916 205.957 102.388 206.169 98.86L206.209 98.89Z" fill="white"/>
<path d="M294.377 90.76C293.75 89.416 293.374 87.969 293.267 86.49C293.226 85.6292 293.286 84.7667 293.447 83.92L292.817 84.04C290.859 84.4812 288.992 85.2558 287.297 86.33C286.303 86.9536 285.381 87.6847 284.547 88.51C281.547 91.42 280.097 95.29 280.097 100.09C280.084 100.805 280.121 101.52 280.207 102.23C280.72 107.657 283.053 111.7 287.207 114.36C290.417 116.379 294.145 117.421 297.937 117.36C303.343 117.36 307.567 115.537 310.607 111.89C313.647 108.243 315.147 103.487 315.107 97.62V53.56H324.917V101.33C324.917 106.703 322.873 111.793 318.787 116.6C313.56 122.827 306.427 125.94 297.387 125.94C288.347 125.94 281.347 123.023 276.387 117.19C272.522 112.85 270.387 107.241 270.387 101.43C270.387 93.35 273.15 86.7567 278.677 81.65C281.648 78.7882 285.294 76.7242 289.277 75.65C291.041 75.235 292.845 75.0136 294.657 74.99C298.297 74.92 309.517 74.66 313.057 81.52C313.66 82.8212 314 84.2289 314.056 85.662C314.113 87.0951 313.885 88.5252 313.387 89.87C312.602 91.704 311.315 93.2793 309.675 94.4146C308.034 95.55 306.107 96.1994 304.114 96.2882C302.121 96.377 300.143 95.9016 298.408 94.9165C296.673 93.9315 295.252 92.4769 294.307 90.72" fill="white"/>
<path d="M349.177 101.43L375.717 88C374.591 86.8847 373.316 85.9321 371.927 85.17C369.233 83.9211 366.283 83.325 363.317 83.43C357.983 83.43 353.72 85.2667 350.527 88.94C347.613 92.3367 346.069 96.6968 346.197 101.17C346.176 103.215 346.569 105.244 347.351 107.134C348.133 109.024 349.287 110.737 350.747 112.17C354.08 115.55 358.413 117.24 363.747 117.24C364.344 117.246 364.942 117.216 365.537 117.15L367.077 116.87C367.677 116.788 368.271 116.667 368.857 116.51C369.25 116.372 369.631 116.202 369.997 116C369.354 115.282 368.83 114.464 368.447 113.58C367.733 111.904 367.494 110.063 367.757 108.26C367.877 104.26 372.317 99.59 377.757 99.26C379.884 99.1184 382.003 99.6446 383.817 100.765C385.631 101.885 387.05 103.544 387.877 105.51C388.647 107.552 388.761 109.783 388.204 111.892C387.646 114.002 386.445 115.885 384.767 117.28C384.677 117.37 384.527 117.53 384.337 117.71C382.707 119.265 380.917 120.643 378.997 121.82C374.163 124.576 368.669 125.96 363.107 125.82C356.087 125.918 349.294 123.34 344.107 118.61C338.687 113.81 335.977 108.043 335.977 101.31C335.977 92.83 339.027 86.1033 345.127 81.13C350.241 76.8939 356.696 74.6179 363.337 74.71C369.337 74.71 374.463 75.97 378.717 78.49C383.205 81.4427 386.875 85.4809 389.387 90.23L353.387 108.52L349.177 101.43Z" fill="white"/>
<path d="M190.177 52.93C191.938 53.0084 193.637 53.602 195.064 54.6374C196.49 55.6727 197.581 57.1041 198.202 58.754C198.822 60.4039 198.944 62.1996 198.553 63.9183C198.162 65.6369 197.275 67.2029 196.001 68.4219C194.728 69.6409 193.125 70.4592 191.391 70.7752C189.657 71.0913 187.868 70.8912 186.247 70.1999C184.626 69.5085 183.243 68.3562 182.271 66.8861C181.298 65.4159 180.779 63.6926 180.777 61.93C180.803 60.7218 181.067 59.5305 181.554 58.4242C182.04 57.3179 182.74 56.3183 183.613 55.4826C184.486 54.6468 185.515 53.9912 186.641 53.5532C187.767 53.1152 188.969 52.9035 190.177 52.93Z" fill="white"/>
<path d="M195.078 75.95H185.328V124.82H195.078V75.95Z" fill="white"/>
<path d="M91.8979 45.27C94.3868 43.1775 97.104 41.3727 99.9979 39.89C105.992 37.2493 112.344 35.5137 118.848 34.74C123.138 34.41 129.848 36.91 130.688 43.56C131.448 49.65 126.558 54.9 120.148 55.06C111.898 54.69 109.698 47 109.698 47C107.747 47.5337 105.842 48.2191 103.998 49.05C100.46 50.8515 97.3389 53.376 94.8379 56.46C91.4429 60.3288 89.0647 64.9822 87.9179 70C87.5006 71.9726 87.2928 73.9837 87.2979 76L89.9979 75.17C91.5179 74.7 92.9979 74.25 94.5179 73.81C97.1351 72.1054 100.302 71.4584 103.378 72C105.032 72.2937 106.581 73.0135 107.871 74.0885C109.162 75.1635 110.15 76.5565 110.738 78.13C111.619 80.5387 111.619 83.1813 110.738 85.59C109.948 87.4894 108.619 89.1156 106.914 90.2674C105.21 91.4191 103.205 92.0458 101.148 92.07C100.131 92.037 99.1225 91.8723 98.1479 91.58C96.5325 91.1184 95.0191 90.355 93.6879 89.33C92.2379 88.93 90.7579 88.54 89.2679 88.15L87.2679 87.64C87.4832 89.4003 87.8445 91.1396 88.3479 92.84C89.6805 97.7993 92.3512 102.297 96.0679 105.84C99.3779 108.84 102.908 110.31 106.198 111.68C107.708 112.31 108.988 112.75 109.898 113.04C110.343 111.224 111.281 109.567 112.608 108.25C113.415 107.475 114.349 106.843 115.368 106.38C117.377 105.418 119.613 105.033 121.828 105.27C124.624 105.639 127.204 106.968 129.128 109.03C129.972 110.108 130.586 111.347 130.932 112.672C131.277 113.997 131.347 115.378 131.137 116.731C130.927 118.084 130.442 119.379 129.711 120.536C128.98 121.694 128.019 122.689 126.888 123.46C124.698 125.02 122.528 125.16 119.618 125.35C116.838 125.481 114.053 125.195 111.358 124.5C108.605 123.908 105.908 123.078 103.298 122.02C100.928 121.02 92.2979 117.46 85.8779 109.6C76.4379 98 76.9979 83.61 77.2479 80C76.6773 72.0198 78.3908 64.0421 82.1879 57C84.6992 52.5423 87.9877 48.5697 91.8979 45.27Z" fill="white"/>
</svg>
