<svg width="698" height="258" viewBox="0 0 698 258" fill="none" xmlns="http://www.w3.org/2000/svg">
<path d="M387.04 190.9V191.19L387.17 257.03L400.68 257L400.55 190.69L400.51 189.86C398.36 166.75 379.56 148.65 356.74 147.75C356.13 147.73 355.52 147.71 354.91 147.71H354.82C341.33 147.74 328.58 153.81 319.85 164.38L315.69 169.41L311.51 164.4C303.18 154.42 291.12 148.41 278.42 147.9C277.81 147.88 277.2 147.86 276.59 147.86C252.74 147.91 233.21 166.03 230.97 190.05L231.06 257.32L244.57 257.29L244.44 191.46V191.17L244.47 190.88C246.24 174.33 260.38 161.37 276.66 161.37C277.07 161.37 277.48 161.38 277.89 161.39C293.71 162.02 306.95 174.64 308.69 190.75L308.72 191.03V191.32L308.85 257.16L322.89 257.13L322.76 191.3V191.01L322.79 190.72C324.56 174.17 338.7 161.21 354.98 161.21C355.39 161.21 355.8 161.22 356.21 161.23C372.03 161.86 385.27 174.48 387.01 190.59L387.04 190.9Z" fill="white"/>
<path d="M499.28 241.64C509.33 231.55 514.85 218.15 514.82 203.91C514.76 174.57 490.85 150.7 461.51 150.7C451.15 150.72 441.1 153.71 432.44 159.36L424.08 164.81L422.1 166.1L422.09 163.73L422.07 153.75L421.99 108.47L408 108.5L408.18 204.11C408.24 233.45 432.16 257.32 461.5 257.32C475.81 257.3 489.23 251.73 499.28 241.64ZM422.17 204.09C422.13 182.4 439.74 164.73 461.42 164.68C483.11 164.68 500.78 182.29 500.83 203.93C500.85 214.42 496.77 224.3 489.35 231.75C481.93 239.2 472.06 243.32 461.58 243.34H461.5C439.86 243.34 422.22 225.73 422.17 204.09Z" fill="white"/>
<path d="M562.27 161.92L562.24 148.19C540.99 150.74 524.2 167.89 522.14 190.05L522.23 257.32L535.74 257.29L535.61 191.46V191.17L535.64 190.88C537.19 176.3 548.44 164.47 562.27 161.92Z" fill="white"/>
<path d="M662.31 244.17L662.33 254.15L662.34 257.33L676.33 257.3L676.22 203.78C676.16 174.44 652.24 150.57 622.9 150.57H622.79C593.39 150.63 569.52 174.59 569.58 203.99C569.64 233.33 593.55 257.2 622.89 257.2C633.25 257.18 643.3 254.19 651.96 248.54L660.32 243.09L662.3 241.8L662.31 244.17ZM650.75 231.63C643.33 239.08 633.47 243.19 622.97 243.21H622.89C601.25 243.21 583.61 225.6 583.56 203.96C583.54 193.47 587.61 183.59 595.04 176.14C602.46 168.69 612.32 164.58 622.82 164.56C644.51 164.56 662.18 182.17 662.22 203.81C662.25 214.3 658.17 224.18 650.75 231.63Z" fill="white"/>
<path d="M223.7 215.14L223.61 147.87L210.1 147.9L210.23 213.73V214.02L210.2 214.31C208.43 230.86 194.29 243.82 178.01 243.82C177.6 243.82 177.19 243.81 176.79 243.8C160.97 243.17 147.73 230.55 145.99 214.44L145.96 214.16V213.87L145.83 148.03L132.32 148.06L132.45 214.37L132.49 215.2C134.64 238.31 153.44 256.41 176.26 257.31C176.87 257.33 177.48 257.35 178.09 257.35C201.93 257.28 221.46 239.16 223.7 215.14Z" fill="white"/>
<path d="M697.96 108.48H683.79V257.34H697.96V108.48Z" fill="white"/>
<path d="M23.9602 27.77C31.4402 27.77 37.5102 21.7 37.5102 14.22C37.5102 6.73999 31.4402 0.669983 23.9602 0.669983C16.4802 0.669983 10.4102 6.73999 10.4102 14.22C10.4102 21.7 16.4802 27.77 23.9602 27.77Z" fill="white"/>
<path d="M64.8901 63.56C72.3701 63.56 78.4401 57.4899 78.4401 50.0099C78.4401 42.5299 72.3701 36.46 64.8901 36.46C57.4101 36.46 51.3401 42.5299 51.3401 50.0099C51.3401 57.4899 57.4101 63.56 64.8901 63.56Z" fill="white"/>
<path d="M97.1401 99.35C104.62 99.35 110.69 93.28 110.69 85.8C110.69 78.32 104.62 72.25 97.1401 72.25C89.6601 72.25 83.5901 78.32 83.5901 85.8C83.5901 93.29 89.6601 99.35 97.1401 99.35Z" fill="white"/>
<path d="M78.4401 140.37V72.33L37.4101 113.62C37.4101 83.62 37.4101 53.38 37.4101 35.44L0.110103 72.98V184.34L0.0601039 184.39V204.23C0.0601039 204.42 0.0801044 204.61 0.0801044 204.8C0.0201044 205.58 0.0201039 206.34 0.0601039 207.1C0.120104 208.32 0.280104 209.52 0.560104 210.67C1.4401 216.47 3.5601 221.87 6.6201 226.58C5.9401 225.53 5.2901 224.46 4.7001 223.35C14.1701 243.3 35.9601 257.33 57.5901 257.33C59.0501 257.33 60.5101 257.27 61.9701 257.14C88.8301 254.74 110.4 231.52 110.69 203.44V108.48L78.4401 140.37ZM11.5801 205.39L11.6401 204.81V204.23V77.91L25.8701 63V204.22V204.8L25.9301 205.38C26.2301 208.34 24.8101 210.4 23.9301 211.37C22.5301 212.92 20.6401 213.81 18.7501 213.82C16.8701 213.82 14.9801 212.93 13.5801 211.37C12.7101 210.42 11.2801 208.35 11.5801 205.39ZM20.3301 225.27C30.3801 224.37 38.5001 215.01 37.4101 204.22C37.4101 186.8 37.4101 158.74 37.4101 129.66L66.9101 100.16V204.3C66.9701 212.01 63.9801 219.3 58.5001 224.82C53.2601 230.1 46.2001 233.13 39.1301 233.13C38.7401 233.13 38.3401 233.12 37.9501 233.1C31.1501 232.8 25.0001 229.85 20.3301 225.27ZM99.1501 203.37C98.9001 225.19 82.1201 243.75 60.9401 245.65C59.8401 245.75 58.7201 245.8 57.5901 245.8C53.5701 245.8 49.5701 245.17 45.7101 244.05C63.9101 240.78 78.5901 224.32 78.4401 204.23V156.88L99.1501 136.06V203.37Z" fill="white"/>
</svg>
