<svg xmlns="http://www.w3.org/2000/svg" width="512" height="236.597" viewBox="0 0 512 236.597">
  <g id="Grupo_6609" data-name="Grupo 6609" transform="translate(-316 -1999)">
    <path id="path6" d="M184.795,176.857c85.3,13.487,169.59,51.862,255.949,51.862s170.7-38.4,256.051-51.862v236.6C611.444,398.407,527.31,355.6,440.744,355.819c-86.641.216-170.649,42.754-255.949,57.635v-236.6Z" transform="translate(131.205 1822.143)" fill="#e53935" fill-rule="evenodd"/>
    <path id="path8" d="M217.531,221.136q0,22.354,0,44.687-.035,22.354-.047,44.708c4.28-.316,8.561-.614,12.84-.93V266.6c0-14.349.047-28.717.047-43.065Q223.951,222.343,217.531,221.136Zm25.586,15.734c-.033,10.014-.024,20.009-.047,30q-.035,14.962-.047,29.964a38.07,38.07,0,0,1-2.116,12.527,32.806,32.806,0,0,1-5.739,10.469c-2.38,2.846-4.938,4.473-7.76,4.809-3.339.4-6.632.772-9.924,1.148v54.266c-4.233,1.128-8.513,2.236-12.793,3.364V230.339a36.148,36.148,0,0,1,2.211-12.963,20.332,20.332,0,0,1,5.926-8.826,8.559,8.559,0,0,1,7.525-2.039c2.352.532,4.7,1.092,7.1,1.642,2.68.617,5.239,2.478,7.667,5.482a35.445,35.445,0,0,1,5.832,10.727A37.14,37.14,0,0,1,243.117,236.87Zm32.077,127c-4.374,1.227-8.7,2.474-13.075,3.7V303.347q0-32.121.094-64.261a25.894,25.894,0,0,1,2.3-10.845,16.482,16.482,0,0,1,5.88-7.264,9.7,9.7,0,0,1,7.525-1.5c2.352.509,4.7,1.005,7.1,1.523a15.293,15.293,0,0,1,7.713,4.671,28.207,28.207,0,0,1,5.785,8.945,26.2,26.2,0,0,1,2.117,10.272q-.119,28.023-.141,56.028v55.969c-4.233,1.148-8.466,2.315-12.7,3.463V317.161c-4.185.515-8.419,1.049-12.6,1.583v45.123ZM275.1,231.606q-.07,18.643-.141,37.247c-.047,12.388-.047,24.817-.047,37.206,4.187-.356,8.419-.692,12.606-1.029,0-11.874-.023-23.769.046-35.624.07-11.874.095-23.749.141-35.623C283.472,233.05,279.238,232.338,275.1,231.606Zm45.34-3.622c4.233.772,8.513,1.524,12.793,2.236-.047,18.129-.236,36.218-.282,54.306s0,36.178.047,54.247c4.233-.792,8.513-1.623,12.84-2.454V323.554c4.233-.574,8.419-1.128,12.652-1.7,0,7.244,0,14.487.047,21.711-7.666,1.524-15.192,3.126-22.765,4.829a12.049,12.049,0,0,1-7.76-.693,12.339,12.339,0,0,1-5.738-5.541,18.326,18.326,0,0,1-2.163-8.986c0-17.515-.024-35.05.046-52.584S320.345,245.539,320.44,227.984ZM440.657,335.31c-4.327-.1-8.56-.079-12.84.02-.048-14.526-.165-29.093-.141-43.639.024-14.586.234-29.133.423-43.678q-6.42-.059-12.841-.258c-.141,14.646-.352,29.291-.376,43.936s.094,29.291.141,43.9c-4.28.3-8.56.594-12.793.99,0-14.863-.117-29.766-.095-44.649.024-14.9.236-29.8.424-44.687-4.233-.257-8.419-.475-12.605-.732-.141,15.239-.353,30.5-.376,45.756-.023,15.219.046,30.478.094,45.7-4.281.594-8.514,1.187-12.794,1.8q-.07-21.73-.094-43.461c-.023-14.507.2-28.994.283-43.5a15.132,15.132,0,0,1,2.163-7.58,15.56,15.56,0,0,1,5.6-5.68,12.8,12.8,0,0,1,7.619-1.682q16.436,1.236,32.923,1.7a15.364,15.364,0,0,1,7.432,2.216,17.43,17.43,0,0,1,5.879,5.423,12.317,12.317,0,0,1,2.257,6.927c-.12,13.538-.423,27.054-.423,40.611C440.516,308.256,440.61,321.793,440.657,335.31Zm32.171,2.118c-4.374-.475-8.7-.911-13.075-1.227-.047-13.755-.141-27.49-.141-41.245,0-13.774.264-27.529.422-41.284a13.8,13.8,0,0,1,2.353-7.3,19.469,19.469,0,0,1,5.879-5.937,16.366,16.366,0,0,1,7.573-2.711c2.351-.2,4.7-.431,7.1-.693a13.15,13.15,0,0,1,7.667,1.524,14.382,14.382,0,0,1,5.784,5.462,14.216,14.216,0,0,1,2.023,7.659c-.2,14.863-.447,29.746-.423,44.629q.034,22.294.141,44.588c-4.233-.712-8.466-1.325-12.7-1.9,0-5.3-.024-10.627-.047-15.912-.023-5.3,0-10.628-.047-15.951-4.185-.258-8.419-.5-12.6-.693q0,7.778.047,15.516Q472.816,329.67,472.828,337.428Zm.094-90.742q-.141,12.765-.329,25.51c-.117,8.49-.188,17.021-.141,25.511,4.186.139,8.372.277,12.558.455-.047-8.727,0-17.5.141-26.223s.236-17.475.377-26.2c-4.233.355-8.419.673-12.6.949Zm57.617-6.115c-.094,7.184-.189,14.329-.282,21.493-.094,7.144-.188,14.289-.329,21.453,4.28.02,8.513.02,12.84.059.141-7.48.212-14.961.329-22.443s.236-14.941.329-22.443C539.1,239.364,534.818,239.978,530.539,240.571Zm15.427,110.175a20.509,20.509,0,0,1-3.434-11.34c-.031-7.48-.024-14.981-.048-22.462q-.035-11.25-.047-22.5c-4.186-.159-8.324-.337-12.511-.494.047,8.806.071,17.633.094,26.42q.036,13.21.047,26.421c-4.374-.97-8.748-1.9-13.076-2.751-.046-18.564-.211-37.148-.141-55.731s.471-37.187.706-55.79c7.667-1.227,15.335-2.581,23-3.958a10.442,10.442,0,0,1,7.525,1.385,15.362,15.362,0,0,1,5.833,6.432,19.193,19.193,0,0,1,2.116,8.986c-.144,10.371-.329,20.72-.471,31.051-2.3,4.255-4.515,8.45-6.678,12.567,2.163,4.117,4.327,8.273,6.538,12.508.047,9.876.07,19.712.094,29.568.023,9.836.047,19.691.094,29.508A30.768,30.768,0,0,1,545.966,350.746ZM574.515,337.8c-.039-15.932-.164-31.884-.094-47.815.071-15.951.388-31.9.659-47.834a27.488,27.488,0,0,1,2.3-10.39,30.092,30.092,0,0,1,6.02-9.1c2.55-2.642,5.028-4.277,7.62-4.888,7.472-1.763,15-3.582,22.529-5.443-.141,8.174-.306,16.308-.376,24.462-.071,8.133-.236,16.268-.377,24.4-4.233.355-8.466.692-12.7,1.048.188-11.063.377-22.165.518-33.249-4.233.831-8.419,1.623-12.559,2.415q-.211,13.151-.423,26.282t-.423,26.263c4.187,0,8.372-.02,12.605-.04v12.9c-4.234-.158-8.419-.337-12.605-.495,0,8.787.023,17.594.047,26.362s0,17.574.047,26.362c4.186.95,8.325,1.92,12.558,2.869q0-16.771-.046-33.624c4.185.475,8.419.97,12.652,1.445,0,8.173.047,16.347.047,24.521v24.52c-7.479-2.078-14.91-4.136-22.388-6.194a16.442,16.442,0,0,1-7.525-5.047,31.218,31.218,0,0,1-5.879-9.242A27.22,27.22,0,0,1,574.515,337.8Zm94.537-26.658v44.233a37.934,37.934,0,0,1-2.21,13.22,18.833,18.833,0,0,1-5.786,8.609,8.57,8.57,0,0,1-7.713,1.7c-7.482-1.944-14.91-3.939-22.341-5.937,0-10.311-.047-20.642-.047-30.973,4.28.732,8.512,1.445,12.792,2.157v17.357q6.279,1.364,12.558,2.692V298.558c-3.01-.04-5.974-.1-8.937-.178A12.113,12.113,0,0,1,638.9,294.3a26.108,26.108,0,0,1-5.832-10.39,43.514,43.514,0,0,1-1.928-14.032c.166-12.35.443-24.7.611-37.049a38.192,38.192,0,0,1,2.634-13.676,31.566,31.566,0,0,1,6.631-10.568,19.083,19.083,0,0,1,8.655-5.482c6.869-1.811,13.734-3.621,20.647-5.4-.141,11.8-.329,23.571-.47,35.327-4.28.673-8.513,1.385-12.745,2.078.047-5.937.141-11.875.234-17.852-4.233.911-8.419,1.821-12.6,2.712-.141,10.569-.353,21.156-.517,31.7-.164,10.568-.33,21.157-.471,31.7,3.293-.078,6.585-.13,9.877-.218,2.634-.07,5.168,1.173,7.526,3.741a27.976,27.976,0,0,1,5.738,10.508A44.49,44.49,0,0,1,669.052,311.145Z" transform="translate(135.425 1826.564)" fill="#fff" fill-rule="evenodd"/>
  </g>
</svg>
