<svg xmlns="http://www.w3.org/2000/svg" width="512" height="236.594" viewBox="0 0 512 236.594">
  <path id="Trazado_10" data-name="Trazado 10" d="M0,0C85.333,13.511,169.593,51.861,255.95,51.861S426.617,13.461,512,0V236.594c-85.333-15.047-169.486-57.849-256.05-57.6S85.284,221.746,0,236.594V0ZM36.986,48.709V93.4q0,22.336-.05,44.708l12.843-.932V94.163c0-14.35.05-28.714.05-43.065Q43.386,49.911,36.986,48.709Zm25.6,15.737q0,15.018-.05,30-.075,14.987-.05,29.966a38.07,38.07,0,0,1-2.133,12.53,32.8,32.8,0,0,1-5.739,10.468,12.086,12.086,0,0,1-7.758,4.807c-3.342.4-6.635.775-9.956,1.145v54.265c-4.267,1.131-8.533,2.233-12.8,3.364V57.9A36.152,36.152,0,0,1,26.319,44.94a20.33,20.33,0,0,1,5.923-8.825,8.534,8.534,0,0,1,7.524-2.041c2.354.533,4.7,1.1,7.111,1.643A14.442,14.442,0,0,1,54.543,41.2a35.442,35.442,0,0,1,5.831,10.724,37.135,37.135,0,0,1,2.169,12.516Zm32.078,127c-4.373,1.23-8.7,2.475-13.077,3.7V130.913q0-32.121.092-64.263a25.9,25.9,0,0,1,2.24-10.83A16.491,16.491,0,0,1,89.8,48.56a9.7,9.7,0,0,1,7.524-1.5l7.111,1.522a15.287,15.287,0,0,1,7.716,4.672,28.2,28.2,0,0,1,5.788,8.946,26.193,26.193,0,0,1,2.133,10.268q-.12,28.026-.142,56.028v55.972l-12.7,3.463V144.709c-4.188.512-8.42,1.052-12.608,1.586v45.12ZM94.571,59.177q-.07,18.645-.142,37.248c-.05,12.388-.05,24.818-.05,37.205,4.188-.356,8.42-.711,12.608-1.031,0-11.876,0-23.772.05-35.627s.092-23.751.142-35.619c-4.281-.74-8.512-1.451-12.651-2.183Zm45.34-3.62q6.4,1.163,12.8,2.233c-.05,18.126-.235,36.217-.284,54.307s0,36.174.05,54.244c4.267-.789,8.533-1.621,12.843-2.453v-12.8l12.651-1.7c0,7.246,0,14.485.05,21.71-7.666,1.522-15.189,3.129-22.756,4.828a12.041,12.041,0,0,1-7.758-.711,12.338,12.338,0,0,1-5.739-5.54,18.323,18.323,0,0,1-2.133-8.988q0-26.272.05-52.587c.05-17.536.185-35.051.284-52.622Zm120.22,107.328c-4.331-.1-8.533-.078-12.843,0-.05-14.528-.164-29.092-.142-43.641s.235-29.156.42-43.676q-6.4-.057-12.843-.256c-.142,14.649-.356,29.291-.377,43.94s.092,29.291.142,43.9c-4.267.3-8.533.6-12.8.988,0-14.862-.121-29.767-.092-44.651s.235-29.8.427-44.686c-4.267-.256-8.42-.476-12.608-.711-.142,15.239-.356,30.5-.377,45.753s.05,30.478.092,45.7c-4.267.6-8.533,1.188-12.8,1.8q-.07-21.731-.092-43.463c0-14.507.206-28.992.284-43.5a15.139,15.139,0,0,1,2.133-7.58,15.559,15.559,0,0,1,5.6-5.689,12.8,12.8,0,0,1,7.616-1.685q16.434,1.237,32.924,1.7a15.359,15.359,0,0,1,7.431,2.219,17.427,17.427,0,0,1,5.881,5.426,12.311,12.311,0,0,1,2.254,6.926c-.121,13.511-.42,27.022-.42,40.612s.092,27.022.142,40.569Zm32.171,2.133c-4.373-.476-8.7-.91-13.077-1.23-.05-13.753-.142-27.492-.142-41.244s.263-27.527.419-41.287a13.8,13.8,0,0,1,2.354-7.3,19.476,19.476,0,0,1,5.881-5.938,16.357,16.357,0,0,1,7.573-2.709c2.354-.2,4.7-.434,7.111-.711a13.148,13.148,0,0,1,7.666,1.522,14.384,14.384,0,0,1,5.781,5.461,14.222,14.222,0,0,1,2.02,7.659c-.2,14.862-.448,29.746-.427,44.629s.092,29.724.142,44.587c-4.267-.711-8.462-1.323-12.7-1.9,0-5.3,0-10.624-.05-15.915s0-10.631-.05-15.95c-4.188-.256-8.42-.5-12.6-.711q0,7.78.05,15.516t.021,15.5Zm.092-90.745q-.142,12.8-.327,25.508c-.121,8.491-.192,17.024-.142,25.508,4.188.135,8.37.277,12.558.455-.05-8.725,0-17.493.142-26.226s.235-17.472.377-26.2c-4.267.356-8.42.676-12.608.953ZM350,68.158c-.092,7.182-.192,14.329-.284,21.49s-.185,14.286-.327,21.454c4.267,0,8.533,0,12.843.057.142-7.481.213-14.933.327-22.443s.235-14.933.327-22.442c-4.352.654-8.633,1.273-12.914,1.863ZM365.419,178.33a20.515,20.515,0,0,1-3.435-11.342c0-7.481,0-14.983-.05-22.464s-.05-15-.05-22.5c-4.188-.156-8.327-.334-12.508-.5.05,8.8.071,17.636.092,26.418s.05,17.614.05,26.418c-4.373-.967-8.747-1.9-13.077-2.752-.05-18.567-.213-37.148-.142-55.73s.469-37.184.711-55.793c7.666-1.23,15.332-2.581,23-3.961a10.439,10.439,0,0,1,7.524,1.387,15.36,15.36,0,0,1,5.831,6.4A19.2,19.2,0,0,1,375.5,72.9c-.142,10.368-.327,20.722-.469,31.054-2.3,4.267-4.516,8.448-6.677,12.565,2.133,4.117,4.324,8.27,6.535,12.508.05,9.877.071,19.712.092,29.568s.05,19.691.092,29.511a30.778,30.778,0,0,1-9.678-9.8Zm28.551-12.942c-.036-15.929-.164-31.886-.092-47.815s.391-31.9.661-47.836a27.494,27.494,0,0,1,2.3-10.389,30.1,30.1,0,0,1,6.023-9.1,15.978,15.978,0,0,1,7.623-4.885c7.474-1.764,15-3.556,22.528-5.44-.142,8.171-.306,16.306-.377,24.462s-.235,16.27-.377,24.405l-12.7,1.045c.185-11.065.377-22.165.519-33.251-4.267.832-8.42,1.621-12.558,2.418q-.213,13.148-.42,26.311t-.427,26.261c4.188,0,8.37,0,12.608-.043v12.907c-4.267-.156-8.42-.334-12.608-.5,0,8.789,0,17.593.05,26.361s0,17.572.05,26.361c4.188.953,8.327,1.92,12.558,2.844q0-16.768-.05-33.621c4.188.476,8.42.967,12.651,1.422,0,8.171.05,16.356.05,24.519v24.519q-11.221-3.115-22.386-6.194a16.441,16.441,0,0,1-7.524-5.049,31.23,31.23,0,0,1-5.881-9.244,27.232,27.232,0,0,1-2.233-10.489Zm94.535-26.66V182.96a37.931,37.931,0,0,1-2.212,13.22,18.821,18.821,0,0,1-5.788,8.612,8.569,8.569,0,0,1-7.716,1.7c-7.481-1.941-14.933-3.94-22.343-5.938,0-10.311-.05-20.622-.05-30.976l12.8,2.133v17.358q6.279,1.365,12.558,2.7v-65.65c-3.008-.043-5.973-.1-8.939-.178a12.09,12.09,0,0,1-8.469-4.075,26.116,26.116,0,0,1-5.831-10.389,43.505,43.505,0,0,1-1.927-14.03c.164-12.352.441-24.7.612-37.049a38.19,38.19,0,0,1,2.631-13.675,31.561,31.561,0,0,1,6.628-10.567,19.088,19.088,0,0,1,8.654-5.483q10.3-2.72,20.622-5.4c-.142,11.8-.327,23.573-.469,35.328-4.267.676-8.533,1.387-12.743,2.076.05-5.938.142-11.876.235-17.849-4.267.91-8.42,1.82-12.6,2.709-.142,10.567-.356,21.156-.519,31.7s-.327,21.156-.469,31.7c3.292-.078,6.585-.128,9.877-.22a9.884,9.884,0,0,1,7.524,3.74,27.968,27.968,0,0,1,5.739,10.51,44.474,44.474,0,0,1,2.169,13.753Z" fill="#fff" fill-rule="evenodd"/>
</svg>
